<?xml version="1.0" encoding="utf-8" standalone="no"?>
<!DOCTYPE svg PUBLIC "-//W3C//DTD SVG 1.1//EN"
  "http://www.w3.org/Graphics/SVG/1.1/DTD/svg11.dtd">
<svg xmlns:xlink="http://www.w3.org/1999/xlink" width="720pt" height="504pt" viewBox="0 0 720 504" xmlns="http://www.w3.org/2000/svg" version="1.1">
 <metadata>
  <rdf:RDF xmlns:dc="http://purl.org/dc/elements/1.1/" xmlns:cc="http://creativecommons.org/ns#" xmlns:rdf="http://www.w3.org/1999/02/22-rdf-syntax-ns#">
   <cc:Work>
    <dc:type rdf:resource="http://purl.org/dc/dcmitype/StillImage"/>
    <dc:date>2022-04-25T15:35:44.371181</dc:date>
    <dc:format>image/svg+xml</dc:format>
    <dc:creator>
     <cc:Agent>
      <dc:title>Matplotlib v3.5.1, https://matplotlib.org/</dc:title>
     </cc:Agent>
    </dc:creator>
   </cc:Work>
  </rdf:RDF>
 </metadata>
 <defs>
  <style type="text/css">*{stroke-linejoin: round; stroke-linecap: butt}</style>
 </defs>
 <g id="figure_1">
  <g id="patch_1">
   <path d="M 0 504 
L 720 504 
L 720 0 
L 0 0 
z
" style="fill: #ffffff"/>
  </g>
  <g id="axes_1">
   <g id="patch_2">
    <path d="M 90 441 
L 648 441 
L 648 60.48 
L 90 60.48 
z
" style="fill: #ffffff"/>
   </g>
   <g id="matplotlib.axis_1">
    <g id="xtick_1">
     <g id="line2d_1"/>
     <g id="text_1">
      <!-- 0.0 -->
      <g style="fill: #262626" transform="translate(76.1 466.515625)scale(0.2 -0.2)">
       <defs>
        <path id="ArialMT-30" d="M 266 2259 
Q 266 3072 433 3567 
Q 600 4063 929 4331 
Q 1259 4600 1759 4600 
Q 2128 4600 2406 4451 
Q 2684 4303 2865 4023 
Q 3047 3744 3150 3342 
Q 3253 2941 3253 2259 
Q 3253 1453 3087 958 
Q 2922 463 2592 192 
Q 2263 -78 1759 -78 
Q 1097 -78 719 397 
Q 266 969 266 2259 
z
M 844 2259 
Q 844 1131 1108 757 
Q 1372 384 1759 384 
Q 2147 384 2411 759 
Q 2675 1134 2675 2259 
Q 2675 3391 2411 3762 
Q 2147 4134 1753 4134 
Q 1366 4134 1134 3806 
Q 844 3388 844 2259 
z
" transform="scale(0.015625)"/>
        <path id="ArialMT-2e" d="M 581 0 
L 581 641 
L 1222 641 
L 1222 0 
L 581 0 
z
" transform="scale(0.015625)"/>
       </defs>
       <use xlink:href="#ArialMT-30"/>
       <use xlink:href="#ArialMT-2e" x="55.615234"/>
       <use xlink:href="#ArialMT-30" x="83.398438"/>
      </g>
     </g>
    </g>
    <g id="xtick_2">
     <g id="line2d_2"/>
     <g id="text_2">
      <!-- 0.2 -->
      <g style="fill: #262626" transform="translate(187.7 466.515625)scale(0.2 -0.2)">
       <defs>
        <path id="ArialMT-32" d="M 3222 541 
L 3222 0 
L 194 0 
Q 188 203 259 391 
Q 375 700 629 1000 
Q 884 1300 1366 1694 
Q 2113 2306 2375 2664 
Q 2638 3022 2638 3341 
Q 2638 3675 2398 3904 
Q 2159 4134 1775 4134 
Q 1369 4134 1125 3890 
Q 881 3647 878 3216 
L 300 3275 
Q 359 3922 746 4261 
Q 1134 4600 1788 4600 
Q 2447 4600 2831 4234 
Q 3216 3869 3216 3328 
Q 3216 3053 3103 2787 
Q 2991 2522 2730 2228 
Q 2469 1934 1863 1422 
Q 1356 997 1212 845 
Q 1069 694 975 541 
L 3222 541 
z
" transform="scale(0.015625)"/>
       </defs>
       <use xlink:href="#ArialMT-30"/>
       <use xlink:href="#ArialMT-2e" x="55.615234"/>
       <use xlink:href="#ArialMT-32" x="83.398438"/>
      </g>
     </g>
    </g>
    <g id="xtick_3">
     <g id="line2d_3"/>
     <g id="text_3">
      <!-- 0.4 -->
      <g style="fill: #262626" transform="translate(299.3 466.515625)scale(0.2 -0.2)">
       <defs>
        <path id="ArialMT-34" d="M 2069 0 
L 2069 1097 
L 81 1097 
L 81 1613 
L 2172 4581 
L 2631 4581 
L 2631 1613 
L 3250 1613 
L 3250 1097 
L 2631 1097 
L 2631 0 
L 2069 0 
z
M 2069 1613 
L 2069 3678 
L 634 1613 
L 2069 1613 
z
" transform="scale(0.015625)"/>
       </defs>
       <use xlink:href="#ArialMT-30"/>
       <use xlink:href="#ArialMT-2e" x="55.615234"/>
       <use xlink:href="#ArialMT-34" x="83.398438"/>
      </g>
     </g>
    </g>
    <g id="xtick_4">
     <g id="line2d_4"/>
     <g id="text_4">
      <!-- 0.6 -->
      <g style="fill: #262626" transform="translate(410.9 466.515625)scale(0.2 -0.2)">
       <defs>
        <path id="ArialMT-36" d="M 3184 3459 
L 2625 3416 
Q 2550 3747 2413 3897 
Q 2184 4138 1850 4138 
Q 1581 4138 1378 3988 
Q 1113 3794 959 3422 
Q 806 3050 800 2363 
Q 1003 2672 1297 2822 
Q 1591 2972 1913 2972 
Q 2475 2972 2870 2558 
Q 3266 2144 3266 1488 
Q 3266 1056 3080 686 
Q 2894 316 2569 119 
Q 2244 -78 1831 -78 
Q 1128 -78 684 439 
Q 241 956 241 2144 
Q 241 3472 731 4075 
Q 1159 4600 1884 4600 
Q 2425 4600 2770 4297 
Q 3116 3994 3184 3459 
z
M 888 1484 
Q 888 1194 1011 928 
Q 1134 663 1356 523 
Q 1578 384 1822 384 
Q 2178 384 2434 671 
Q 2691 959 2691 1453 
Q 2691 1928 2437 2201 
Q 2184 2475 1800 2475 
Q 1419 2475 1153 2201 
Q 888 1928 888 1484 
z
" transform="scale(0.015625)"/>
       </defs>
       <use xlink:href="#ArialMT-30"/>
       <use xlink:href="#ArialMT-2e" x="55.615234"/>
       <use xlink:href="#ArialMT-36" x="83.398438"/>
      </g>
     </g>
    </g>
    <g id="xtick_5">
     <g id="line2d_5"/>
     <g id="text_5">
      <!-- 0.8 -->
      <g style="fill: #262626" transform="translate(522.5 466.515625)scale(0.2 -0.2)">
       <defs>
        <path id="ArialMT-38" d="M 1131 2484 
Q 781 2613 612 2850 
Q 444 3088 444 3419 
Q 444 3919 803 4259 
Q 1163 4600 1759 4600 
Q 2359 4600 2725 4251 
Q 3091 3903 3091 3403 
Q 3091 3084 2923 2848 
Q 2756 2613 2416 2484 
Q 2838 2347 3058 2040 
Q 3278 1734 3278 1309 
Q 3278 722 2862 322 
Q 2447 -78 1769 -78 
Q 1091 -78 675 323 
Q 259 725 259 1325 
Q 259 1772 486 2073 
Q 713 2375 1131 2484 
z
M 1019 3438 
Q 1019 3113 1228 2906 
Q 1438 2700 1772 2700 
Q 2097 2700 2305 2904 
Q 2513 3109 2513 3406 
Q 2513 3716 2298 3927 
Q 2084 4138 1766 4138 
Q 1444 4138 1231 3931 
Q 1019 3725 1019 3438 
z
M 838 1322 
Q 838 1081 952 856 
Q 1066 631 1291 507 
Q 1516 384 1775 384 
Q 2178 384 2440 643 
Q 2703 903 2703 1303 
Q 2703 1709 2433 1975 
Q 2163 2241 1756 2241 
Q 1359 2241 1098 1978 
Q 838 1716 838 1322 
z
" transform="scale(0.015625)"/>
       </defs>
       <use xlink:href="#ArialMT-30"/>
       <use xlink:href="#ArialMT-2e" x="55.615234"/>
       <use xlink:href="#ArialMT-38" x="83.398438"/>
      </g>
     </g>
    </g>
    <g id="xtick_6">
     <g id="line2d_6"/>
     <g id="text_6">
      <!-- 1.0 -->
      <g style="fill: #262626" transform="translate(634.1 466.515625)scale(0.2 -0.2)">
       <defs>
        <path id="ArialMT-31" d="M 2384 0 
L 1822 0 
L 1822 3584 
Q 1619 3391 1289 3197 
Q 959 3003 697 2906 
L 697 3450 
Q 1169 3672 1522 3987 
Q 1875 4303 2022 4600 
L 2384 4600 
L 2384 0 
z
" transform="scale(0.015625)"/>
       </defs>
       <use xlink:href="#ArialMT-31"/>
       <use xlink:href="#ArialMT-2e" x="55.615234"/>
       <use xlink:href="#ArialMT-30" x="83.398438"/>
      </g>
     </g>
    </g>
    <g id="text_7">
     <!-- TaniSim -->
     <g style="fill: #262626" transform="translate(324.548828 492.385156)scale(0.25 -0.25)">
      <defs>
       <path id="ArialMT-54" d="M 1659 0 
L 1659 4041 
L 150 4041 
L 150 4581 
L 3781 4581 
L 3781 4041 
L 2266 4041 
L 2266 0 
L 1659 0 
z
" transform="scale(0.015625)"/>
       <path id="ArialMT-61" d="M 2588 409 
Q 2275 144 1986 34 
Q 1697 -75 1366 -75 
Q 819 -75 525 192 
Q 231 459 231 875 
Q 231 1119 342 1320 
Q 453 1522 633 1644 
Q 813 1766 1038 1828 
Q 1203 1872 1538 1913 
Q 2219 1994 2541 2106 
Q 2544 2222 2544 2253 
Q 2544 2597 2384 2738 
Q 2169 2928 1744 2928 
Q 1347 2928 1158 2789 
Q 969 2650 878 2297 
L 328 2372 
Q 403 2725 575 2942 
Q 747 3159 1072 3276 
Q 1397 3394 1825 3394 
Q 2250 3394 2515 3294 
Q 2781 3194 2906 3042 
Q 3031 2891 3081 2659 
Q 3109 2516 3109 2141 
L 3109 1391 
Q 3109 606 3145 398 
Q 3181 191 3288 0 
L 2700 0 
Q 2613 175 2588 409 
z
M 2541 1666 
Q 2234 1541 1622 1453 
Q 1275 1403 1131 1340 
Q 988 1278 909 1158 
Q 831 1038 831 891 
Q 831 666 1001 516 
Q 1172 366 1500 366 
Q 1825 366 2078 508 
Q 2331 650 2450 897 
Q 2541 1088 2541 1459 
L 2541 1666 
z
" transform="scale(0.015625)"/>
       <path id="ArialMT-6e" d="M 422 0 
L 422 3319 
L 928 3319 
L 928 2847 
Q 1294 3394 1984 3394 
Q 2284 3394 2536 3286 
Q 2788 3178 2913 3003 
Q 3038 2828 3088 2588 
Q 3119 2431 3119 2041 
L 3119 0 
L 2556 0 
L 2556 2019 
Q 2556 2363 2490 2533 
Q 2425 2703 2258 2804 
Q 2091 2906 1866 2906 
Q 1506 2906 1245 2678 
Q 984 2450 984 1813 
L 984 0 
L 422 0 
z
" transform="scale(0.015625)"/>
       <path id="ArialMT-69" d="M 425 3934 
L 425 4581 
L 988 4581 
L 988 3934 
L 425 3934 
z
M 425 0 
L 425 3319 
L 988 3319 
L 988 0 
L 425 0 
z
" transform="scale(0.015625)"/>
       <path id="ArialMT-53" d="M 288 1472 
L 859 1522 
Q 900 1178 1048 958 
Q 1197 738 1509 602 
Q 1822 466 2213 466 
Q 2559 466 2825 569 
Q 3091 672 3220 851 
Q 3350 1031 3350 1244 
Q 3350 1459 3225 1620 
Q 3100 1781 2813 1891 
Q 2628 1963 1997 2114 
Q 1366 2266 1113 2400 
Q 784 2572 623 2826 
Q 463 3081 463 3397 
Q 463 3744 659 4045 
Q 856 4347 1234 4503 
Q 1613 4659 2075 4659 
Q 2584 4659 2973 4495 
Q 3363 4331 3572 4012 
Q 3781 3694 3797 3291 
L 3216 3247 
Q 3169 3681 2898 3903 
Q 2628 4125 2100 4125 
Q 1550 4125 1298 3923 
Q 1047 3722 1047 3438 
Q 1047 3191 1225 3031 
Q 1400 2872 2139 2705 
Q 2878 2538 3153 2413 
Q 3553 2228 3743 1945 
Q 3934 1663 3934 1294 
Q 3934 928 3725 604 
Q 3516 281 3123 101 
Q 2731 -78 2241 -78 
Q 1619 -78 1198 103 
Q 778 284 539 648 
Q 300 1013 288 1472 
z
" transform="scale(0.015625)"/>
       <path id="ArialMT-6d" d="M 422 0 
L 422 3319 
L 925 3319 
L 925 2853 
Q 1081 3097 1340 3245 
Q 1600 3394 1931 3394 
Q 2300 3394 2536 3241 
Q 2772 3088 2869 2813 
Q 3263 3394 3894 3394 
Q 4388 3394 4653 3120 
Q 4919 2847 4919 2278 
L 4919 0 
L 4359 0 
L 4359 2091 
Q 4359 2428 4304 2576 
Q 4250 2725 4106 2815 
Q 3963 2906 3769 2906 
Q 3419 2906 3187 2673 
Q 2956 2441 2956 1928 
L 2956 0 
L 2394 0 
L 2394 2156 
Q 2394 2531 2256 2718 
Q 2119 2906 1806 2906 
Q 1569 2906 1367 2781 
Q 1166 2656 1075 2415 
Q 984 2175 984 1722 
L 984 0 
L 422 0 
z
" transform="scale(0.015625)"/>
      </defs>
      <use xlink:href="#ArialMT-54"/>
      <use xlink:href="#ArialMT-61" x="49.958984"/>
      <use xlink:href="#ArialMT-6e" x="105.574219"/>
      <use xlink:href="#ArialMT-69" x="161.189453"/>
      <use xlink:href="#ArialMT-53" x="183.40625"/>
      <use xlink:href="#ArialMT-69" x="250.105469"/>
      <use xlink:href="#ArialMT-6d" x="272.322266"/>
     </g>
    </g>
   </g>
   <g id="matplotlib.axis_2">
    <g id="ytick_1">
     <g id="line2d_7"/>
     <g id="text_8">
      <!-- 0.0 -->
      <g style="fill: #262626" transform="translate(51 448.157812)scale(0.2 -0.2)">
       <use xlink:href="#ArialMT-30"/>
       <use xlink:href="#ArialMT-2e" x="55.615234"/>
       <use xlink:href="#ArialMT-30" x="83.398438"/>
      </g>
     </g>
    </g>
    <g id="ytick_2">
     <g id="line2d_8"/>
     <g id="text_9">
      <!-- 0.2 -->
      <g style="fill: #262626" transform="translate(51 372.053813)scale(0.2 -0.2)">
       <use xlink:href="#ArialMT-30"/>
       <use xlink:href="#ArialMT-2e" x="55.615234"/>
       <use xlink:href="#ArialMT-32" x="83.398438"/>
      </g>
     </g>
    </g>
    <g id="ytick_3">
     <g id="line2d_9"/>
     <g id="text_10">
      <!-- 0.4 -->
      <g style="fill: #262626" transform="translate(51 295.949813)scale(0.2 -0.2)">
       <use xlink:href="#ArialMT-30"/>
       <use xlink:href="#ArialMT-2e" x="55.615234"/>
       <use xlink:href="#ArialMT-34" x="83.398438"/>
      </g>
     </g>
    </g>
    <g id="ytick_4">
     <g id="line2d_10"/>
     <g id="text_11">
      <!-- 0.6 -->
      <g style="fill: #262626" transform="translate(51 219.845812)scale(0.2 -0.2)">
       <use xlink:href="#ArialMT-30"/>
       <use xlink:href="#ArialMT-2e" x="55.615234"/>
       <use xlink:href="#ArialMT-36" x="83.398438"/>
      </g>
     </g>
    </g>
    <g id="ytick_5">
     <g id="line2d_11"/>
     <g id="text_12">
      <!-- 0.8 -->
      <g style="fill: #262626" transform="translate(51 143.741812)scale(0.2 -0.2)">
       <use xlink:href="#ArialMT-30"/>
       <use xlink:href="#ArialMT-2e" x="55.615234"/>
       <use xlink:href="#ArialMT-38" x="83.398438"/>
      </g>
     </g>
    </g>
    <g id="ytick_6">
     <g id="line2d_12"/>
     <g id="text_13">
      <!-- 1.0 -->
      <g style="fill: #262626" transform="translate(51 67.637812)scale(0.2 -0.2)">
       <use xlink:href="#ArialMT-31"/>
       <use xlink:href="#ArialMT-2e" x="55.615234"/>
       <use xlink:href="#ArialMT-30" x="83.398438"/>
      </g>
     </g>
    </g>
    <g id="text_14">
     <!-- Proportion -->
     <g style="fill: #262626" transform="translate(42.03125 308.407969)rotate(-90)scale(0.25 -0.25)">
      <defs>
       <path id="ArialMT-50" d="M 494 0 
L 494 4581 
L 2222 4581 
Q 2678 4581 2919 4538 
Q 3256 4481 3484 4323 
Q 3713 4166 3852 3881 
Q 3991 3597 3991 3256 
Q 3991 2672 3619 2267 
Q 3247 1863 2275 1863 
L 1100 1863 
L 1100 0 
L 494 0 
z
M 1100 2403 
L 2284 2403 
Q 2872 2403 3119 2622 
Q 3366 2841 3366 3238 
Q 3366 3525 3220 3729 
Q 3075 3934 2838 4000 
Q 2684 4041 2272 4041 
L 1100 4041 
L 1100 2403 
z
" transform="scale(0.015625)"/>
       <path id="ArialMT-72" d="M 416 0 
L 416 3319 
L 922 3319 
L 922 2816 
Q 1116 3169 1280 3281 
Q 1444 3394 1641 3394 
Q 1925 3394 2219 3213 
L 2025 2691 
Q 1819 2813 1613 2813 
Q 1428 2813 1281 2702 
Q 1134 2591 1072 2394 
Q 978 2094 978 1738 
L 978 0 
L 416 0 
z
" transform="scale(0.015625)"/>
       <path id="ArialMT-6f" d="M 213 1659 
Q 213 2581 725 3025 
Q 1153 3394 1769 3394 
Q 2453 3394 2887 2945 
Q 3322 2497 3322 1706 
Q 3322 1066 3130 698 
Q 2938 331 2570 128 
Q 2203 -75 1769 -75 
Q 1072 -75 642 372 
Q 213 819 213 1659 
z
M 791 1659 
Q 791 1022 1069 705 
Q 1347 388 1769 388 
Q 2188 388 2466 706 
Q 2744 1025 2744 1678 
Q 2744 2294 2464 2611 
Q 2184 2928 1769 2928 
Q 1347 2928 1069 2612 
Q 791 2297 791 1659 
z
" transform="scale(0.015625)"/>
       <path id="ArialMT-70" d="M 422 -1272 
L 422 3319 
L 934 3319 
L 934 2888 
Q 1116 3141 1344 3267 
Q 1572 3394 1897 3394 
Q 2322 3394 2647 3175 
Q 2972 2956 3137 2557 
Q 3303 2159 3303 1684 
Q 3303 1175 3120 767 
Q 2938 359 2589 142 
Q 2241 -75 1856 -75 
Q 1575 -75 1351 44 
Q 1128 163 984 344 
L 984 -1272 
L 422 -1272 
z
M 931 1641 
Q 931 1000 1190 694 
Q 1450 388 1819 388 
Q 2194 388 2461 705 
Q 2728 1022 2728 1688 
Q 2728 2322 2467 2637 
Q 2206 2953 1844 2953 
Q 1484 2953 1207 2617 
Q 931 2281 931 1641 
z
" transform="scale(0.015625)"/>
       <path id="ArialMT-74" d="M 1650 503 
L 1731 6 
Q 1494 -44 1306 -44 
Q 1000 -44 831 53 
Q 663 150 594 308 
Q 525 466 525 972 
L 525 2881 
L 113 2881 
L 113 3319 
L 525 3319 
L 525 4141 
L 1084 4478 
L 1084 3319 
L 1650 3319 
L 1650 2881 
L 1084 2881 
L 1084 941 
Q 1084 700 1114 631 
Q 1144 563 1211 522 
Q 1278 481 1403 481 
Q 1497 481 1650 503 
z
" transform="scale(0.015625)"/>
      </defs>
      <use xlink:href="#ArialMT-50"/>
      <use xlink:href="#ArialMT-72" x="66.699219"/>
      <use xlink:href="#ArialMT-6f" x="100"/>
      <use xlink:href="#ArialMT-70" x="155.615234"/>
      <use xlink:href="#ArialMT-6f" x="211.230469"/>
      <use xlink:href="#ArialMT-72" x="266.845703"/>
      <use xlink:href="#ArialMT-74" x="300.146484"/>
      <use xlink:href="#ArialMT-69" x="327.929688"/>
      <use xlink:href="#ArialMT-6f" x="350.146484"/>
      <use xlink:href="#ArialMT-6e" x="405.761719"/>
     </g>
    </g>
   </g>
   <g id="line2d_13">
    <path d="M 117.342 441 
L 117.342 440.380261 
L 117.9 440.380261 
L 117.9 439.760521 
L 118.458 439.760521 
L 118.458 437.901303 
L 119.016 437.901303 
L 119.016 437.281564 
L 119.574 437.281564 
L 119.574 436.661824 
L 120.132 436.661824 
L 120.132 436.042085 
L 121.248 436.042085 
L 121.248 433.563127 
L 121.806 433.563127 
L 121.806 432.323648 
L 122.364 432.323648 
L 122.364 430.46443 
L 123.48 430.46443 
L 123.48 429.844691 
L 124.038 429.844691 
L 124.038 428.605212 
L 124.596 428.605212 
L 124.596 425.506515 
L 125.154 425.506515 
L 125.154 422.407818 
L 125.712 422.407818 
L 125.712 421.788078 
L 126.27 421.788078 
L 126.27 419.92886 
L 126.828 419.92886 
L 126.828 416.830163 
L 127.386 416.830163 
L 127.386 413.731466 
L 127.944 413.731466 
L 127.944 413.111726 
L 128.502 413.111726 
L 128.502 411.252508 
L 129.06 411.252508 
L 129.06 404.435375 
L 129.618 404.435375 
L 129.618 400.716938 
L 130.176 400.716938 
L 130.176 397.618241 
L 130.734 397.618241 
L 130.734 395.759023 
L 131.292 395.759023 
L 131.292 391.420847 
L 131.85 391.420847 
L 131.85 388.32215 
L 132.408 388.32215 
L 132.408 383.364235 
L 132.966 383.364235 
L 132.966 380.885277 
L 133.524 380.885277 
L 133.524 375.307622 
L 134.082 375.307622 
L 134.082 370.349707 
L 134.64 370.349707 
L 134.64 365.391792 
L 135.198 365.391792 
L 135.198 359.194397 
L 135.756 359.194397 
L 135.756 353.616743 
L 136.314 353.616743 
L 136.314 349.898306 
L 136.872 349.898306 
L 136.872 341.221954 
L 137.43 341.221954 
L 137.43 337.503518 
L 137.988 337.503518 
L 137.988 323.249511 
L 138.546 323.249511 
L 138.546 314.57316 
L 139.104 314.57316 
L 139.104 305.277068 
L 139.662 305.277068 
L 139.662 302.178371 
L 140.22 302.178371 
L 140.22 294.741498 
L 140.778 294.741498 
L 140.778 292.262541 
L 141.336 292.262541 
L 141.336 282.34671 
L 141.894 282.34671 
L 141.894 276.149316 
L 142.452 276.149316 
L 142.452 266.853225 
L 143.01 266.853225 
L 143.01 261.895309 
L 143.568 261.895309 
L 143.568 253.838697 
L 144.126 253.838697 
L 144.126 250.120261 
L 144.684 250.120261 
L 144.684 244.542606 
L 145.242 244.542606 
L 145.242 234.626775 
L 145.8 234.626775 
L 145.8 227.189902 
L 146.358 227.189902 
L 146.358 217.893811 
L 146.916 217.893811 
L 146.916 214.795114 
L 147.474 214.795114 
L 147.474 208.59772 
L 148.032 208.59772 
L 148.032 200.541107 
L 148.59 200.541107 
L 148.59 193.104235 
L 149.148 193.104235 
L 149.148 183.188404 
L 149.706 183.188404 
L 149.706 179.469967 
L 150.264 179.469967 
L 150.264 173.892313 
L 150.822 173.892313 
L 150.822 168.934397 
L 151.38 168.934397 
L 151.38 162.737003 
L 151.938 162.737003 
L 151.938 160.258046 
L 152.496 160.258046 
L 152.496 156.539609 
L 153.054 156.539609 
L 153.054 150.961954 
L 153.612 150.961954 
L 153.612 146.623779 
L 154.17 146.623779 
L 154.17 142.905342 
L 154.728 142.905342 
L 154.728 136.707948 
L 155.286 136.707948 
L 155.286 132.369772 
L 155.844 132.369772 
L 155.844 126.172378 
L 156.402 126.172378 
L 156.402 119.355244 
L 156.96 119.355244 
L 156.96 116.876287 
L 157.518 116.876287 
L 157.518 112.538111 
L 158.076 112.538111 
L 158.076 110.059153 
L 158.634 110.059153 
L 158.634 108.199935 
L 159.192 108.199935 
L 159.192 103.861759 
L 159.75 103.861759 
L 159.75 102.002541 
L 160.308 102.002541 
L 160.308 100.763062 
L 160.866 100.763062 
L 160.866 96.424886 
L 161.424 96.424886 
L 161.424 92.08671 
L 161.982 92.08671 
L 161.982 88.988013 
L 162.54 88.988013 
L 162.54 87.748534 
L 163.098 87.748534 
L 163.098 86.509055 
L 163.656 86.509055 
L 163.656 84.030098 
L 164.214 84.030098 
L 164.214 83.410358 
L 164.772 83.410358 
L 164.772 82.170879 
L 165.888 82.170879 
L 165.888 80.931401 
L 166.446 80.931401 
L 166.446 79.691922 
L 167.562 79.691922 
L 167.562 78.452443 
L 168.12 78.452443 
L 168.12 77.832704 
L 168.678 77.832704 
L 168.678 75.973485 
L 169.236 75.973485 
L 169.236 74.734007 
L 170.91 74.734007 
L 170.91 72.874788 
L 172.026 72.874788 
L 172.026 72.255049 
L 173.142 72.255049 
L 173.142 71.635309 
L 173.7 71.635309 
L 173.7 68.536612 
L 174.258 68.536612 
L 174.258 67.916873 
L 174.816 67.916873 
L 174.816 66.677394 
L 175.374 66.677394 
L 175.374 66.057655 
L 176.49 66.057655 
L 176.49 65.437915 
L 177.048 65.437915 
L 177.048 64.818176 
L 178.164 64.818176 
L 178.164 64.198436 
L 178.722 64.198436 
L 178.722 61.099739 
L 187.092 61.099739 
L 187.092 60.48 
L 187.092 60.48 
" clip-path="url(#pace1e00d67)" style="fill: none; stroke: #ff7f0e; stroke-width: 2.8; stroke-linecap: round"/>
   </g>
   <g id="line2d_14">
    <path d="M 141.894 441 
L 141.894 438.521042 
L 143.01 438.521042 
L 143.01 437.901303 
L 143.568 437.901303 
L 143.568 437.281564 
L 144.126 437.281564 
L 144.126 436.042085 
L 145.242 436.042085 
L 145.242 434.182866 
L 145.8 434.182866 
L 145.8 432.323648 
L 146.358 432.323648 
L 146.358 431.703909 
L 146.916 431.703909 
L 146.916 430.46443 
L 147.474 430.46443 
L 147.474 425.506515 
L 148.032 425.506515 
L 148.032 423.027557 
L 148.59 423.027557 
L 148.59 418.689381 
L 149.148 418.689381 
L 149.148 416.830163 
L 149.706 416.830163 
L 149.706 413.731466 
L 150.264 413.731466 
L 150.264 411.252508 
L 150.822 411.252508 
L 150.822 408.153811 
L 151.38 408.153811 
L 151.38 401.956417 
L 151.938 401.956417 
L 151.938 400.097199 
L 152.496 400.097199 
L 152.496 398.85772 
L 153.054 398.85772 
L 153.054 392.660326 
L 153.612 392.660326 
L 153.612 388.941889 
L 154.17 388.941889 
L 154.17 385.223453 
L 154.728 385.223453 
L 154.728 380.885277 
L 155.286 380.885277 
L 155.286 378.406319 
L 155.844 378.406319 
L 155.844 365.391792 
L 156.402 365.391792 
L 156.402 364.152313 
L 156.96 364.152313 
L 156.96 360.433876 
L 157.518 360.433876 
L 157.518 356.71544 
L 158.076 356.71544 
L 158.076 354.236482 
L 158.634 354.236482 
L 158.634 349.898306 
L 159.192 349.898306 
L 159.192 343.081173 
L 159.75 343.081173 
L 159.75 339.982476 
L 160.308 339.982476 
L 160.308 337.503518 
L 160.866 337.503518 
L 160.866 328.207427 
L 161.424 328.207427 
L 161.424 320.770554 
L 161.982 320.770554 
L 161.982 317.671857 
L 162.54 317.671857 
L 162.54 309.615244 
L 163.098 309.615244 
L 163.098 308.375765 
L 163.656 308.375765 
L 163.656 304.03759 
L 164.214 304.03759 
L 164.214 297.840195 
L 164.772 297.840195 
L 164.772 291.023062 
L 165.33 291.023062 
L 165.33 285.445407 
L 165.888 285.445407 
L 165.888 279.867752 
L 166.446 279.867752 
L 166.446 269.332182 
L 167.004 269.332182 
L 167.004 264.374267 
L 167.562 264.374267 
L 167.562 258.796612 
L 168.12 258.796612 
L 168.12 254.458436 
L 168.678 254.458436 
L 168.678 251.979479 
L 169.236 251.979479 
L 169.236 245.162345 
L 169.794 245.162345 
L 169.794 238.964951 
L 170.352 238.964951 
L 170.352 232.767557 
L 170.91 232.767557 
L 170.91 225.950423 
L 171.468 225.950423 
L 171.468 218.51355 
L 172.026 218.51355 
L 172.026 212.316156 
L 172.584 212.316156 
L 172.584 203.020065 
L 173.142 203.020065 
L 173.142 193.104235 
L 173.7 193.104235 
L 173.7 191.245016 
L 174.258 191.245016 
L 174.258 181.948925 
L 174.816 181.948925 
L 174.816 178.850228 
L 175.374 178.850228 
L 175.374 176.99101 
L 175.932 176.99101 
L 175.932 173.272573 
L 176.49 173.272573 
L 176.49 167.694919 
L 177.048 167.694919 
L 177.048 163.356743 
L 177.606 163.356743 
L 177.606 159.018567 
L 178.164 159.018567 
L 178.164 157.159349 
L 178.722 157.159349 
L 178.722 152.821173 
L 179.28 152.821173 
L 179.28 150.342215 
L 179.838 150.342215 
L 179.838 143.525081 
L 180.396 143.525081 
L 180.396 140.426384 
L 180.954 140.426384 
L 180.954 137.327687 
L 181.512 137.327687 
L 181.512 136.088208 
L 182.07 136.088208 
L 182.07 132.989511 
L 182.628 132.989511 
L 182.628 128.651336 
L 183.186 128.651336 
L 183.186 126.792117 
L 183.744 126.792117 
L 183.744 122.453941 
L 184.302 122.453941 
L 184.302 119.355244 
L 184.86 119.355244 
L 184.86 116.876287 
L 185.418 116.876287 
L 185.418 116.256547 
L 185.976 116.256547 
L 185.976 113.15785 
L 186.534 113.15785 
L 186.534 111.298632 
L 187.092 111.298632 
L 187.092 108.819674 
L 187.65 108.819674 
L 187.65 107.580195 
L 188.208 107.580195 
L 188.208 105.720977 
L 189.324 105.720977 
L 189.324 104.481498 
L 189.882 104.481498 
L 189.882 102.62228 
L 190.44 102.62228 
L 190.44 100.763062 
L 190.998 100.763062 
L 190.998 98.284104 
L 191.556 98.284104 
L 191.556 97.044625 
L 192.114 97.044625 
L 192.114 95.805147 
L 192.672 95.805147 
L 192.672 93.945928 
L 193.23 93.945928 
L 193.23 90.847231 
L 193.788 90.847231 
L 193.788 90.227492 
L 194.346 90.227492 
L 194.346 88.988013 
L 194.904 88.988013 
L 194.904 86.509055 
L 195.462 86.509055 
L 195.462 85.889316 
L 196.02 85.889316 
L 196.02 84.649837 
L 197.136 84.649837 
L 197.136 83.410358 
L 197.694 83.410358 
L 197.694 82.790619 
L 198.252 82.790619 
L 198.252 80.931401 
L 198.81 80.931401 
L 198.81 79.072182 
L 199.368 79.072182 
L 199.368 78.452443 
L 199.926 78.452443 
L 199.926 74.734007 
L 202.158 74.734007 
L 202.158 73.494528 
L 203.832 73.494528 
L 203.832 72.874788 
L 205.506 72.874788 
L 205.506 71.635309 
L 207.18 71.635309 
L 207.18 67.916873 
L 211.644 67.916873 
L 211.644 67.297134 
L 212.202 67.297134 
L 212.202 64.818176 
L 212.76 64.818176 
L 212.76 64.198436 
L 218.34 64.198436 
L 218.34 63.578697 
L 221.13 63.578697 
L 221.13 62.958958 
L 226.71 62.958958 
L 226.71 61.719479 
L 234.522 61.719479 
L 234.522 60.48 
L 234.522 60.48 
" clip-path="url(#pace1e00d67)" style="fill: none; stroke: #1f77b4; stroke-width: 2.8; stroke-linecap: round"/>
   </g>
   <g id="patch_3">
    <path d="M 90 441 
L 90 60.48 
" style="fill: none; stroke: #262626; stroke-width: 1.25; stroke-linejoin: miter; stroke-linecap: square"/>
   </g>
   <g id="patch_4">
    <path d="M 648 441 
L 648 60.48 
" style="fill: none; stroke: #262626; stroke-width: 1.25; stroke-linejoin: miter; stroke-linecap: square"/>
   </g>
   <g id="patch_5">
    <path d="M 90 441 
L 648 441 
" style="fill: none; stroke: #262626; stroke-width: 1.25; stroke-linejoin: miter; stroke-linecap: square"/>
   </g>
   <g id="patch_6">
    <path d="M 90 60.48 
L 648 60.48 
" style="fill: none; stroke: #262626; stroke-width: 1.25; stroke-linejoin: miter; stroke-linecap: square"/>
   </g>
   <g id="text_15">
    <!-- Tanimoto Fingerprint Similarity -->
    <g style="fill: #262626" transform="translate(200.90625 54.48)scale(0.25 -0.25)">
     <defs>
      <path id="ArialMT-20" transform="scale(0.015625)"/>
      <path id="ArialMT-46" d="M 525 0 
L 525 4581 
L 3616 4581 
L 3616 4041 
L 1131 4041 
L 1131 2622 
L 3281 2622 
L 3281 2081 
L 1131 2081 
L 1131 0 
L 525 0 
z
" transform="scale(0.015625)"/>
      <path id="ArialMT-67" d="M 319 -275 
L 866 -356 
Q 900 -609 1056 -725 
Q 1266 -881 1628 -881 
Q 2019 -881 2231 -725 
Q 2444 -569 2519 -288 
Q 2563 -116 2559 434 
Q 2191 0 1641 0 
Q 956 0 581 494 
Q 206 988 206 1678 
Q 206 2153 378 2554 
Q 550 2956 876 3175 
Q 1203 3394 1644 3394 
Q 2231 3394 2613 2919 
L 2613 3319 
L 3131 3319 
L 3131 450 
Q 3131 -325 2973 -648 
Q 2816 -972 2473 -1159 
Q 2131 -1347 1631 -1347 
Q 1038 -1347 672 -1080 
Q 306 -813 319 -275 
z
M 784 1719 
Q 784 1066 1043 766 
Q 1303 466 1694 466 
Q 2081 466 2343 764 
Q 2606 1063 2606 1700 
Q 2606 2309 2336 2618 
Q 2066 2928 1684 2928 
Q 1309 2928 1046 2623 
Q 784 2319 784 1719 
z
" transform="scale(0.015625)"/>
      <path id="ArialMT-65" d="M 2694 1069 
L 3275 997 
Q 3138 488 2766 206 
Q 2394 -75 1816 -75 
Q 1088 -75 661 373 
Q 234 822 234 1631 
Q 234 2469 665 2931 
Q 1097 3394 1784 3394 
Q 2450 3394 2872 2941 
Q 3294 2488 3294 1666 
Q 3294 1616 3291 1516 
L 816 1516 
Q 847 969 1125 678 
Q 1403 388 1819 388 
Q 2128 388 2347 550 
Q 2566 713 2694 1069 
z
M 847 1978 
L 2700 1978 
Q 2663 2397 2488 2606 
Q 2219 2931 1791 2931 
Q 1403 2931 1139 2672 
Q 875 2413 847 1978 
z
" transform="scale(0.015625)"/>
      <path id="ArialMT-6c" d="M 409 0 
L 409 4581 
L 972 4581 
L 972 0 
L 409 0 
z
" transform="scale(0.015625)"/>
      <path id="ArialMT-79" d="M 397 -1278 
L 334 -750 
Q 519 -800 656 -800 
Q 844 -800 956 -737 
Q 1069 -675 1141 -563 
Q 1194 -478 1313 -144 
Q 1328 -97 1363 -6 
L 103 3319 
L 709 3319 
L 1400 1397 
Q 1534 1031 1641 628 
Q 1738 1016 1872 1384 
L 2581 3319 
L 3144 3319 
L 1881 -56 
Q 1678 -603 1566 -809 
Q 1416 -1088 1222 -1217 
Q 1028 -1347 759 -1347 
Q 597 -1347 397 -1278 
z
" transform="scale(0.015625)"/>
     </defs>
     <use xlink:href="#ArialMT-54"/>
     <use xlink:href="#ArialMT-61" x="49.958984"/>
     <use xlink:href="#ArialMT-6e" x="105.574219"/>
     <use xlink:href="#ArialMT-69" x="161.189453"/>
     <use xlink:href="#ArialMT-6d" x="183.40625"/>
     <use xlink:href="#ArialMT-6f" x="266.707031"/>
     <use xlink:href="#ArialMT-74" x="322.322266"/>
     <use xlink:href="#ArialMT-6f" x="350.105469"/>
     <use xlink:href="#ArialMT-20" x="405.720703"/>
     <use xlink:href="#ArialMT-46" x="433.503906"/>
     <use xlink:href="#ArialMT-69" x="494.587891"/>
     <use xlink:href="#ArialMT-6e" x="516.804688"/>
     <use xlink:href="#ArialMT-67" x="572.419922"/>
     <use xlink:href="#ArialMT-65" x="628.035156"/>
     <use xlink:href="#ArialMT-72" x="683.650391"/>
     <use xlink:href="#ArialMT-70" x="716.951172"/>
     <use xlink:href="#ArialMT-72" x="772.566406"/>
     <use xlink:href="#ArialMT-69" x="805.867188"/>
     <use xlink:href="#ArialMT-6e" x="828.083984"/>
     <use xlink:href="#ArialMT-74" x="883.699219"/>
     <use xlink:href="#ArialMT-20" x="911.482422"/>
     <use xlink:href="#ArialMT-53" x="939.265625"/>
     <use xlink:href="#ArialMT-69" x="1005.964844"/>
     <use xlink:href="#ArialMT-6d" x="1028.181641"/>
     <use xlink:href="#ArialMT-69" x="1111.482422"/>
     <use xlink:href="#ArialMT-6c" x="1133.699219"/>
     <use xlink:href="#ArialMT-61" x="1155.916016"/>
     <use xlink:href="#ArialMT-72" x="1211.53125"/>
     <use xlink:href="#ArialMT-69" x="1244.832031"/>
     <use xlink:href="#ArialMT-74" x="1267.048828"/>
     <use xlink:href="#ArialMT-79" x="1294.832031"/>
    </g>
   </g>
   <g id="legend_1">
    <g id="text_16">
     <!-- Fingerprint -->
     <g style="fill: #262626" transform="translate(538.9125 88.295625)scale(0.2 -0.2)">
      <use xlink:href="#ArialMT-46"/>
      <use xlink:href="#ArialMT-69" x="61.083984"/>
      <use xlink:href="#ArialMT-6e" x="83.300781"/>
      <use xlink:href="#ArialMT-67" x="138.916016"/>
      <use xlink:href="#ArialMT-65" x="194.53125"/>
      <use xlink:href="#ArialMT-72" x="250.146484"/>
      <use xlink:href="#ArialMT-70" x="283.447266"/>
      <use xlink:href="#ArialMT-72" x="339.0625"/>
      <use xlink:href="#ArialMT-69" x="372.363281"/>
      <use xlink:href="#ArialMT-6e" x="394.580078"/>
      <use xlink:href="#ArialMT-74" x="450.195312"/>
     </g>
    </g>
    <g id="line2d_15">
     <path d="M 541.119141 105.491719 
L 556.119141 105.491719 
L 556.119141 105.491719 
L 571.119141 105.491719 
L 571.119141 105.491719 
" style="fill: none; stroke: #1f77b4; stroke-width: 2.8; stroke-linecap: round"/>
    </g>
    <g id="text_17">
     <!-- ECFC4 -->
     <g style="fill: #262626" transform="translate(583.119141 110.741719)scale(0.15 -0.15)">
      <defs>
       <path id="ArialMT-45" d="M 506 0 
L 506 4581 
L 3819 4581 
L 3819 4041 
L 1113 4041 
L 1113 2638 
L 3647 2638 
L 3647 2100 
L 1113 2100 
L 1113 541 
L 3925 541 
L 3925 0 
L 506 0 
z
" transform="scale(0.015625)"/>
       <path id="ArialMT-43" d="M 3763 1606 
L 4369 1453 
Q 4178 706 3683 314 
Q 3188 -78 2472 -78 
Q 1731 -78 1267 223 
Q 803 525 561 1097 
Q 319 1669 319 2325 
Q 319 3041 592 3573 
Q 866 4106 1370 4382 
Q 1875 4659 2481 4659 
Q 3169 4659 3637 4309 
Q 4106 3959 4291 3325 
L 3694 3184 
Q 3534 3684 3231 3912 
Q 2928 4141 2469 4141 
Q 1941 4141 1586 3887 
Q 1231 3634 1087 3207 
Q 944 2781 944 2328 
Q 944 1744 1114 1308 
Q 1284 872 1643 656 
Q 2003 441 2422 441 
Q 2931 441 3284 734 
Q 3638 1028 3763 1606 
z
" transform="scale(0.015625)"/>
      </defs>
      <use xlink:href="#ArialMT-45"/>
      <use xlink:href="#ArialMT-43" x="66.699219"/>
      <use xlink:href="#ArialMT-46" x="138.916016"/>
      <use xlink:href="#ArialMT-43" x="200"/>
      <use xlink:href="#ArialMT-34" x="272.216797"/>
     </g>
    </g>
    <g id="line2d_16">
     <path d="M 541.119141 126.709688 
L 556.119141 126.709688 
L 556.119141 126.709688 
L 571.119141 126.709688 
L 571.119141 126.709688 
" style="fill: none; stroke: #ff7f0e; stroke-width: 2.8; stroke-linecap: round"/>
    </g>
    <g id="text_18">
     <!-- ECFP6 -->
     <g style="fill: #262626" transform="translate(583.119141 131.959688)scale(0.15 -0.15)">
      <use xlink:href="#ArialMT-45"/>
      <use xlink:href="#ArialMT-43" x="66.699219"/>
      <use xlink:href="#ArialMT-46" x="138.916016"/>
      <use xlink:href="#ArialMT-50" x="200"/>
      <use xlink:href="#ArialMT-36" x="266.699219"/>
     </g>
    </g>
   </g>
  </g>
 </g>
 <defs>
  <clipPath id="pace1e00d67">
   <rect x="90" y="60.48" width="558" height="380.52"/>
  </clipPath>
 </defs>
</svg>
