<?xml version="1.0" encoding="utf-8" standalone="no"?>
<!DOCTYPE svg PUBLIC "-//W3C//DTD SVG 1.1//EN"
  "http://www.w3.org/Graphics/SVG/1.1/DTD/svg11.dtd">
<svg xmlns:xlink="http://www.w3.org/1999/xlink" width="720pt" height="504pt" viewBox="0 0 720 504" xmlns="http://www.w3.org/2000/svg" version="1.1">
 <metadata>
  <rdf:RDF xmlns:dc="http://purl.org/dc/elements/1.1/" xmlns:cc="http://creativecommons.org/ns#" xmlns:rdf="http://www.w3.org/1999/02/22-rdf-syntax-ns#">
   <cc:Work>
    <dc:type rdf:resource="http://purl.org/dc/dcmitype/StillImage"/>
    <dc:date>2022-04-08T12:19:06.874182</dc:date>
    <dc:format>image/svg+xml</dc:format>
    <dc:creator>
     <cc:Agent>
      <dc:title>Matplotlib v3.5.1, https://matplotlib.org/</dc:title>
     </cc:Agent>
    </dc:creator>
   </cc:Work>
  </rdf:RDF>
 </metadata>
 <defs>
  <style type="text/css">*{stroke-linejoin: round; stroke-linecap: butt}</style>
 </defs>
 <g id="figure_1">
  <g id="patch_1">
   <path d="M 0 504 
L 720 504 
L 720 0 
L 0 0 
z
" style="fill: #ffffff"/>
  </g>
  <g id="axes_1">
   <g id="patch_2">
    <path d="M 90 441 
L 648 441 
L 648 60.48 
L 90 60.48 
z
" style="fill: #ffffff"/>
   </g>
   <g id="matplotlib.axis_1">
    <g id="xtick_1">
     <g id="line2d_1"/>
     <g id="text_1">
      <!-- 0.0 -->
      <g style="fill: #262626" transform="translate(76.1 466.515625)scale(0.2 -0.2)">
       <defs>
        <path id="ArialMT-30" d="M 266 2259 
Q 266 3072 433 3567 
Q 600 4063 929 4331 
Q 1259 4600 1759 4600 
Q 2128 4600 2406 4451 
Q 2684 4303 2865 4023 
Q 3047 3744 3150 3342 
Q 3253 2941 3253 2259 
Q 3253 1453 3087 958 
Q 2922 463 2592 192 
Q 2263 -78 1759 -78 
Q 1097 -78 719 397 
Q 266 969 266 2259 
z
M 844 2259 
Q 844 1131 1108 757 
Q 1372 384 1759 384 
Q 2147 384 2411 759 
Q 2675 1134 2675 2259 
Q 2675 3391 2411 3762 
Q 2147 4134 1753 4134 
Q 1366 4134 1134 3806 
Q 844 3388 844 2259 
z
" transform="scale(0.015625)"/>
        <path id="ArialMT-2e" d="M 581 0 
L 581 641 
L 1222 641 
L 1222 0 
L 581 0 
z
" transform="scale(0.015625)"/>
       </defs>
       <use xlink:href="#ArialMT-30"/>
       <use xlink:href="#ArialMT-2e" x="55.615234"/>
       <use xlink:href="#ArialMT-30" x="83.398438"/>
      </g>
     </g>
    </g>
    <g id="xtick_2">
     <g id="line2d_2"/>
     <g id="text_2">
      <!-- 0.2 -->
      <g style="fill: #262626" transform="translate(187.7 466.515625)scale(0.2 -0.2)">
       <defs>
        <path id="ArialMT-32" d="M 3222 541 
L 3222 0 
L 194 0 
Q 188 203 259 391 
Q 375 700 629 1000 
Q 884 1300 1366 1694 
Q 2113 2306 2375 2664 
Q 2638 3022 2638 3341 
Q 2638 3675 2398 3904 
Q 2159 4134 1775 4134 
Q 1369 4134 1125 3890 
Q 881 3647 878 3216 
L 300 3275 
Q 359 3922 746 4261 
Q 1134 4600 1788 4600 
Q 2447 4600 2831 4234 
Q 3216 3869 3216 3328 
Q 3216 3053 3103 2787 
Q 2991 2522 2730 2228 
Q 2469 1934 1863 1422 
Q 1356 997 1212 845 
Q 1069 694 975 541 
L 3222 541 
z
" transform="scale(0.015625)"/>
       </defs>
       <use xlink:href="#ArialMT-30"/>
       <use xlink:href="#ArialMT-2e" x="55.615234"/>
       <use xlink:href="#ArialMT-32" x="83.398438"/>
      </g>
     </g>
    </g>
    <g id="xtick_3">
     <g id="line2d_3"/>
     <g id="text_3">
      <!-- 0.4 -->
      <g style="fill: #262626" transform="translate(299.3 466.515625)scale(0.2 -0.2)">
       <defs>
        <path id="ArialMT-34" d="M 2069 0 
L 2069 1097 
L 81 1097 
L 81 1613 
L 2172 4581 
L 2631 4581 
L 2631 1613 
L 3250 1613 
L 3250 1097 
L 2631 1097 
L 2631 0 
L 2069 0 
z
M 2069 1613 
L 2069 3678 
L 634 1613 
L 2069 1613 
z
" transform="scale(0.015625)"/>
       </defs>
       <use xlink:href="#ArialMT-30"/>
       <use xlink:href="#ArialMT-2e" x="55.615234"/>
       <use xlink:href="#ArialMT-34" x="83.398438"/>
      </g>
     </g>
    </g>
    <g id="xtick_4">
     <g id="line2d_4"/>
     <g id="text_4">
      <!-- 0.6 -->
      <g style="fill: #262626" transform="translate(410.9 466.515625)scale(0.2 -0.2)">
       <defs>
        <path id="ArialMT-36" d="M 3184 3459 
L 2625 3416 
Q 2550 3747 2413 3897 
Q 2184 4138 1850 4138 
Q 1581 4138 1378 3988 
Q 1113 3794 959 3422 
Q 806 3050 800 2363 
Q 1003 2672 1297 2822 
Q 1591 2972 1913 2972 
Q 2475 2972 2870 2558 
Q 3266 2144 3266 1488 
Q 3266 1056 3080 686 
Q 2894 316 2569 119 
Q 2244 -78 1831 -78 
Q 1128 -78 684 439 
Q 241 956 241 2144 
Q 241 3472 731 4075 
Q 1159 4600 1884 4600 
Q 2425 4600 2770 4297 
Q 3116 3994 3184 3459 
z
M 888 1484 
Q 888 1194 1011 928 
Q 1134 663 1356 523 
Q 1578 384 1822 384 
Q 2178 384 2434 671 
Q 2691 959 2691 1453 
Q 2691 1928 2437 2201 
Q 2184 2475 1800 2475 
Q 1419 2475 1153 2201 
Q 888 1928 888 1484 
z
" transform="scale(0.015625)"/>
       </defs>
       <use xlink:href="#ArialMT-30"/>
       <use xlink:href="#ArialMT-2e" x="55.615234"/>
       <use xlink:href="#ArialMT-36" x="83.398438"/>
      </g>
     </g>
    </g>
    <g id="xtick_5">
     <g id="line2d_5"/>
     <g id="text_5">
      <!-- 0.8 -->
      <g style="fill: #262626" transform="translate(522.5 466.515625)scale(0.2 -0.2)">
       <defs>
        <path id="ArialMT-38" d="M 1131 2484 
Q 781 2613 612 2850 
Q 444 3088 444 3419 
Q 444 3919 803 4259 
Q 1163 4600 1759 4600 
Q 2359 4600 2725 4251 
Q 3091 3903 3091 3403 
Q 3091 3084 2923 2848 
Q 2756 2613 2416 2484 
Q 2838 2347 3058 2040 
Q 3278 1734 3278 1309 
Q 3278 722 2862 322 
Q 2447 -78 1769 -78 
Q 1091 -78 675 323 
Q 259 725 259 1325 
Q 259 1772 486 2073 
Q 713 2375 1131 2484 
z
M 1019 3438 
Q 1019 3113 1228 2906 
Q 1438 2700 1772 2700 
Q 2097 2700 2305 2904 
Q 2513 3109 2513 3406 
Q 2513 3716 2298 3927 
Q 2084 4138 1766 4138 
Q 1444 4138 1231 3931 
Q 1019 3725 1019 3438 
z
M 838 1322 
Q 838 1081 952 856 
Q 1066 631 1291 507 
Q 1516 384 1775 384 
Q 2178 384 2440 643 
Q 2703 903 2703 1303 
Q 2703 1709 2433 1975 
Q 2163 2241 1756 2241 
Q 1359 2241 1098 1978 
Q 838 1716 838 1322 
z
" transform="scale(0.015625)"/>
       </defs>
       <use xlink:href="#ArialMT-30"/>
       <use xlink:href="#ArialMT-2e" x="55.615234"/>
       <use xlink:href="#ArialMT-38" x="83.398438"/>
      </g>
     </g>
    </g>
    <g id="xtick_6">
     <g id="line2d_6"/>
     <g id="text_6">
      <!-- 1.0 -->
      <g style="fill: #262626" transform="translate(634.1 466.515625)scale(0.2 -0.2)">
       <defs>
        <path id="ArialMT-31" d="M 2384 0 
L 1822 0 
L 1822 3584 
Q 1619 3391 1289 3197 
Q 959 3003 697 2906 
L 697 3450 
Q 1169 3672 1522 3987 
Q 1875 4303 2022 4600 
L 2384 4600 
L 2384 0 
z
" transform="scale(0.015625)"/>
       </defs>
       <use xlink:href="#ArialMT-31"/>
       <use xlink:href="#ArialMT-2e" x="55.615234"/>
       <use xlink:href="#ArialMT-30" x="83.398438"/>
      </g>
     </g>
    </g>
    <g id="text_7">
     <!-- FCsp3 -->
     <g style="fill: #262626" transform="translate(332.185547 492.689844)scale(0.25 -0.25)">
      <defs>
       <path id="ArialMT-46" d="M 525 0 
L 525 4581 
L 3616 4581 
L 3616 4041 
L 1131 4041 
L 1131 2622 
L 3281 2622 
L 3281 2081 
L 1131 2081 
L 1131 0 
L 525 0 
z
" transform="scale(0.015625)"/>
       <path id="ArialMT-43" d="M 3763 1606 
L 4369 1453 
Q 4178 706 3683 314 
Q 3188 -78 2472 -78 
Q 1731 -78 1267 223 
Q 803 525 561 1097 
Q 319 1669 319 2325 
Q 319 3041 592 3573 
Q 866 4106 1370 4382 
Q 1875 4659 2481 4659 
Q 3169 4659 3637 4309 
Q 4106 3959 4291 3325 
L 3694 3184 
Q 3534 3684 3231 3912 
Q 2928 4141 2469 4141 
Q 1941 4141 1586 3887 
Q 1231 3634 1087 3207 
Q 944 2781 944 2328 
Q 944 1744 1114 1308 
Q 1284 872 1643 656 
Q 2003 441 2422 441 
Q 2931 441 3284 734 
Q 3638 1028 3763 1606 
z
" transform="scale(0.015625)"/>
       <path id="ArialMT-73" d="M 197 991 
L 753 1078 
Q 800 744 1014 566 
Q 1228 388 1613 388 
Q 2000 388 2187 545 
Q 2375 703 2375 916 
Q 2375 1106 2209 1216 
Q 2094 1291 1634 1406 
Q 1016 1563 777 1677 
Q 538 1791 414 1992 
Q 291 2194 291 2438 
Q 291 2659 392 2848 
Q 494 3038 669 3163 
Q 800 3259 1026 3326 
Q 1253 3394 1513 3394 
Q 1903 3394 2198 3281 
Q 2494 3169 2634 2976 
Q 2775 2784 2828 2463 
L 2278 2388 
Q 2241 2644 2061 2787 
Q 1881 2931 1553 2931 
Q 1166 2931 1000 2803 
Q 834 2675 834 2503 
Q 834 2394 903 2306 
Q 972 2216 1119 2156 
Q 1203 2125 1616 2013 
Q 2213 1853 2448 1751 
Q 2684 1650 2818 1456 
Q 2953 1263 2953 975 
Q 2953 694 2789 445 
Q 2625 197 2315 61 
Q 2006 -75 1616 -75 
Q 969 -75 630 194 
Q 291 463 197 991 
z
" transform="scale(0.015625)"/>
       <path id="ArialMT-70" d="M 422 -1272 
L 422 3319 
L 934 3319 
L 934 2888 
Q 1116 3141 1344 3267 
Q 1572 3394 1897 3394 
Q 2322 3394 2647 3175 
Q 2972 2956 3137 2557 
Q 3303 2159 3303 1684 
Q 3303 1175 3120 767 
Q 2938 359 2589 142 
Q 2241 -75 1856 -75 
Q 1575 -75 1351 44 
Q 1128 163 984 344 
L 984 -1272 
L 422 -1272 
z
M 931 1641 
Q 931 1000 1190 694 
Q 1450 388 1819 388 
Q 2194 388 2461 705 
Q 2728 1022 2728 1688 
Q 2728 2322 2467 2637 
Q 2206 2953 1844 2953 
Q 1484 2953 1207 2617 
Q 931 2281 931 1641 
z
" transform="scale(0.015625)"/>
       <path id="ArialMT-33" d="M 269 1209 
L 831 1284 
Q 928 806 1161 595 
Q 1394 384 1728 384 
Q 2125 384 2398 659 
Q 2672 934 2672 1341 
Q 2672 1728 2419 1979 
Q 2166 2231 1775 2231 
Q 1616 2231 1378 2169 
L 1441 2663 
Q 1497 2656 1531 2656 
Q 1891 2656 2178 2843 
Q 2466 3031 2466 3422 
Q 2466 3731 2256 3934 
Q 2047 4138 1716 4138 
Q 1388 4138 1169 3931 
Q 950 3725 888 3313 
L 325 3413 
Q 428 3978 793 4289 
Q 1159 4600 1703 4600 
Q 2078 4600 2393 4439 
Q 2709 4278 2876 4000 
Q 3044 3722 3044 3409 
Q 3044 3113 2884 2869 
Q 2725 2625 2413 2481 
Q 2819 2388 3044 2092 
Q 3269 1797 3269 1353 
Q 3269 753 2831 336 
Q 2394 -81 1725 -81 
Q 1122 -81 723 278 
Q 325 638 269 1209 
z
" transform="scale(0.015625)"/>
      </defs>
      <use xlink:href="#ArialMT-46"/>
      <use xlink:href="#ArialMT-43" x="61.083984"/>
      <use xlink:href="#ArialMT-73" x="133.300781"/>
      <use xlink:href="#ArialMT-70" x="183.300781"/>
      <use xlink:href="#ArialMT-33" x="238.916016"/>
     </g>
    </g>
   </g>
   <g id="matplotlib.axis_2">
    <g id="ytick_1">
     <g id="line2d_7"/>
     <g id="text_8">
      <!-- 0.0 -->
      <g style="fill: #262626" transform="translate(51 448.157812)scale(0.2 -0.2)">
       <use xlink:href="#ArialMT-30"/>
       <use xlink:href="#ArialMT-2e" x="55.615234"/>
       <use xlink:href="#ArialMT-30" x="83.398438"/>
      </g>
     </g>
    </g>
    <g id="ytick_2">
     <g id="line2d_8"/>
     <g id="text_9">
      <!-- 0.2 -->
      <g style="fill: #262626" transform="translate(51 372.053813)scale(0.2 -0.2)">
       <use xlink:href="#ArialMT-30"/>
       <use xlink:href="#ArialMT-2e" x="55.615234"/>
       <use xlink:href="#ArialMT-32" x="83.398438"/>
      </g>
     </g>
    </g>
    <g id="ytick_3">
     <g id="line2d_9"/>
     <g id="text_10">
      <!-- 0.4 -->
      <g style="fill: #262626" transform="translate(51 295.949813)scale(0.2 -0.2)">
       <use xlink:href="#ArialMT-30"/>
       <use xlink:href="#ArialMT-2e" x="55.615234"/>
       <use xlink:href="#ArialMT-34" x="83.398438"/>
      </g>
     </g>
    </g>
    <g id="ytick_4">
     <g id="line2d_10"/>
     <g id="text_11">
      <!-- 0.6 -->
      <g style="fill: #262626" transform="translate(51 219.845812)scale(0.2 -0.2)">
       <use xlink:href="#ArialMT-30"/>
       <use xlink:href="#ArialMT-2e" x="55.615234"/>
       <use xlink:href="#ArialMT-36" x="83.398438"/>
      </g>
     </g>
    </g>
    <g id="ytick_5">
     <g id="line2d_11"/>
     <g id="text_12">
      <!-- 0.8 -->
      <g style="fill: #262626" transform="translate(51 143.741812)scale(0.2 -0.2)">
       <use xlink:href="#ArialMT-30"/>
       <use xlink:href="#ArialMT-2e" x="55.615234"/>
       <use xlink:href="#ArialMT-38" x="83.398438"/>
      </g>
     </g>
    </g>
    <g id="ytick_6">
     <g id="line2d_12"/>
     <g id="text_13">
      <!-- 1.0 -->
      <g style="fill: #262626" transform="translate(51 67.637812)scale(0.2 -0.2)">
       <use xlink:href="#ArialMT-31"/>
       <use xlink:href="#ArialMT-2e" x="55.615234"/>
       <use xlink:href="#ArialMT-30" x="83.398438"/>
      </g>
     </g>
    </g>
    <g id="text_14">
     <!-- Proportion -->
     <g style="fill: #262626" transform="translate(42.03125 308.407969)rotate(-90)scale(0.25 -0.25)">
      <defs>
       <path id="ArialMT-50" d="M 494 0 
L 494 4581 
L 2222 4581 
Q 2678 4581 2919 4538 
Q 3256 4481 3484 4323 
Q 3713 4166 3852 3881 
Q 3991 3597 3991 3256 
Q 3991 2672 3619 2267 
Q 3247 1863 2275 1863 
L 1100 1863 
L 1100 0 
L 494 0 
z
M 1100 2403 
L 2284 2403 
Q 2872 2403 3119 2622 
Q 3366 2841 3366 3238 
Q 3366 3525 3220 3729 
Q 3075 3934 2838 4000 
Q 2684 4041 2272 4041 
L 1100 4041 
L 1100 2403 
z
" transform="scale(0.015625)"/>
       <path id="ArialMT-72" d="M 416 0 
L 416 3319 
L 922 3319 
L 922 2816 
Q 1116 3169 1280 3281 
Q 1444 3394 1641 3394 
Q 1925 3394 2219 3213 
L 2025 2691 
Q 1819 2813 1613 2813 
Q 1428 2813 1281 2702 
Q 1134 2591 1072 2394 
Q 978 2094 978 1738 
L 978 0 
L 416 0 
z
" transform="scale(0.015625)"/>
       <path id="ArialMT-6f" d="M 213 1659 
Q 213 2581 725 3025 
Q 1153 3394 1769 3394 
Q 2453 3394 2887 2945 
Q 3322 2497 3322 1706 
Q 3322 1066 3130 698 
Q 2938 331 2570 128 
Q 2203 -75 1769 -75 
Q 1072 -75 642 372 
Q 213 819 213 1659 
z
M 791 1659 
Q 791 1022 1069 705 
Q 1347 388 1769 388 
Q 2188 388 2466 706 
Q 2744 1025 2744 1678 
Q 2744 2294 2464 2611 
Q 2184 2928 1769 2928 
Q 1347 2928 1069 2612 
Q 791 2297 791 1659 
z
" transform="scale(0.015625)"/>
       <path id="ArialMT-74" d="M 1650 503 
L 1731 6 
Q 1494 -44 1306 -44 
Q 1000 -44 831 53 
Q 663 150 594 308 
Q 525 466 525 972 
L 525 2881 
L 113 2881 
L 113 3319 
L 525 3319 
L 525 4141 
L 1084 4478 
L 1084 3319 
L 1650 3319 
L 1650 2881 
L 1084 2881 
L 1084 941 
Q 1084 700 1114 631 
Q 1144 563 1211 522 
Q 1278 481 1403 481 
Q 1497 481 1650 503 
z
" transform="scale(0.015625)"/>
       <path id="ArialMT-69" d="M 425 3934 
L 425 4581 
L 988 4581 
L 988 3934 
L 425 3934 
z
M 425 0 
L 425 3319 
L 988 3319 
L 988 0 
L 425 0 
z
" transform="scale(0.015625)"/>
       <path id="ArialMT-6e" d="M 422 0 
L 422 3319 
L 928 3319 
L 928 2847 
Q 1294 3394 1984 3394 
Q 2284 3394 2536 3286 
Q 2788 3178 2913 3003 
Q 3038 2828 3088 2588 
Q 3119 2431 3119 2041 
L 3119 0 
L 2556 0 
L 2556 2019 
Q 2556 2363 2490 2533 
Q 2425 2703 2258 2804 
Q 2091 2906 1866 2906 
Q 1506 2906 1245 2678 
Q 984 2450 984 1813 
L 984 0 
L 422 0 
z
" transform="scale(0.015625)"/>
      </defs>
      <use xlink:href="#ArialMT-50"/>
      <use xlink:href="#ArialMT-72" x="66.699219"/>
      <use xlink:href="#ArialMT-6f" x="100"/>
      <use xlink:href="#ArialMT-70" x="155.615234"/>
      <use xlink:href="#ArialMT-6f" x="211.230469"/>
      <use xlink:href="#ArialMT-72" x="266.845703"/>
      <use xlink:href="#ArialMT-74" x="300.146484"/>
      <use xlink:href="#ArialMT-69" x="327.929688"/>
      <use xlink:href="#ArialMT-6f" x="350.146484"/>
      <use xlink:href="#ArialMT-6e" x="405.761719"/>
     </g>
    </g>
   </g>
   <g id="line2d_13">
    <path d="M 90 441 
L 90 429.880909 
L 110.088 429.880909 
L 110.088 428.645455 
L 113.994 428.645455 
L 113.994 427.41 
L 116.784 427.41 
L 116.784 423.703636 
L 117.9 423.703636 
L 117.9 423.085909 
L 119.574 423.085909 
L 119.574 422.468182 
L 131.292 422.468182 
L 131.292 421.850455 
L 132.966 421.850455 
L 132.966 421.232727 
L 134.64 421.232727 
L 134.64 418.761818 
L 136.314 418.761818 
L 136.314 418.144091 
L 138.546 418.144091 
L 138.546 416.290909 
L 140.778 416.290909 
L 140.778 413.202273 
L 143.01 413.202273 
L 143.01 411.966818 
L 145.8 411.966818 
L 145.8 408.260455 
L 154.17 408.260455 
L 154.17 407.642727 
L 156.96 407.642727 
L 156.96 405.789545 
L 159.75 405.789545 
L 159.75 397.141364 
L 161.982 397.141364 
L 161.982 394.052727 
L 162.54 394.052727 
L 162.54 393.435 
L 165.888 393.435 
L 165.888 392.199545 
L 167.004 392.199545 
L 167.004 391.581818 
L 169.794 391.581818 
L 169.794 389.110909 
L 172.584 389.110909 
L 172.584 387.875455 
L 175.932 387.875455 
L 175.932 386.64 
L 179.28 386.64 
L 179.28 379.227273 
L 183.186 379.227273 
L 183.186 377.991818 
L 185.976 377.991818 
L 185.976 376.138636 
L 187.092 376.138636 
L 187.092 373.667727 
L 188.208 373.667727 
L 188.208 369.343636 
L 189.882 369.343636 
L 189.882 368.108182 
L 191.556 368.108182 
L 191.556 367.490455 
L 193.23 367.490455 
L 193.23 365.019545 
L 197.136 365.019545 
L 197.136 353.900455 
L 198.252 353.900455 
L 198.252 352.047273 
L 201.6 352.047273 
L 201.6 331.044545 
L 205.506 331.044545 
L 205.506 327.955909 
L 206.064 327.955909 
L 206.064 323.631818 
L 208.296 323.631818 
L 208.296 322.396364 
L 209.412 322.396364 
L 209.412 319.925455 
L 211.086 319.925455 
L 211.086 317.454545 
L 212.202 317.454545 
L 212.202 315.601364 
L 213.876 315.601364 
L 213.876 310.041818 
L 216.108 310.041818 
L 216.108 309.424091 
L 218.898 309.424091 
L 218.898 301.393636 
L 220.014 301.393636 
L 220.014 300.775909 
L 221.13 300.775909 
L 221.13 300.158182 
L 223.92 300.158182 
L 223.92 298.922727 
L 224.478 298.922727 
L 224.478 297.687273 
L 229.5 297.687273 
L 229.5 287.803636 
L 234.522 287.803636 
L 234.522 285.332727 
L 235.638 285.332727 
L 235.638 282.861818 
L 236.754 282.861818 
L 236.754 282.244091 
L 237.87 282.244091 
L 237.87 279.773182 
L 238.986 279.773182 
L 238.986 278.537727 
L 240.102 278.537727 
L 240.102 276.066818 
L 242.334 276.066818 
L 242.334 274.213636 
L 243.45 274.213636 
L 243.45 273.595909 
L 244.008 273.595909 
L 244.008 270.507273 
L 245.124 270.507273 
L 245.124 269.889545 
L 246.24 269.889545 
L 246.24 262.476818 
L 246.798 262.476818 
L 246.798 261.859091 
L 249.588 261.859091 
L 249.588 258.152727 
L 252.936 258.152727 
L 252.936 256.299545 
L 255.168 256.299545 
L 255.168 251.357727 
L 257.4 251.357727 
L 257.4 246.415909 
L 259.632 246.415909 
L 259.632 245.180455 
L 261.864 245.180455 
L 261.864 240.856364 
L 262.98 240.856364 
L 262.98 239.620909 
L 266.328 239.620909 
L 266.328 238.385455 
L 267.444 238.385455 
L 267.444 232.208182 
L 268.56 232.208182 
L 268.56 226.030909 
L 269.118 226.030909 
L 269.118 222.942273 
L 275.814 222.942273 
L 275.814 202.557273 
L 281.952 202.557273 
L 281.952 200.704091 
L 282.51 200.704091 
L 282.51 199.468636 
L 283.068 199.468636 
L 283.068 195.762273 
L 284.184 195.762273 
L 284.184 188.349545 
L 289.206 188.349545 
L 289.206 187.731818 
L 290.88 187.731818 
L 290.88 184.643182 
L 293.112 184.643182 
L 293.112 177.848182 
L 296.46 177.848182 
L 296.46 177.230455 
L 299.25 177.230455 
L 299.25 166.111364 
L 302.598 166.111364 
L 302.598 164.258182 
L 304.83 164.258182 
L 304.83 163.640455 
L 308.178 163.640455 
L 308.178 154.992273 
L 309.294 154.992273 
L 309.294 154.374545 
L 313.2 154.374545 
L 313.2 145.726364 
L 317.106 145.726364 
L 317.106 140.166818 
L 318.222 140.166818 
L 318.222 137.695909 
L 321.012 137.695909 
L 321.012 137.078182 
L 322.686 137.078182 
L 322.686 130.900909 
L 326.034 130.900909 
L 326.034 124.105909 
L 329.382 124.105909 
L 329.382 123.488182 
L 332.73 123.488182 
L 332.73 121.017273 
L 335.52 121.017273 
L 335.52 112.369091 
L 337.752 112.369091 
L 337.752 103.720909 
L 339.984 103.720909 
L 339.984 102.485455 
L 341.1 102.485455 
L 341.1 101.25 
L 342.216 101.25 
L 342.216 100.632273 
L 345.564 100.632273 
L 345.564 95.690455 
L 347.796 95.690455 
L 347.796 91.366364 
L 348.912 91.366364 
L 348.912 88.277727 
L 350.586 88.277727 
L 350.586 87.66 
L 357.84 87.66 
L 357.84 86.424545 
L 358.398 86.424545 
L 358.398 84.571364 
L 359.514 84.571364 
L 359.514 82.100455 
L 369 82.100455 
L 369 77.158636 
L 379.602 77.158636 
L 379.602 76.540909 
L 380.16 76.540909 
L 380.16 75.923182 
L 385.182 75.923182 
L 385.182 74.687727 
L 390.204 74.687727 
L 390.204 72.216818 
L 392.436 72.216818 
L 392.436 70.981364 
L 395.784 70.981364 
L 395.784 70.363636 
L 402.48 70.363636 
L 402.48 66.657273 
L 408.618 66.657273 
L 408.618 65.421818 
L 411.966 65.421818 
L 411.966 64.186364 
L 415.314 64.186364 
L 415.314 62.333182 
L 480.6 62.333182 
L 480.6 61.715455 
L 565.416 61.715455 
L 565.416 61.097727 
L 609.498 61.097727 
L 609.498 60.48 
L 609.498 60.48 
" clip-path="url(#p4e23768560)" style="fill: none; stroke: #d62728; stroke-width: 2.8; stroke-linecap: round"/>
   </g>
   <g id="line2d_14">
    <path d="M 90 441 
L 90 431.645068 
L 107.856 431.595086 
L 107.856 431.536774 
L 107.856 431.520113 
L 113.436 431.453471 
L 113.436 431.411819 
L 113.436 431.386828 
L 115.11 431.370167 
L 115.11 431.278534 
L 115.11 431.203561 
L 117.9 431.17857 
L 117.9 431.095267 
L 117.9 431.045286 
L 119.574 431.036955 
L 119.574 430.936992 
L 119.574 430.570458 
L 121.248 430.570458 
L 121.248 430.462164 
L 121.248 430.212255 
L 122.922 430.203925 
L 122.922 430.103961 
L 122.922 429.679116 
L 124.596 429.670785 
L 124.596 429.570822 
L 124.596 426.763509 
L 127.386 426.755179 
L 127.386 426.655215 
L 127.386 425.447321 
L 129.618 425.42233 
L 129.618 425.339027 
L 129.618 424.189445 
L 132.966 424.131132 
L 132.966 424.081151 
L 132.966 423.573002 
L 134.64 423.564672 
L 134.64 423.464708 
L 134.64 423.423057 
L 136.314 423.423057 
L 136.314 423.314763 
L 136.314 422.814944 
L 138.546 422.764962 
L 138.546 422.70665 
L 138.546 422.640008 
L 140.778 422.640008 
L 140.778 422.531714 
L 140.778 422.14019 
L 143.01 422.131859 
L 143.01 422.031896 
L 143.01 421.948593 
L 145.8 421.923602 
L 145.8 421.840299 
L 145.8 420.807341 
L 148.59 420.732368 
L 148.59 420.699047 
L 148.59 420.23255 
L 149.706 420.23255 
L 149.706 420.124256 
L 149.706 420.107595 
L 151.938 420.107595 
L 151.938 419.999301 
L 151.938 418.958013 
L 155.844 418.916362 
L 155.844 418.849719 
L 155.844 416.767143 
L 157.518 416.667179 
L 157.518 416.658849 
L 157.518 416.625528 
L 159.75 416.617197 
L 159.75 416.517234 
L 159.75 414.734548 
L 162.54 414.684567 
L 162.54 414.626255 
L 162.54 414.609594 
L 164.214 414.609594 
L 164.214 414.5013 
L 164.214 412.085512 
L 165.888 412.068851 
L 165.888 411.977218 
L 165.888 411.752299 
L 167.562 411.644005 
L 167.562 411.627345 
L 169.794 411.577363 
L 169.794 411.519051 
L 169.794 409.236547 
L 171.468 409.236547 
L 171.468 409.128253 
L 171.468 408.928326 
L 172.584 408.895005 
L 172.584 408.820032 
L 172.584 408.76172 
L 173.7 408.76172 
L 173.7 408.653426 
L 173.7 407.312247 
L 175.932 407.270595 
L 175.932 407.203953 
L 175.932 406.329271 
L 178.164 406.287619 
L 178.164 406.220977 
L 178.164 405.354625 
L 179.28 405.354625 
L 179.28 405.246331 
L 179.28 405.029743 
L 179.838 405.029743 
L 179.838 404.921449 
L 179.838 404.838146 
L 183.186 404.779834 
L 183.186 404.729852 
L 183.186 401.755933 
L 185.418 401.755933 
L 185.418 401.647639 
L 185.418 401.639309 
L 185.976 401.639309 
L 185.976 401.531015 
L 185.976 401.456042 
L 187.092 401.456042 
L 187.092 401.347748 
L 187.092 401.164482 
L 188.208 401.089509 
L 188.208 401.056188 
L 188.208 399.456769 
L 189.882 399.390127 
L 189.882 399.348475 
L 189.882 399.21519 
L 191.556 399.21519 
L 191.556 399.106896 
L 191.556 398.140581 
L 193.23 398.132251 
L 193.23 398.032287 
L 193.23 398.007296 
L 194.904 397.973975 
L 194.904 397.899002 
L 194.904 396.058005 
L 196.02 396.033014 
L 196.02 395.949711 
L 196.02 394.83345 
L 197.136 394.83345 
L 197.136 394.725156 
L 197.136 394.608532 
L 199.926 394.508568 
L 199.926 394.500238 
L 199.926 394.491907 
L 201.6 394.491907 
L 201.6 394.383613 
L 201.6 390.868225 
L 204.948 390.834904 
L 204.948 390.759931 
L 204.948 390.74327 
L 206.064 390.659967 
L 206.064 390.634976 
L 206.064 390.2018 
L 207.738 390.2018 
L 207.738 390.093506 
L 207.738 388.302491 
L 208.296 388.302491 
L 208.296 388.194197 
L 208.296 388.144215 
L 209.412 388.144215 
L 209.412 388.035921 
L 209.412 387.18623 
L 211.086 387.169569 
L 211.086 387.077936 
L 211.086 386.944651 
L 212.76 386.861348 
L 212.76 386.836357 
L 212.76 386.828027 
L 213.876 386.828027 
L 213.876 386.719733 
L 213.876 384.470551 
L 216.108 384.46222 
L 216.108 384.362257 
L 216.108 384.337266 
L 216.666 384.337266 
L 216.666 384.228972 
L 216.666 383.870769 
L 217.782 383.870769 
L 217.782 383.762475 
L 217.782 383.754144 
L 218.898 383.754144 
L 218.898 383.64585 
L 218.898 382.996087 
L 220.014 382.996087 
L 220.014 382.887793 
L 220.014 382.82115 
L 221.13 382.82115 
L 221.13 382.712856 
L 221.13 381.579935 
L 222.804 381.554944 
L 222.804 381.471641 
L 222.804 380.938501 
L 223.92 380.921841 
L 223.92 380.830207 
L 223.92 379.80558 
L 224.478 379.80558 
L 224.478 379.697286 
L 224.478 379.53068 
L 225.594 379.447377 
L 225.594 379.422386 
L 225.594 379.414055 
L 229.5 379.314092 
L 229.5 379.305762 
L 229.5 373.749448 
L 234.522 373.657815 
L 234.522 373.641154 
L 234.522 373.399575 
L 235.638 373.399575 
L 235.638 373.291281 
L 235.638 372.624857 
L 236.754 372.608196 
L 236.754 372.516563 
L 236.754 371.658542 
L 238.986 371.583569 
L 238.986 371.550248 
L 238.986 370.425656 
L 240.102 370.400666 
L 240.102 370.317362 
L 240.102 369.750902 
L 242.334 369.725911 
L 242.334 369.642608 
L 242.334 368.35141 
L 244.008 368.301429 
L 244.008 368.243117 
L 244.008 368.184804 
L 245.124 368.184804 
L 245.124 368.07651 
L 245.124 366.851956 
L 246.24 366.826965 
L 246.24 366.743662 
L 246.24 366.327146 
L 249.588 366.235513 
L 249.588 366.218852 
L 249.588 363.394879 
L 251.82 363.353228 
L 251.82 363.286585 
L 251.82 363.13664 
L 252.936 363.13664 
L 252.936 363.028346 
L 252.936 362.61183 
L 254.052 362.61183 
L 254.052 362.503536 
L 254.052 361.320633 
L 255.168 361.295642 
L 255.168 361.212339 
L 255.168 360.979091 
L 257.4 360.929109 
L 257.4 360.870797 
L 257.4 358.280072 
L 259.632 358.22176 
L 259.632 358.171778 
L 259.632 357.721941 
L 261.864 357.67196 
L 261.864 357.613647 
L 261.864 356.32245 
L 262.98 356.32245 
L 262.98 356.214156 
L 262.98 356.03922 
L 264.096 356.022559 
L 264.096 355.930926 
L 264.096 355.022923 
L 265.212 355.022923 
L 265.212 354.914629 
L 265.212 354.889638 
L 266.328 354.889638 
L 266.328 354.781344 
L 266.328 353.498477 
L 267.444 353.498477 
L 267.444 353.390183 
L 267.444 352.790401 
L 268.56 352.77374 
L 268.56 352.682107 
L 268.56 351.365919 
L 269.118 351.365919 
L 269.118 351.257625 
L 269.118 350.932743 
L 270.234 350.924413 
L 270.234 350.824449 
L 270.234 350.749476 
L 270.792 350.749476 
L 270.792 350.641182 
L 270.792 350.566209 
L 275.814 350.532888 
L 275.814 350.457915 
L 275.814 344.126884 
L 281.394 344.02692 
L 281.394 344.01859 
L 281.394 343.943617 
L 281.952 343.943617 
L 281.952 343.835323 
L 281.952 343.826993 
L 282.51 343.826993 
L 282.51 343.718699 
L 282.51 343.452129 
L 283.068 343.452129 
L 283.068 343.343835 
L 283.068 342.635759 
L 284.184 342.635759 
L 284.184 342.527465 
L 284.184 341.494507 
L 285.3 341.461186 
L 285.3 341.386213 
L 285.3 339.753474 
L 285.858 339.753474 
L 285.858 339.64518 
L 285.858 339.38694 
L 286.974 339.38694 
L 286.974 339.278646 
L 286.974 338.578901 
L 288.09 338.57057 
L 288.09 338.470607 
L 288.09 338.387304 
L 289.206 338.370643 
L 289.206 338.27901 
L 289.206 337.321025 
L 290.88 337.271043 
L 290.88 337.212731 
L 290.88 336.546306 
L 291.996 336.446343 
L 291.996 336.438012 
L 291.996 336.421352 
L 293.112 336.421352 
L 293.112 336.313058 
L 293.112 334.705309 
L 294.786 334.597015 
L 294.786 334.130518 
L 295.344 334.130518 
L 295.344 334.022224 
L 295.344 332.456126 
L 296.46 332.456126 
L 296.46 332.347832 
L 296.46 331.873005 
L 297.018 331.873005 
L 297.018 331.764711 
L 297.018 331.73139 
L 299.25 331.72306 
L 299.25 331.623096 
L 299.25 329.573841 
L 301.482 329.523859 
L 301.482 329.465547 
L 301.482 329.357253 
L 302.598 329.348923 
L 302.598 329.248959 
L 302.598 328.107707 
L 303.156 328.107707 
L 303.156 327.999413 
L 303.156 327.991083 
L 304.83 327.974422 
L 304.83 327.882789 
L 304.83 326.841501 
L 305.946 326.833171 
L 305.946 326.733207 
L 305.946 326.716546 
L 307.062 326.708216 
L 307.062 326.608252 
L 307.062 325.808543 
L 308.178 325.766892 
L 308.178 325.700249 
L 308.178 324.925531 
L 309.294 324.925531 
L 309.294 324.817237 
L 309.294 324.600649 
L 309.852 324.600649 
L 309.852 324.492355 
L 309.852 324.442373 
L 313.2 324.334079 
L 313.2 319.302575 
L 316.548 319.194281 
L 316.548 318.919381 
L 317.106 318.919381 
L 317.106 318.811087 
L 317.106 318.544517 
L 318.222 318.544517 
L 318.222 318.436223 
L 318.222 317.25332 
L 319.896 317.195008 
L 319.896 317.145026 
L 319.896 316.253683 
L 321.012 316.245353 
L 321.012 316.145389 
L 321.012 316.012104 
L 322.686 315.903811 
L 322.686 314.52931 
L 323.802 314.52098 
L 323.802 314.421016 
L 323.802 314.287731 
L 324.918 314.26274 
L 324.918 314.179437 
L 324.918 313.304755 
L 326.034 313.279764 
L 326.034 313.196461 
L 326.034 312.721634 
L 326.592 312.721634 
L 326.592 312.61334 
L 326.592 312.563358 
L 327.708 312.480055 
L 327.708 312.455064 
L 327.708 312.405082 
L 329.382 312.405082 
L 329.382 312.296788 
L 329.382 309.481145 
L 331.056 309.431164 
L 331.056 309.372851 
L 331.056 309.347861 
L 331.614 309.347861 
L 331.614 309.239567 
L 331.614 309.106282 
L 332.73 309.106282 
L 332.73 308.997988 
L 332.73 308.23993 
L 334.404 308.173288 
L 334.404 308.131636 
L 334.404 307.240293 
L 335.52 307.223633 
L 335.52 307.131999 
L 335.52 306.815448 
L 336.078 306.815448 
L 336.078 306.707154 
L 336.078 306.582199 
L 337.752 306.532217 
L 337.752 306.473905 
L 337.752 304.707881 
L 339.426 304.68289 
L 339.426 304.599587 
L 339.426 304.482962 
L 339.984 304.482962 
L 339.984 304.374668 
L 339.984 304.066447 
L 341.1 304.041456 
L 341.1 303.958153 
L 341.1 302.891874 
L 342.216 302.833562 
L 342.216 302.78358 
L 342.216 302.533671 
L 343.89 302.483689 
L 343.89 302.425377 
L 343.89 299.842983 
L 345.006 299.842983 
L 345.006 299.734689 
L 345.006 299.659716 
L 345.564 299.659716 
L 345.564 299.551422 
L 345.564 298.868337 
L 346.122 298.868337 
L 346.122 298.760043 
L 346.122 298.743382 
L 347.796 298.701731 
L 347.796 298.635088 
L 347.796 297.57714 
L 348.912 297.485506 
L 348.912 297.468846 
L 348.912 297.027339 
L 350.586 296.977358 
L 350.586 296.919046 
L 350.586 295.3946 
L 351.702 295.369609 
L 351.702 295.286306 
L 351.702 295.169681 
L 352.818 295.161351 
L 352.818 295.061388 
L 352.818 294.453275 
L 353.376 294.453275 
L 353.376 294.344981 
L 353.376 294.31166 
L 354.492 294.30333 
L 354.492 294.203366 
L 354.492 293.262042 
L 355.05 293.262042 
L 355.05 293.153748 
L 355.05 293.062114 
L 355.608 293.062114 
L 355.608 292.95382 
L 355.608 292.037487 
L 356.724 292.012496 
L 356.724 291.929193 
L 356.724 291.104493 
L 357.84 291.02119 
L 357.84 290.996199 
L 357.84 290.354765 
L 358.398 290.354765 
L 358.398 290.246471 
L 358.398 289.754983 
L 359.514 289.754983 
L 359.514 289.646689 
L 359.514 289.413441 
L 360.072 289.413441 
L 360.072 289.305147 
L 360.072 288.905292 
L 360.63 288.905292 
L 360.63 288.796998 
L 360.63 288.488777 
L 361.188 288.488777 
L 361.188 288.380483 
L 361.188 288.03061 
L 362.304 287.947307 
L 362.304 287.922316 
L 362.304 287.872334 
L 363.978 287.76404 
L 363.978 287.655746 
L 369 287.614095 
L 369 287.547452 
L 369 278.250832 
L 374.58 278.142538 
L 374.58 278.109217 
L 375.696 278.050905 
L 375.696 278.000923 
L 375.696 277.817656 
L 376.812 277.751014 
L 376.812 277.709362 
L 376.812 277.084589 
L 377.37 277.084589 
L 377.37 276.976295 
L 377.37 276.634753 
L 377.928 276.634753 
L 377.928 276.526459 
L 377.928 276.27655 
L 378.486 276.27655 
L 378.486 276.168256 
L 378.486 275.593465 
L 379.602 275.576804 
L 379.602 275.485171 
L 379.602 274.90205 
L 380.16 274.90205 
L 380.16 274.793756 
L 380.16 274.243955 
L 381.276 274.193974 
L 381.276 274.135661 
L 381.276 273.510889 
L 382.392 273.402595 
L 382.392 272.278003 
L 382.95 272.278003 
L 382.95 272.169709 
L 382.95 272.069746 
L 383.508 272.069746 
L 383.508 271.961452 
L 383.508 271.161743 
L 384.624 271.136752 
L 384.624 271.053449 
L 384.624 270.736897 
L 385.182 270.736897 
L 385.182 270.628603 
L 385.182 269.795573 
L 386.298 269.795573 
L 386.298 269.687279 
L 386.298 269.537333 
L 387.414 269.4457 
L 387.414 269.429039 
L 387.414 267.063233 
L 389.088 266.963269 
L 389.088 266.954939 
L 389.088 266.621726 
L 389.646 266.621726 
L 389.646 266.513432 
L 389.646 266.380148 
L 390.204 266.380148 
L 390.204 266.271854 
L 390.204 265.147262 
L 391.878 265.097281 
L 391.878 265.038968 
L 391.878 264.847371 
L 392.436 264.847371 
L 392.436 264.739077 
L 392.436 264.097644 
L 392.994 264.097644 
L 392.994 263.98935 
L 392.994 263.764432 
L 394.11 263.747771 
L 394.11 263.656138 
L 394.11 262.006737 
L 395.784 261.998407 
L 395.784 261.898443 
L 395.784 261.53191 
L 396.9 261.473598 
L 396.9 261.423616 
L 396.9 259.757555 
L 398.016 259.682582 
L 398.016 259.649261 
L 398.016 259.34104 
L 398.574 259.34104 
L 398.574 259.232746 
L 398.574 258.824561 
L 400.248 258.824561 
L 400.248 258.716267 
L 400.248 256.850279 
L 401.364 256.850279 
L 401.364 256.741985 
L 401.364 256.61703 
L 401.922 256.61703 
L 401.922 256.508736 
L 401.922 256.417103 
L 402.48 256.417103 
L 402.48 256.308809 
L 402.48 255.759009 
L 403.038 255.759009 
L 403.038 255.650715 
L 403.038 255.584072 
L 403.596 255.584072 
L 403.596 255.475778 
L 403.596 254.442821 
L 404.712 254.442821 
L 404.712 254.334527 
L 404.712 254.284545 
L 405.27 254.284545 
L 405.27 254.176251 
L 405.27 253.501496 
L 406.386 253.468175 
L 406.386 253.393202 
L 406.386 253.118302 
L 406.944 253.118302 
L 406.944 253.010008 
L 406.944 252.593493 
L 408.618 252.551841 
L 408.618 252.485199 
L 408.618 249.686216 
L 410.85 249.594583 
L 410.85 249.577922 
L 410.85 249.486289 
L 411.408 249.486289 
L 411.408 249.377995 
L 411.408 249.344674 
L 411.966 249.344674 
L 411.966 249.23638 
L 411.966 248.761553 
L 412.524 248.761553 
L 412.524 248.653259 
L 412.524 248.603277 
L 413.082 248.603277 
L 413.082 248.494983 
L 413.082 247.545328 
L 414.198 247.470355 
L 414.198 247.437034 
L 414.198 247.003858 
L 415.314 247.003858 
L 415.314 246.895564 
L 415.314 245.9709 
L 416.43 245.9709 
L 416.43 245.862606 
L 416.43 245.754312 
L 416.988 245.754312 
L 416.988 245.646019 
L 416.988 245.221173 
L 417.546 245.221173 
L 417.546 245.112879 
L 417.546 245.004585 
L 418.104 245.004585 
L 418.104 244.896291 
L 418.104 244.104912 
L 419.22 244.088251 
L 419.22 243.996618 
L 419.22 243.938306 
L 419.778 243.938306 
L 419.778 243.830012 
L 419.778 242.705421 
L 420.894 242.647109 
L 420.894 242.597127 
L 420.894 241.972354 
L 421.452 241.972354 
L 421.452 241.86406 
L 421.452 241.664133 
L 422.01 241.664133 
L 422.01 241.555839 
L 422.01 241.389233 
L 423.126 241.297599 
L 423.126 241.280939 
L 423.126 241.255948 
L 424.8 241.247618 
L 424.8 241.147654 
L 424.8 235.624662 
L 427.59 235.57468 
L 427.59 235.516368 
L 427.59 235.249798 
L 428.148 235.249798 
L 428.148 235.141504 
L 428.148 234.949907 
L 428.706 234.949907 
L 428.706 234.841613 
L 428.706 234.358455 
L 429.822 234.308473 
L 429.822 234.250161 
L 429.822 233.40047 
L 430.938 233.292176 
L 430.938 232.500797 
L 432.054 232.500797 
L 432.054 232.392503 
L 432.054 232.059291 
L 432.612 232.059291 
L 432.612 231.950997 
L 432.612 231.909346 
L 433.17 231.909346 
L 433.17 231.801052 
L 433.17 231.009673 
L 434.844 230.984682 
L 434.844 230.901379 
L 434.844 230.618148 
L 435.402 230.618148 
L 435.402 230.509854 
L 435.402 229.476897 
L 436.518 229.460236 
L 436.518 229.368603 
L 436.518 229.077042 
L 437.076 229.077042 
L 437.076 228.968748 
L 437.076 228.793812 
L 438.75 228.76049 
L 438.75 228.685518 
L 438.75 226.944484 
L 440.424 226.869511 
L 440.424 226.83619 
L 440.424 226.761217 
L 440.982 226.761217 
L 440.982 226.652923 
L 440.982 226.319711 
L 441.54 226.319711 
L 441.54 226.211417 
L 441.54 225.703268 
L 442.656 225.694938 
L 442.656 225.594974 
L 442.656 224.64532 
L 443.214 224.64532 
L 443.214 224.537026 
L 443.214 224.012217 
L 444.888 223.903923 
L 444.888 222.079586 
L 446.562 222.004613 
L 446.562 221.971292 
L 446.562 221.64641 
L 447.12 221.64641 
L 447.12 221.538116 
L 447.12 220.988316 
L 447.678 220.988316 
L 447.678 220.880022 
L 447.678 220.763398 
L 448.794 220.738407 
L 448.794 220.655104 
L 448.794 219.363906 
L 449.352 219.363906 
L 449.352 219.255612 
L 449.352 219.213961 
L 449.91 219.213961 
L 449.91 219.105667 
L 449.91 218.972382 
L 451.026 218.930731 
L 451.026 218.864088 
L 451.026 217.922764 
L 452.142 217.922764 
L 452.142 217.81447 
L 452.142 217.597882 
L 452.7 217.597882 
L 452.7 217.489588 
L 452.7 214.53233 
L 453.816 214.449026 
L 453.816 214.424036 
L 453.816 213.524363 
L 454.932 213.482711 
L 454.932 213.416069 
L 454.932 212.558047 
L 455.49 212.558047 
L 455.49 212.449753 
L 455.49 211.916614 
L 456.048 211.916614 
L 456.048 211.80832 
L 456.048 211.450117 
L 456.606 211.450117 
L 456.606 211.341823 
L 456.606 211.075253 
L 457.164 211.075253 
L 457.164 210.966959 
L 457.164 210.742041 
L 457.722 210.742041 
L 457.722 210.633747 
L 457.722 210.200571 
L 458.28 210.200571 
L 458.28 210.092277 
L 458.28 210.075616 
L 462.186 210.042295 
L 462.186 209.967322 
L 462.186 201.97023 
L 465.534 201.911918 
L 465.534 201.861936 
L 465.534 201.828614 
L 466.092 201.828614 
L 466.092 201.72032 
L 466.092 201.678669 
L 466.65 201.678669 
L 466.65 201.570375 
L 466.65 201.462081 
L 467.208 201.462081 
L 467.208 201.353787 
L 467.208 200.945602 
L 467.766 200.945602 
L 467.766 200.837308 
L 467.766 200.487435 
L 468.882 200.429123 
L 468.882 200.379141 
L 468.882 199.537781 
L 469.44 199.537781 
L 469.44 199.429487 
L 469.44 198.688089 
L 470.556 198.579796 
L 470.556 197.455204 
L 471.114 197.455204 
L 471.114 197.34691 
L 471.114 197.313589 
L 471.672 197.313589 
L 471.672 197.205295 
L 471.672 196.347274 
L 472.788 196.305622 
L 472.788 196.23898 
L 472.788 195.96408 
L 473.904 195.955749 
L 473.904 195.855786 
L 473.904 194.764516 
L 474.462 194.764516 
L 474.462 194.656222 
L 474.462 194.647892 
L 475.02 194.647892 
L 475.02 194.539598 
L 475.02 193.889834 
L 476.136 193.823191 
L 476.136 193.78154 
L 476.136 192.232103 
L 477.252 192.223773 
L 477.252 192.123809 
L 477.252 191.890561 
L 478.368 191.8739 
L 478.368 191.782267 
L 478.368 191.090851 
L 478.926 191.090851 
L 478.926 190.982557 
L 478.926 190.832612 
L 479.484 190.832612 
L 479.484 190.724318 
L 479.484 190.715988 
L 480.6 190.699327 
L 480.6 190.607694 
L 480.6 185.976044 
L 481.716 185.942723 
L 481.716 185.86775 
L 481.716 185.826099 
L 482.274 185.826099 
L 482.274 185.717805 
L 482.274 185.58452 
L 482.832 185.58452 
L 482.832 185.476226 
L 482.832 185.093032 
L 483.948 185.018059 
L 483.948 184.984738 
L 483.948 184.268332 
L 484.506 184.268332 
L 484.506 184.160038 
L 484.506 184.060074 
L 485.064 184.060074 
L 485.064 183.95178 
L 485.064 183.243704 
L 486.18 183.227043 
L 486.18 183.13541 
L 486.18 182.768877 
L 486.738 182.768877 
L 486.738 182.660583 
L 486.738 182.510637 
L 488.412 182.427334 
L 488.412 182.402343 
L 488.412 179.811618 
L 490.644 179.744976 
L 490.644 179.703325 
L 490.644 179.403434 
L 491.202 179.403434 
L 491.202 179.29514 
L 491.202 178.920276 
L 491.76 178.920276 
L 491.76 178.811982 
L 491.76 178.070585 
L 492.876 178.028933 
L 492.876 177.962291 
L 492.876 177.279206 
L 493.992 177.229224 
L 493.992 177.170912 
L 493.992 176.654433 
L 494.55 176.654433 
L 494.55 176.546139 
L 494.55 176.412854 
L 495.666 176.396193 
L 495.666 176.30456 
L 495.666 174.546866 
L 497.34 174.480223 
L 497.34 174.438572 
L 497.34 174.088699 
L 497.898 174.088699 
L 497.898 173.980405 
L 497.898 173.255668 
L 499.014 173.205687 
L 499.014 173.147375 
L 499.014 170.373383 
L 500.13 170.373383 
L 500.13 170.265089 
L 500.13 169.990189 
L 501.246 169.981859 
L 501.246 169.881895 
L 501.246 169.098846 
L 502.362 169.057195 
L 502.362 168.990552 
L 502.362 168.307467 
L 503.478 168.307467 
L 503.478 168.199173 
L 503.478 167.649373 
L 504.036 167.649373 
L 504.036 167.541079 
L 504.036 167.224528 
L 504.594 167.224528 
L 504.594 167.116234 
L 504.594 167.049591 
L 505.152 167.049591 
L 505.152 166.941297 
L 505.152 166.857994 
L 506.268 166.766361 
L 506.268 166.7497 
L 506.268 166.73304 
L 508.5 166.716379 
L 508.5 166.624746 
L 508.5 160.610266 
L 511.848 160.543623 
L 511.848 160.501972 
L 511.848 160.277053 
L 512.406 160.277053 
L 512.406 160.168759 
L 512.406 159.935511 
L 512.964 159.935511 
L 512.964 159.827217 
L 512.964 159.668941 
L 513.522 159.668941 
L 513.522 159.560647 
L 513.522 159.110811 
L 514.08 159.110811 
L 514.08 159.002517 
L 514.08 158.55268 
L 514.638 158.55268 
L 514.638 158.444386 
L 514.638 158.436056 
L 515.196 158.436056 
L 515.196 158.327762 
L 515.196 157.45308 
L 515.754 157.45308 
L 515.754 157.344786 
L 515.754 157.286474 
L 516.87 157.286474 
L 516.87 157.17818 
L 516.87 156.261846 
L 517.986 156.228525 
L 517.986 156.153552 
L 517.986 154.812373 
L 519.102 154.804043 
L 519.102 154.704079 
L 519.102 153.437873 
L 520.218 153.429543 
L 520.218 153.329579 
L 520.218 153.187964 
L 521.334 153.187964 
L 521.334 153.07967 
L 521.334 151.821794 
L 521.892 151.821794 
L 521.892 151.7135 
L 521.892 151.296985 
L 522.45 151.296985 
L 522.45 151.188691 
L 522.45 151.17203 
L 524.124 151.072066 
L 524.124 151.063736 
L 524.124 149.580942 
L 525.24 149.572611 
L 525.24 149.472648 
L 525.24 149.430996 
L 525.798 149.430996 
L 525.798 149.322702 
L 525.798 148.822884 
L 526.914 148.806223 
L 526.914 148.71459 
L 526.914 148.414699 
L 527.472 148.414699 
L 527.472 148.306405 
L 527.472 148.189781 
L 528.588 148.181451 
L 528.588 148.081487 
L 528.588 146.482068 
L 529.704 146.440417 
L 529.704 146.373774 
L 529.704 146.148856 
L 530.262 146.148856 
L 530.262 146.040562 
L 530.262 145.16588 
L 531.936 145.065917 
L 531.936 145.057586 
L 531.936 143.991307 
L 532.494 143.991307 
L 532.494 143.883013 
L 532.494 143.358204 
L 533.052 143.358204 
L 533.052 143.24991 
L 533.052 143.033322 
L 533.61 143.033322 
L 533.61 142.925028 
L 533.61 142.841725 
L 536.4 142.733431 
L 536.4 133.645068 
L 539.19 133.545105 
L 539.19 133.536774 
L 539.19 133.486793 
L 539.748 133.486793 
L 539.748 133.378499 
L 539.748 132.645432 
L 540.864 132.620441 
L 540.864 132.537138 
L 540.864 132.237247 
L 541.98 132.237247 
L 541.98 132.128953 
L 541.98 131.404216 
L 542.538 131.404216 
L 542.538 131.295922 
L 542.538 131.279262 
L 543.096 131.279262 
L 543.096 131.170968 
L 543.096 129.638192 
L 544.77 129.571549 
L 544.77 129.529898 
L 544.77 128.955107 
L 545.328 128.955107 
L 545.328 128.846813 
L 545.328 128.796831 
L 546.444 128.788501 
L 546.444 128.688537 
L 546.444 126.972494 
L 548.118 126.914182 
L 548.118 126.8642 
L 548.118 126.131133 
L 549.792 126.04783 
L 549.792 126.022839 
L 549.792 125.189809 
L 550.35 125.189809 
L 550.35 125.081515 
L 550.35 125.031533 
L 550.908 125.031533 
L 550.908 124.923239 
L 550.908 124.015236 
L 552.024 123.990245 
L 552.024 123.906942 
L 552.024 123.423784 
L 552.582 123.423784 
L 552.582 123.31549 
L 552.582 123.115563 
L 554.814 123.073911 
L 554.814 123.007269 
L 554.814 119.808432 
L 557.046 119.741789 
L 557.046 119.700138 
L 557.046 119.633495 
L 557.604 119.633495 
L 557.604 119.525202 
L 557.604 119.316944 
L 558.162 119.316944 
L 558.162 119.20865 
L 558.162 118.633859 
L 558.72 118.633859 
L 558.72 118.525565 
L 558.72 117.925783 
L 559.836 117.85081 
L 559.836 117.817489 
L 559.836 117.30934 
L 560.952 117.30934 
L 560.952 117.201046 
L 560.952 116.75121 
L 562.068 116.75121 
L 562.068 116.642916 
L 562.068 115.984822 
L 563.184 115.976492 
L 563.184 115.876528 
L 563.184 115.701592 
L 564.3 115.676601 
L 564.3 115.593298 
L 564.3 112.902609 
L 565.416 112.860958 
L 565.416 112.794315 
L 565.416 111.927963 
L 565.974 111.927963 
L 565.974 111.819669 
L 565.974 111.661394 
L 566.532 111.661394 
L 566.532 111.5531 
L 566.532 111.503118 
L 568.206 111.469797 
L 568.206 111.394824 
L 568.206 109.462193 
L 569.88 109.453863 
L 569.88 109.353899 
L 569.88 109.287257 
L 570.438 109.287257 
L 570.438 109.178963 
L 570.438 109.054008 
L 570.996 109.054008 
L 570.996 108.945714 
L 570.996 108.029381 
L 572.112 107.996059 
L 572.112 107.921087 
L 572.112 107.129708 
L 572.67 107.129708 
L 572.67 107.021414 
L 572.67 106.963102 
L 573.786 106.963102 
L 573.786 106.854808 
L 573.786 102.423085 
L 575.46 102.323122 
L 575.46 102.314791 
L 575.46 101.081906 
L 576.018 101.081906 
L 576.018 100.973612 
L 576.018 100.248876 
L 576.576 100.248876 
L 576.576 100.140582 
L 576.576 100.0906 
L 578.25 100.073939 
L 578.25 99.982306 
L 578.25 98.224612 
L 580.482 98.157969 
L 580.482 98.116318 
L 580.482 97.958042 
L 581.04 97.958042 
L 581.04 97.849748 
L 581.04 97.533196 
L 581.598 97.533196 
L 581.598 97.424902 
L 581.598 97.34993 
L 582.156 97.34993 
L 582.156 97.241636 
L 582.156 96.891763 
L 583.83 96.866772 
L 583.83 96.783469 
L 583.83 96.658514 
L 584.388 96.658514 
L 584.388 96.55022 
L 584.388 96.400275 
L 586.062 96.366954 
L 586.062 96.291981 
L 586.062 95.200711 
L 587.178 95.200711 
L 587.178 95.092417 
L 587.178 95.084087 
L 587.736 95.084087 
L 587.736 94.975793 
L 587.736 94.917481 
L 588.294 94.917481 
L 588.294 94.809187 
L 588.294 94.575938 
L 589.41 94.542617 
L 589.41 94.467644 
L 589.41 94.026138 
L 590.526 93.992817 
L 590.526 93.917844 
L 590.526 93.384705 
L 592.2 93.384705 
L 592.2 93.276411 
L 592.2 85.645851 
L 593.874 85.61253 
L 593.874 85.537557 
L 593.874 85.104381 
L 594.99 85.104381 
L 594.99 84.996087 
L 594.99 84.671206 
L 595.548 84.671206 
L 595.548 84.562912 
L 595.548 84.021442 
L 597.222 83.954799 
L 597.222 83.913148 
L 597.222 83.15509 
L 598.896 83.138429 
L 598.896 83.046796 
L 598.896 83.030136 
L 599.454 83.030136 
L 599.454 82.921842 
L 599.454 82.838538 
L 600.012 82.838538 
L 600.012 82.730245 
L 600.012 82.138793 
L 601.686 82.130463 
L 601.686 82.030499 
L 601.686 81.564002 
L 602.802 81.564002 
L 602.802 81.455708 
L 602.802 80.839265 
L 603.36 80.839265 
L 603.36 80.730971 
L 603.36 80.68099 
L 605.034 80.572696 
L 605.034 80.264474 
L 606.708 80.239483 
L 606.708 80.15618 
L 606.708 78.740028 
L 608.382 78.740028 
L 608.382 78.631734 
L 608.382 78.056943 
L 609.498 77.990301 
L 609.498 77.948649 
L 609.498 77.557125 
L 610.056 77.557125 
L 610.056 77.448831 
L 610.056 77.40718 
L 610.614 77.40718 
L 610.614 77.298886 
L 610.614 74.249994 
L 611.73 74.249994 
L 611.73 74.1417 
L 611.73 73.85847 
L 613.404 73.825149 
L 613.404 73.750176 
L 613.404 73.358651 
L 615.078 73.283679 
L 615.078 73.250357 
L 615.078 72.992118 
L 616.194 72.983788 
L 616.194 72.883824 
L 616.194 72.850503 
L 616.752 72.850503 
L 616.752 72.742209 
L 616.752 72.717218 
L 617.868 72.717218 
L 617.868 72.608924 
L 617.868 72.558942 
L 618.426 72.558942 
L 618.426 72.450648 
L 618.426 72.425657 
L 620.1 72.367345 
L 620.1 72.317363 
L 620.1 71.384369 
L 621.216 71.359378 
L 621.216 71.276075 
L 621.216 71.101139 
L 622.89 71.092809 
L 622.89 70.992845 
L 622.89 70.751266 
L 624.006 70.734605 
L 624.006 70.642972 
L 624.006 70.501357 
L 624.564 70.501357 
L 624.564 70.393063 
L 624.564 70.368072 
L 626.796 70.293099 
L 626.796 70.259778 
L 626.796 70.176475 
L 627.354 70.176475 
L 627.354 70.068181 
L 627.354 69.851593 
L 627.912 69.851593 
L 627.912 69.743299 
L 627.912 69.285132 
L 629.028 69.285132 
L 629.028 69.176838 
L 629.028 69.026893 
L 629.586 69.026893 
L 629.586 68.918599 
L 629.586 67.802338 
L 630.702 67.719035 
L 630.702 67.694044 
L 630.702 67.369162 
L 631.818 67.269199 
L 631.818 67.260868 
L 631.818 67.169235 
L 635.724 67.060941 
L 635.724 67.052611 
L 648 67.002629 
L 648 66.944317 
L 648 60.48 
L 648 60.48 
" clip-path="url(#p4e23768560)" style="fill: none; stroke: #2ca02c; stroke-width: 2.8; stroke-linecap: round"/>
   </g>
   <g id="line2d_15">
    <path d="M 90 441 
L 90 417.227275 
L 111.762 417.149075 
L 111.762 417.070875 
L 112.32 417.070875 
L 112.32 416.992676 
L 112.32 416.836276 
L 113.994 416.836276 
L 113.994 416.758076 
L 113.994 416.601677 
L 115.11 416.601677 
L 115.11 416.523477 
L 115.11 416.054279 
L 116.784 415.976079 
L 116.784 415.976079 
L 116.784 415.897879 
L 117.9 415.897879 
L 117.9 415.819679 
L 117.9 415.115882 
L 119.574 415.037682 
L 119.574 415.037682 
L 119.574 414.724883 
L 121.248 414.724883 
L 121.248 414.646683 
L 121.248 414.333884 
L 122.922 414.255684 
L 122.922 414.255684 
L 122.922 413.551887 
L 124.596 413.551887 
L 124.596 413.473687 
L 124.596 412.769889 
L 127.386 412.769889 
L 127.386 412.691689 
L 127.386 411.049494 
L 129.618 411.049494 
L 129.618 410.971295 
L 129.618 409.094501 
L 132.966 409.094501 
L 132.966 409.016301 
L 132.966 408.468903 
L 134.64 408.390703 
L 134.64 408.077904 
L 136.314 408.077904 
L 136.314 407.999704 
L 136.314 407.061307 
L 138.546 407.061307 
L 138.546 406.983107 
L 138.546 406.670308 
L 140.778 406.670308 
L 140.778 406.592109 
L 140.778 405.497312 
L 143.01 405.419112 
L 143.01 404.715314 
L 145.8 404.715314 
L 145.8 404.637115 
L 145.8 403.151319 
L 148.59 403.07312 
L 148.59 402.134723 
L 149.706 402.134723 
L 149.706 402.056523 
L 149.706 401.978323 
L 151.938 401.978323 
L 151.938 401.900123 
L 151.938 399.319531 
L 154.17 399.319531 
L 154.17 399.241332 
L 154.17 399.163132 
L 155.844 399.163132 
L 155.844 399.084932 
L 155.844 398.068335 
L 156.96 398.068335 
L 156.96 397.990136 
L 156.96 397.599137 
L 159.75 397.599137 
L 159.75 397.520937 
L 159.75 393.767349 
L 162.54 393.767349 
L 162.54 393.689149 
L 162.54 392.985351 
L 164.214 392.985351 
L 164.214 392.907152 
L 164.214 391.421356 
L 165.888 391.421356 
L 165.888 391.343157 
L 165.888 390.873958 
L 167.562 390.795758 
L 167.562 390.717559 
L 169.794 390.717559 
L 169.794 390.639359 
L 169.794 388.215166 
L 172.584 388.136967 
L 172.584 387.824168 
L 173.7 387.824168 
L 173.7 387.745968 
L 173.7 387.04217 
L 175.932 387.04217 
L 175.932 386.96397 
L 175.932 386.494772 
L 178.164 386.416572 
L 178.164 385.165376 
L 179.28 385.165376 
L 179.28 385.087176 
L 179.28 384.852577 
L 179.838 384.852577 
L 179.838 384.774377 
L 179.838 384.539778 
L 183.186 384.461578 
L 183.186 381.646387 
L 185.976 381.646387 
L 185.976 381.568187 
L 185.976 381.489988 
L 187.092 381.489988 
L 187.092 381.411788 
L 187.092 380.86439 
L 188.208 380.86439 
L 188.208 380.78619 
L 188.208 379.222195 
L 189.882 379.222195 
L 189.882 379.143995 
L 189.882 378.831196 
L 191.556 378.831196 
L 191.556 378.752996 
L 191.556 376.798002 
L 193.23 376.798002 
L 193.23 376.719803 
L 193.23 376.328804 
L 194.904 376.250604 
L 194.904 375.077608 
L 196.02 374.999408 
L 196.02 374.061011 
L 197.136 374.061011 
L 197.136 373.982811 
L 197.136 373.279014 
L 198.252 373.279014 
L 198.252 373.200814 
L 198.252 373.044414 
L 201.6 372.966215 
L 201.6 368.508829 
L 205.506 368.508829 
L 205.506 368.430629 
L 205.506 368.19603 
L 206.064 368.19603 
L 206.064 368.11783 
L 206.064 367.570432 
L 207.738 367.570432 
L 207.738 367.492232 
L 207.738 365.771837 
L 208.296 365.771837 
L 208.296 365.693637 
L 208.296 365.537238 
L 209.412 365.459038 
L 209.412 364.207842 
L 211.086 364.207842 
L 211.086 364.129642 
L 211.086 363.504044 
L 212.202 363.504044 
L 212.202 363.425845 
L 212.202 363.269445 
L 213.876 363.269445 
L 213.876 363.191245 
L 213.876 360.063255 
L 216.108 360.063255 
L 216.108 359.985055 
L 216.108 359.906856 
L 216.666 359.906856 
L 216.666 359.828656 
L 216.666 359.203058 
L 218.898 359.203058 
L 218.898 359.124858 
L 218.898 356.700666 
L 220.014 356.700666 
L 220.014 356.622466 
L 220.014 356.544266 
L 221.13 356.544266 
L 221.13 356.466067 
L 221.13 354.511073 
L 222.804 354.432873 
L 222.804 353.103477 
L 223.92 353.103477 
L 223.92 353.025277 
L 223.92 352.32148 
L 224.478 352.32148 
L 224.478 352.24328 
L 224.478 351.930481 
L 229.5 351.852281 
L 229.5 343.563107 
L 232.848 343.563107 
L 232.848 343.484908 
L 232.848 343.406708 
L 233.964 343.328508 
L 233.964 343.172109 
L 234.522 343.172109 
L 234.522 343.093909 
L 234.522 342.468311 
L 235.638 342.468311 
L 235.638 342.390111 
L 235.638 341.373514 
L 236.754 341.373514 
L 236.754 341.295314 
L 236.754 339.027522 
L 237.87 339.027522 
L 237.87 338.949322 
L 237.87 338.871122 
L 238.986 338.871122 
L 238.986 338.792922 
L 238.986 337.463527 
L 240.102 337.463527 
L 240.102 337.385327 
L 240.102 336.44693 
L 242.334 336.36873 
L 242.334 333.08434 
L 244.008 333.006141 
L 244.008 332.536942 
L 245.124 332.536942 
L 245.124 332.458742 
L 245.124 331.520345 
L 246.24 331.442145 
L 246.24 330.347349 
L 246.798 330.347349 
L 246.798 330.269149 
L 246.798 330.11275 
L 249.588 330.11275 
L 249.588 330.03455 
L 249.588 325.811763 
L 251.82 325.811763 
L 251.82 325.733564 
L 251.82 325.655364 
L 252.936 325.655364 
L 252.936 325.577164 
L 252.936 324.482367 
L 254.052 324.404168 
L 254.052 322.136375 
L 255.168 322.136375 
L 255.168 322.058175 
L 255.168 321.354377 
L 257.4 321.354377 
L 257.4 321.276178 
L 257.4 317.28799 
L 259.074 317.20979 
L 259.074 317.131591 
L 259.632 317.131591 
L 259.632 317.053391 
L 259.632 315.254797 
L 261.864 315.254797 
L 261.864 315.176597 
L 261.864 313.534402 
L 262.98 313.534402 
L 262.98 313.456202 
L 262.98 313.143403 
L 264.096 313.143403 
L 264.096 313.065203 
L 264.096 311.423009 
L 265.212 311.423009 
L 265.212 311.344809 
L 265.212 311.11021 
L 266.328 311.11021 
L 266.328 311.03201 
L 266.328 308.686017 
L 267.444 308.686017 
L 267.444 308.607818 
L 267.444 306.496424 
L 268.56 306.418224 
L 268.56 305.636227 
L 269.118 305.636227 
L 269.118 305.558027 
L 269.118 305.088829 
L 270.792 305.010629 
L 270.792 304.854229 
L 273.024 304.77603 
L 273.024 304.61963 
L 275.814 304.61963 
L 275.814 304.54143 
L 275.814 293.437065 
L 281.394 293.358866 
L 281.394 293.280666 
L 281.952 293.280666 
L 281.952 293.202466 
L 281.952 292.967867 
L 282.51 292.967867 
L 282.51 292.889667 
L 282.51 292.10767 
L 283.068 292.10767 
L 283.068 292.02947 
L 283.068 291.091073 
L 284.184 291.012873 
L 284.184 289.683477 
L 285.3 289.683477 
L 285.3 289.605277 
L 285.3 287.493884 
L 286.974 287.415684 
L 286.974 285.69529 
L 288.09 285.69529 
L 288.09 285.61709 
L 288.09 285.069692 
L 289.206 285.069692 
L 289.206 284.991492 
L 289.206 282.645499 
L 290.88 282.645499 
L 290.88 282.5673 
L 290.88 282.176301 
L 291.438 282.176301 
L 291.438 282.098101 
L 291.438 282.019901 
L 293.112 281.941702 
L 293.112 277.797115 
L 294.786 277.797115 
L 294.786 277.718915 
L 294.786 277.562515 
L 295.344 277.562515 
L 295.344 277.484316 
L 295.344 274.825524 
L 296.46 274.825524 
L 296.46 274.747324 
L 296.46 274.199926 
L 297.576 274.121726 
L 297.576 274.043527 
L 299.25 274.043527 
L 299.25 273.965327 
L 299.25 270.211739 
L 301.482 270.133539 
L 301.482 269.429741 
L 302.598 269.429741 
L 302.598 269.351541 
L 302.598 266.379951 
L 303.714 266.379951 
L 303.714 266.301751 
L 303.714 266.223551 
L 304.83 266.223551 
L 304.83 266.145351 
L 304.83 264.424957 
L 305.946 264.346757 
L 305.946 264.112158 
L 306.504 264.112158 
L 306.504 264.033958 
L 306.504 263.877559 
L 307.062 263.877559 
L 307.062 263.799359 
L 307.062 262.157164 
L 308.178 262.157164 
L 308.178 262.078964 
L 308.178 261.296967 
L 309.294 261.296967 
L 309.294 261.218767 
L 309.294 261.140567 
L 309.852 261.140567 
L 309.852 261.062367 
L 309.852 260.671369 
L 313.2 260.671369 
L 313.2 260.593169 
L 313.2 253.476991 
L 315.99 253.476991 
L 315.99 253.398792 
L 315.99 253.164192 
L 316.548 253.164192 
L 316.548 253.085993 
L 316.548 252.929593 
L 317.106 252.929593 
L 317.106 252.851393 
L 317.106 252.147596 
L 318.222 252.147596 
L 318.222 252.069396 
L 318.222 250.192602 
L 319.896 250.192602 
L 319.896 250.114402 
L 319.896 248.785006 
L 321.012 248.785006 
L 321.012 248.706806 
L 321.012 248.472207 
L 321.57 248.472207 
L 321.57 248.394007 
L 321.57 248.159408 
L 322.686 248.159408 
L 322.686 248.081208 
L 322.686 245.578816 
L 323.802 245.578816 
L 323.802 245.500617 
L 323.802 245.422417 
L 324.918 245.422417 
L 324.918 245.344217 
L 324.918 244.48402 
L 326.034 244.40582 
L 326.034 243.858422 
L 326.592 243.858422 
L 326.592 243.780222 
L 326.592 243.623822 
L 327.15 243.623822 
L 327.15 243.545623 
L 327.15 243.467423 
L 329.382 243.389223 
L 329.382 238.619038 
L 331.056 238.619038 
L 331.056 238.540838 
L 331.056 238.228039 
L 331.614 238.228039 
L 331.614 238.14984 
L 331.614 238.07164 
L 332.73 238.07164 
L 332.73 237.99344 
L 332.73 236.273046 
L 334.404 236.194846 
L 334.404 234.709051 
L 335.52 234.630851 
L 335.52 234.083453 
L 336.078 234.083453 
L 336.078 234.005253 
L 336.078 233.927053 
L 337.752 233.848853 
L 337.752 231.893859 
L 339.426 231.81566 
L 339.426 231.424661 
L 339.984 231.424661 
L 339.984 231.346461 
L 339.984 230.955462 
L 340.542 230.955462 
L 340.542 230.877263 
L 340.542 230.799063 
L 341.1 230.799063 
L 341.1 230.720863 
L 341.1 227.983872 
L 342.216 227.983872 
L 342.216 227.905672 
L 342.216 227.749273 
L 343.89 227.749273 
L 343.89 227.671073 
L 343.89 224.152084 
L 345.564 224.152084 
L 345.564 224.073884 
L 345.564 222.744488 
L 346.122 222.744488 
L 346.122 222.666289 
L 346.122 222.509889 
L 347.238 222.431689 
L 347.238 222.35349 
L 347.796 222.35349 
L 347.796 222.27529 
L 347.796 219.225499 
L 348.354 219.225499 
L 348.354 219.1473 
L 348.354 219.0691 
L 348.912 219.0691 
L 348.912 218.9909 
L 348.912 218.756301 
L 350.586 218.678101 
L 350.586 217.583305 
L 351.702 217.505105 
L 351.702 216.801307 
L 352.818 216.801307 
L 352.818 216.723107 
L 352.818 215.628311 
L 353.376 215.628311 
L 353.376 215.550111 
L 353.376 215.471911 
L 353.934 215.471911 
L 353.934 215.393711 
L 353.934 215.315512 
L 354.492 215.315512 
L 354.492 215.237312 
L 354.492 213.751517 
L 355.608 213.673317 
L 355.608 212.891319 
L 356.724 212.891319 
L 356.724 212.81312 
L 356.724 211.640123 
L 357.84 211.640123 
L 357.84 211.561924 
L 357.84 210.154328 
L 358.398 210.154328 
L 358.398 210.076128 
L 358.398 209.37233 
L 359.514 209.294131 
L 359.514 208.746732 
L 360.072 208.746732 
L 360.072 208.668533 
L 360.072 208.512133 
L 360.63 208.512133 
L 360.63 208.433933 
L 360.63 208.277534 
L 361.188 208.277534 
L 361.188 208.199334 
L 361.188 207.886535 
L 361.746 207.886535 
L 361.746 207.808335 
L 361.746 207.730136 
L 362.862 207.730136 
L 362.862 207.651936 
L 362.862 207.573736 
L 365.094 207.495536 
L 365.094 207.417337 
L 365.652 207.417337 
L 365.652 207.339137 
L 365.652 207.260937 
L 369 207.182737 
L 369 191.229988 
L 373.464 191.229988 
L 373.464 191.151788 
L 373.464 190.995388 
L 374.022 190.995388 
L 374.022 190.917189 
L 374.022 190.838989 
L 374.58 190.838989 
L 374.58 190.760789 
L 374.58 190.682589 
L 375.138 190.682589 
L 375.138 190.60439 
L 375.138 190.52619 
L 376.812 190.44799 
L 376.812 190.213391 
L 377.37 190.213391 
L 377.37 190.135191 
L 377.37 189.978792 
L 377.928 189.978792 
L 377.928 189.900592 
L 377.928 189.587793 
L 378.486 189.587793 
L 378.486 189.509593 
L 378.486 188.727596 
L 379.602 188.727596 
L 379.602 188.649396 
L 379.602 188.180197 
L 380.16 188.180197 
L 380.16 188.101998 
L 380.16 187.710999 
L 381.276 187.632799 
L 381.276 186.929001 
L 381.834 186.929001 
L 381.834 186.850801 
L 381.834 186.772602 
L 382.392 186.772602 
L 382.392 186.694402 
L 382.392 185.834205 
L 382.95 185.834205 
L 382.95 185.756005 
L 382.95 185.443206 
L 383.508 185.443206 
L 383.508 185.365006 
L 383.508 184.27021 
L 384.624 184.27021 
L 384.624 184.19201 
L 384.624 183.879211 
L 385.182 183.879211 
L 385.182 183.801011 
L 385.182 183.331813 
L 386.298 183.331813 
L 386.298 183.253613 
L 386.298 183.019014 
L 387.414 182.940814 
L 387.414 180.516621 
L 388.53 180.516621 
L 388.53 180.438422 
L 388.53 180.282022 
L 389.088 180.282022 
L 389.088 180.203822 
L 389.088 179.500025 
L 390.204 179.500025 
L 390.204 179.421825 
L 390.204 177.77963 
L 391.32 177.77963 
L 391.32 177.70143 
L 391.32 177.623231 
L 391.878 177.623231 
L 391.878 177.545031 
L 391.878 177.466831 
L 392.436 177.466831 
L 392.436 177.388631 
L 392.436 176.919433 
L 392.994 176.919433 
L 392.994 176.841233 
L 392.994 176.763033 
L 394.11 176.763033 
L 394.11 176.684834 
L 394.11 175.668237 
L 395.784 175.668237 
L 395.784 175.590037 
L 395.784 175.199038 
L 396.9 175.199038 
L 396.9 175.120838 
L 396.9 174.260641 
L 398.016 174.182441 
L 398.016 173.556843 
L 399.132 173.478644 
L 399.132 173.400444 
L 400.248 173.400444 
L 400.248 173.322244 
L 400.248 169.490456 
L 401.922 169.412256 
L 401.922 169.255857 
L 402.48 169.255857 
L 402.48 169.177657 
L 402.48 168.630259 
L 403.596 168.552059 
L 403.596 166.597065 
L 405.27 166.518866 
L 405.27 166.284266 
L 406.386 166.206067 
L 406.386 166.049667 
L 408.618 165.971467 
L 408.618 163.078076 
L 409.734 162.999877 
L 409.734 162.843477 
L 410.292 162.843477 
L 410.292 162.765277 
L 410.292 162.687078 
L 410.85 162.687078 
L 410.85 162.608878 
L 410.85 162.452478 
L 411.966 162.374279 
L 411.966 162.06148 
L 412.524 162.06148 
L 412.524 161.98328 
L 412.524 161.82688 
L 413.082 161.82688 
L 413.082 161.748681 
L 413.082 160.497485 
L 414.198 160.497485 
L 414.198 160.419285 
L 414.198 159.950086 
L 415.314 159.950086 
L 415.314 159.871887 
L 415.314 159.011689 
L 416.988 159.011689 
L 416.988 158.93349 
L 416.988 158.69889 
L 417.546 158.69889 
L 417.546 158.620691 
L 417.546 158.542491 
L 418.104 158.542491 
L 418.104 158.464291 
L 418.104 156.431097 
L 419.778 156.352898 
L 419.778 155.805499 
L 420.894 155.7273 
L 420.894 155.023502 
L 421.452 155.023502 
L 421.452 154.945302 
L 421.452 154.788903 
L 423.126 154.710703 
L 423.126 154.632503 
L 424.8 154.632503 
L 424.8 154.554303 
L 424.8 150.253317 
L 427.59 150.175117 
L 427.59 150.096917 
L 428.706 150.096917 
L 428.706 150.018718 
L 428.706 149.784118 
L 429.822 149.784118 
L 429.822 149.705919 
L 429.822 149.080321 
L 430.38 149.080321 
L 430.38 149.002121 
L 430.38 148.923921 
L 430.938 148.923921 
L 430.938 148.845721 
L 430.938 147.594525 
L 432.612 147.516326 
L 432.612 147.359926 
L 433.17 147.359926 
L 433.17 147.281726 
L 433.17 146.734328 
L 434.844 146.734328 
L 434.844 146.656128 
L 434.844 146.577928 
L 435.402 146.577928 
L 435.402 146.499729 
L 435.402 145.717731 
L 436.518 145.717731 
L 436.518 145.639531 
L 436.518 145.248533 
L 438.75 145.170333 
L 438.75 143.606338 
L 440.424 143.528138 
L 440.424 143.449938 
L 440.982 143.449938 
L 440.982 143.371739 
L 440.982 143.215339 
L 441.54 143.215339 
L 441.54 143.137139 
L 441.54 142.667941 
L 442.656 142.667941 
L 442.656 142.589741 
L 442.656 141.573144 
L 443.214 141.573144 
L 443.214 141.494945 
L 443.214 141.416745 
L 444.33 141.416745 
L 444.33 141.338545 
L 444.33 141.260345 
L 444.888 141.260345 
L 444.888 141.182145 
L 444.888 140.165549 
L 447.12 140.165549 
L 447.12 140.087349 
L 447.12 139.77455 
L 448.794 139.77455 
L 448.794 139.69635 
L 448.794 139.305351 
L 449.352 139.305351 
L 449.352 139.227152 
L 449.352 139.148952 
L 451.026 139.070752 
L 451.026 138.132355 
L 452.7 138.132355 
L 452.7 138.054155 
L 452.7 137.193958 
L 453.816 137.193958 
L 453.816 137.115758 
L 453.816 136.411961 
L 454.932 136.333761 
L 454.932 136.020962 
L 455.49 136.020962 
L 455.49 135.942762 
L 455.49 135.864562 
L 456.048 135.864562 
L 456.048 135.786363 
L 456.048 135.708163 
L 457.164 135.629963 
L 457.164 135.551763 
L 458.28 135.473564 
L 458.28 135.395364 
L 462.186 135.317164 
L 462.186 128.435586 
L 466.092 128.357386 
L 466.092 128.279186 
L 467.766 128.200986 
L 467.766 128.122787 
L 468.882 128.044587 
L 468.882 127.888187 
L 469.44 127.888187 
L 469.44 127.809988 
L 469.44 127.18439 
L 470.556 127.18439 
L 470.556 127.10619 
L 470.556 126.089593 
L 471.672 126.089593 
L 471.672 126.011393 
L 471.672 125.229396 
L 473.904 125.229396 
L 473.904 125.151196 
L 473.904 124.838397 
L 475.02 124.760197 
L 475.02 124.525598 
L 476.136 124.525598 
L 476.136 124.447398 
L 476.136 124.0564 
L 478.368 123.9782 
L 478.368 122.961603 
L 480.6 122.883403 
L 480.6 121.319408 
L 481.716 121.319408 
L 481.716 121.241208 
L 481.716 121.163009 
L 482.832 121.163009 
L 482.832 121.084809 
L 482.832 120.69381 
L 483.948 120.69381 
L 483.948 120.61561 
L 483.948 120.381011 
L 485.064 120.381011 
L 485.064 120.302811 
L 485.064 119.677213 
L 486.18 119.599014 
L 486.18 119.442614 
L 487.296 119.364414 
L 487.296 119.286215 
L 488.412 119.286215 
L 488.412 119.208015 
L 488.412 117.018422 
L 491.202 116.940222 
L 491.202 116.862022 
L 491.76 116.862022 
L 491.76 116.783822 
L 491.76 116.549223 
L 492.318 116.549223 
L 492.318 116.471023 
L 492.318 116.392824 
L 492.876 116.392824 
L 492.876 116.314624 
L 492.876 115.923625 
L 495.108 115.845425 
L 495.108 115.767226 
L 495.666 115.767226 
L 495.666 115.689026 
L 495.666 113.264834 
L 497.898 113.264834 
L 497.898 113.186634 
L 497.898 112.952035 
L 499.014 112.952035 
L 499.014 112.873835 
L 499.014 112.561036 
L 501.246 112.561036 
L 501.246 112.482836 
L 501.246 112.248237 
L 502.362 112.170037 
L 502.362 111.700838 
L 503.478 111.700838 
L 503.478 111.622639 
L 503.478 111.30984 
L 504.036 111.30984 
L 504.036 111.23164 
L 504.036 111.15344 
L 505.71 111.07524 
L 505.71 110.997041 
L 508.5 110.997041 
L 508.5 110.918841 
L 508.5 107.478052 
L 511.29 107.478052 
L 511.29 107.399852 
L 511.29 107.321652 
L 512.964 107.321652 
L 512.964 107.243453 
L 512.964 107.165253 
L 514.08 107.165253 
L 514.08 107.087053 
L 514.08 106.774254 
L 515.196 106.696054 
L 515.196 105.992256 
L 517.986 105.914057 
L 517.986 105.835857 
L 519.102 105.835857 
L 519.102 105.757657 
L 519.102 105.366658 
L 520.218 105.366658 
L 520.218 105.288459 
L 520.218 105.210259 
L 521.334 105.210259 
L 521.334 105.132059 
L 521.334 105.053859 
L 524.124 104.97566 
L 524.124 103.411665 
L 526.914 103.333465 
L 526.914 103.098866 
L 528.588 103.098866 
L 528.588 103.020666 
L 528.588 102.473268 
L 529.704 102.473268 
L 529.704 102.395068 
L 529.704 102.316868 
L 530.82 102.238668 
L 530.82 102.082269 
L 531.936 102.082269 
L 531.936 102.004069 
L 531.936 101.69127 
L 532.494 101.69127 
L 532.494 101.61307 
L 532.494 101.300271 
L 536.4 101.222072 
L 536.4 97.468483 
L 539.748 97.390284 
L 539.748 97.233884 
L 540.864 97.233884 
L 540.864 97.155684 
L 540.864 97.077485 
L 541.98 97.077485 
L 541.98 96.999285 
L 541.98 96.373687 
L 543.096 96.373687 
L 543.096 96.295487 
L 543.096 96.060888 
L 544.77 95.982688 
L 544.77 95.669889 
L 546.444 95.669889 
L 546.444 95.591689 
L 546.444 94.575092 
L 548.118 94.575092 
L 548.118 94.496893 
L 548.118 94.418693 
L 549.792 94.418693 
L 549.792 94.340493 
L 549.792 94.262293 
L 550.908 94.262293 
L 550.908 94.184094 
L 550.908 94.027694 
L 554.814 93.949494 
L 554.814 90.899704 
L 559.836 90.899704 
L 559.836 90.821504 
L 559.836 90.195906 
L 562.068 90.117707 
L 562.068 89.492109 
L 564.3 89.413909 
L 564.3 89.10111 
L 565.416 89.10111 
L 565.416 89.02291 
L 565.416 88.86651 
L 568.206 88.86651 
L 568.206 88.788311 
L 568.206 87.615314 
L 570.438 87.537115 
L 570.438 87.458915 
L 573.786 87.380715 
L 573.786 87.067916 
L 575.46 87.067916 
L 575.46 86.989716 
L 575.46 86.911517 
L 576.576 86.833317 
L 576.576 86.755117 
L 578.25 86.755117 
L 578.25 86.676917 
L 578.25 85.73852 
L 581.04 85.660321 
L 581.04 85.503921 
L 583.272 85.425721 
L 583.272 85.347522 
L 584.388 85.269322 
L 584.388 85.191122 
L 586.062 85.191122 
L 586.062 85.112922 
L 586.062 83.939926 
L 589.41 83.861726 
L 589.41 83.548927 
L 592.2 83.470727 
L 592.2 81.906732 
L 593.316 81.906732 
L 593.316 81.828533 
L 593.316 81.750333 
L 594.99 81.672133 
L 594.99 81.124735 
L 595.548 81.124735 
L 595.548 81.046535 
L 595.548 80.968335 
L 597.222 80.968335 
L 597.222 80.890136 
L 597.222 80.577337 
L 600.57 80.499137 
L 600.57 80.420937 
L 601.686 80.420937 
L 601.686 80.342737 
L 601.686 80.186338 
L 605.034 80.186338 
L 605.034 80.108138 
L 605.034 80.029938 
L 606.708 79.951739 
L 606.708 79.873539 
L 608.382 79.873539 
L 608.382 79.795339 
L 608.382 79.63894 
L 610.056 79.56074 
L 610.056 79.48254 
L 610.614 79.48254 
L 610.614 79.40434 
L 610.614 79.169741 
L 613.404 79.091541 
L 613.404 78.856942 
L 615.078 78.856942 
L 615.078 78.778742 
L 615.078 78.544143 
L 616.194 78.544143 
L 616.194 78.465943 
L 616.194 78.387744 
L 616.752 78.387744 
L 616.752 78.309544 
L 616.752 77.996745 
L 618.426 77.918545 
L 618.426 77.371147 
L 620.1 77.292947 
L 620.1 77.214747 
L 621.216 77.136547 
L 621.216 76.901948 
L 622.89 76.901948 
L 622.89 76.823748 
L 622.89 76.510949 
L 624.006 76.43275 
L 624.006 76.35455 
L 624.564 76.35455 
L 624.564 76.27635 
L 624.564 75.885351 
L 626.796 75.807152 
L 626.796 75.494353 
L 633.492 75.416153 
L 633.492 75.337953 
L 648 75.259753 
L 648 60.48 
L 648 60.48 
" clip-path="url(#p4e23768560)" style="fill: none; stroke: #ff7f0e; stroke-width: 2.8; stroke-linecap: round"/>
   </g>
   <g id="line2d_16">
    <path d="M 90 441 
L 90 438.024334 
L 113.436 437.940619 
L 113.436 437.917788 
L 113.436 437.849294 
L 115.11 437.75797 
L 115.11 437.742749 
L 115.11 437.598151 
L 116.784 437.590541 
L 116.784 437.491606 
L 116.784 437.369839 
L 117.9 437.369839 
L 117.9 437.263294 
L 117.9 437.118696 
L 119.574 437.111086 
L 119.574 437.01215 
L 119.574 436.639241 
L 121.248 436.639241 
L 121.248 436.532695 
L 121.248 436.068461 
L 122.922 436.06085 
L 122.922 435.961915 
L 122.922 435.48246 
L 124.596 435.48246 
L 124.596 435.375914 
L 124.596 434.736641 
L 127.386 434.736641 
L 127.386 434.630095 
L 127.386 434.089757 
L 129.618 434.089757 
L 129.618 433.983211 
L 129.618 433.473314 
L 132.966 433.442873 
L 132.966 433.366769 
L 132.966 432.788378 
L 136.314 432.681833 
L 136.314 432.088222 
L 138.546 432.088222 
L 138.546 431.981676 
L 138.546 431.928403 
L 140.778 431.928403 
L 140.778 431.821858 
L 140.778 431.159753 
L 143.01 431.152142 
L 143.01 431.053207 
L 143.01 430.855337 
L 145.8 430.847726 
L 145.8 430.748791 
L 145.8 429.934478 
L 148.59 429.926868 
L 148.59 429.827933 
L 148.59 429.226711 
L 151.938 429.21149 
L 151.938 429.120166 
L 151.938 427.841618 
L 155.844 427.773125 
L 155.844 427.735073 
L 155.844 426.608734 
L 156.96 426.608734 
L 156.96 426.502188 
L 156.96 426.441305 
L 159.75 426.433694 
L 159.75 426.334759 
L 159.75 424.782238 
L 162.54 424.774627 
L 162.54 424.675692 
L 162.54 424.584367 
L 164.214 424.584367 
L 164.214 424.477822 
L 164.214 423.556963 
L 165.888 423.556963 
L 165.888 423.450418 
L 165.888 423.153612 
L 169.794 423.130781 
L 169.794 423.047066 
L 169.794 421.441272 
L 173.7 421.372778 
L 173.7 421.334726 
L 173.7 420.733505 
L 175.932 420.733505 
L 175.932 420.626959 
L 175.932 419.926802 
L 178.164 419.926802 
L 178.164 419.820257 
L 178.164 418.891788 
L 179.28 418.891788 
L 179.28 418.785242 
L 179.28 418.701528 
L 183.186 418.701528 
L 183.186 418.594982 
L 183.186 416.235758 
L 187.092 416.212927 
L 187.092 416.129213 
L 187.092 415.900901 
L 188.208 415.900901 
L 188.208 415.794355 
L 188.208 414.576691 
L 191.556 414.523418 
L 191.556 414.470146 
L 191.556 413.579729 
L 194.904 413.496014 
L 194.904 413.473183 
L 194.904 412.156584 
L 196.02 412.156584 
L 196.02 412.050038 
L 196.02 411.479258 
L 197.136 411.479258 
L 197.136 411.372713 
L 197.136 411.296609 
L 201.6 411.288998 
L 201.6 411.190063 
L 201.6 408.46554 
L 206.064 408.404657 
L 206.064 408.358994 
L 206.064 408.176345 
L 207.738 408.176345 
L 207.738 408.069799 
L 207.738 407.080447 
L 209.412 407.080447 
L 209.412 406.973902 
L 209.412 406.136758 
L 211.086 406.136758 
L 211.086 406.030212 
L 211.086 405.710575 
L 213.876 405.702965 
L 213.876 405.60403 
L 213.876 403.602494 
L 216.666 403.594884 
L 216.666 403.495949 
L 216.666 403.024104 
L 218.898 403.008883 
L 218.898 402.917558 
L 218.898 402.156518 
L 221.13 402.133687 
L 221.13 402.049973 
L 221.13 400.383295 
L 222.804 400.383295 
L 222.804 400.27675 
L 222.804 399.355891 
L 223.92 399.355891 
L 223.92 399.249346 
L 223.92 399.218904 
L 229.5 399.188462 
L 229.5 399.112358 
L 229.5 390.657204 
L 235.638 390.57349 
L 235.638 390.550658 
L 235.638 390.055982 
L 236.754 390.055982 
L 236.754 389.949437 
L 236.754 386.829173 
L 238.986 386.813952 
L 238.986 386.722627 
L 238.986 383.396882 
L 240.102 383.396882 
L 240.102 383.290337 
L 240.102 383.275116 
L 242.334 383.275116 
L 242.334 383.16857 
L 242.334 381.0681 
L 245.124 381.052879 
L 245.124 380.961554 
L 245.124 376.905211 
L 246.24 376.905211 
L 246.24 376.798666 
L 246.24 376.676899 
L 249.588 376.669289 
L 249.588 376.570354 
L 249.588 371.760581 
L 252.936 371.75297 
L 252.936 371.654035 
L 252.936 371.440944 
L 254.052 371.440944 
L 254.052 371.334398 
L 254.052 366.973639 
L 257.4 366.867094 
L 257.4 362.399789 
L 259.632 362.384568 
L 259.632 362.293243 
L 259.632 361.798567 
L 261.864 361.790957 
L 261.864 361.692022 
L 261.864 358.746797 
L 264.096 358.723966 
L 264.096 358.640251 
L 264.096 353.845699 
L 266.328 353.845699 
L 266.328 353.739154 
L 266.328 349.446888 
L 267.444 349.446888 
L 267.444 349.340342 
L 267.444 348.221614 
L 268.56 348.221614 
L 268.56 348.115068 
L 268.56 348.069406 
L 275.814 348.023743 
L 275.814 347.96286 
L 275.814 332.719229 
L 283.068 332.673566 
L 283.068 332.612683 
L 283.068 332.55941 
L 284.184 332.55941 
L 284.184 332.452865 
L 284.184 331.920137 
L 285.3 331.920137 
L 285.3 331.813591 
L 285.3 329.073847 
L 286.974 329.073847 
L 286.974 328.967302 
L 286.974 323.061631 
L 289.206 323.061631 
L 289.206 322.955086 
L 289.206 318.997678 
L 290.88 318.997678 
L 290.88 318.891132 
L 290.88 318.830249 
L 293.112 318.830249 
L 293.112 318.723703 
L 293.112 315.656712 
L 295.344 315.61866 
L 295.344 315.550166 
L 295.344 312.110266 
L 299.25 312.072214 
L 299.25 312.00372 
L 299.25 305.078256 
L 302.598 305.070646 
L 302.598 304.97171 
L 302.598 303.236539 
L 304.83 303.236539 
L 304.83 303.129994 
L 304.83 299.758586 
L 307.062 299.735755 
L 307.062 299.652041 
L 307.062 294.11928 
L 308.178 294.11928 
L 308.178 294.012734 
L 308.178 293.335409 
L 313.2 293.304967 
L 313.2 293.228863 
L 313.2 282.863498 
L 318.222 282.779784 
L 318.222 282.756953 
L 318.222 281.706718 
L 319.896 281.706718 
L 319.896 281.600172 
L 319.896 274.537721 
L 322.686 274.51489 
L 322.686 274.431175 
L 322.686 270.801014 
L 324.918 270.770573 
L 324.918 270.694469 
L 324.918 266.9121 
L 329.382 266.813165 
L 329.382 266.805554 
L 329.382 259.887701 
L 332.73 259.887701 
L 332.73 259.781155 
L 332.73 259.29409 
L 334.404 259.29409 
L 334.404 259.187544 
L 334.404 252.688262 
L 335.52 252.688262 
L 335.52 252.581717 
L 335.52 252.475171 
L 337.752 252.45995 
L 337.752 252.368626 
L 337.752 245.9835 
L 341.1 245.97589 
L 341.1 245.876954 
L 341.1 243.997186 
L 343.89 243.997186 
L 343.89 243.89064 
L 343.89 241.61513 
L 345.564 241.60752 
L 345.564 241.508585 
L 345.564 241.402039 
L 347.796 241.402039 
L 347.796 241.295494 
L 347.796 236.85102 
L 350.586 236.84341 
L 350.586 236.744474 
L 350.586 230.420232 
L 352.818 230.420232 
L 352.818 230.313686 
L 352.818 224.263418 
L 354.492 224.255808 
L 354.492 224.156873 
L 354.492 220.191854 
L 355.608 220.191854 
L 355.608 220.085309 
L 355.608 219.103567 
L 356.724 219.103567 
L 356.724 218.997022 
L 356.724 218.821982 
L 359.514 218.723047 
L 359.514 218.715437 
L 359.514 218.707826 
L 369 218.700216 
L 369 218.601281 
L 369 194.955768 
L 381.276 194.856833 
L 381.276 194.849222 
L 381.276 194.628521 
L 382.392 194.628521 
L 382.392 194.521975 
L 382.392 193.327142 
L 383.508 193.327142 
L 383.508 193.220597 
L 383.508 190.176437 
L 385.182 190.176437 
L 385.182 190.069891 
L 385.182 184.004402 
L 387.414 183.989182 
L 387.414 183.897857 
L 387.414 177.634498 
L 390.204 177.619277 
L 390.204 177.527952 
L 390.204 174.118493 
L 394.11 174.027168 
L 394.11 174.011947 
L 394.11 171.97997 
L 396.9 171.97997 
L 396.9 171.873425 
L 396.9 170.145864 
L 400.248 170.145864 
L 400.248 170.039318 
L 400.248 165.016454 
L 403.596 164.986013 
L 403.596 164.909909 
L 403.596 158.905303 
L 405.27 158.905303 
L 405.27 158.798758 
L 405.27 158.692212 
L 408.618 158.676991 
L 408.618 158.585666 
L 408.618 153.89766 
L 413.082 153.89766 
L 413.082 153.791114 
L 413.082 151.211189 
L 415.314 151.203578 
L 415.314 151.104643 
L 415.314 148.973731 
L 418.104 148.966121 
L 418.104 148.867186 
L 418.104 143.874763 
L 419.778 143.874763 
L 419.778 143.768218 
L 419.778 143.471412 
L 424.8 143.471412 
L 424.8 143.364866 
L 424.8 136.78187 
L 429.822 136.78187 
L 429.822 136.675325 
L 429.822 136.667714 
L 430.938 136.667714 
L 430.938 136.561169 
L 430.938 132.520046 
L 433.17 132.520046 
L 433.17 132.413501 
L 433.17 129.856406 
L 435.402 129.856406 
L 435.402 129.749861 
L 435.402 128.813782 
L 438.75 128.813782 
L 438.75 128.707236 
L 438.75 124.97814 
L 442.656 124.97814 
L 442.656 124.871594 
L 442.656 122.367773 
L 444.888 122.367773 
L 444.888 122.261227 
L 444.888 120.60977 
L 448.794 120.571718 
L 448.794 120.503225 
L 448.794 118.197274 
L 451.026 118.197274 
L 451.026 118.090728 
L 451.026 115.556465 
L 452.7 115.556465 
L 452.7 115.449919 
L 452.7 114.12571 
L 453.816 114.12571 
L 453.816 114.019164 
L 453.816 113.94306 
L 462.186 113.93545 
L 462.186 113.836514 
L 462.186 106.446816 
L 470.556 106.423985 
L 470.556 106.34027 
L 470.556 106.195673 
L 471.672 106.195673 
L 471.672 106.089127 
L 471.672 105.267204 
L 473.904 105.267204 
L 473.904 105.160658 
L 473.904 103.022136 
L 476.136 103.022136 
L 476.136 102.91559 
L 476.136 100.837951 
L 478.368 100.837951 
L 478.368 100.731406 
L 478.368 100.700964 
L 480.6 100.700964 
L 480.6 100.594418 
L 480.6 99.802937 
L 483.948 99.802937 
L 483.948 99.696391 
L 483.948 98.15909 
L 488.412 98.113428 
L 488.412 98.052545 
L 488.412 95.343242 
L 492.876 95.312801 
L 492.876 95.236697 
L 492.876 94.33867 
L 495.666 94.33867 
L 495.666 94.232124 
L 495.666 93.372149 
L 499.014 93.364538 
L 499.014 93.265603 
L 499.014 91.134691 
L 501.246 91.134691 
L 501.246 91.028146 
L 501.246 90.563911 
L 508.5 90.54869 
L 508.5 90.457366 
L 508.5 86.872867 
L 516.87 86.773932 
L 516.87 86.766322 
L 516.87 85.41167 
L 519.102 85.40406 
L 519.102 85.305125 
L 519.102 84.224448 
L 524.124 84.163565 
L 524.124 84.117902 
L 524.124 82.991563 
L 528.588 82.983953 
L 528.588 82.885018 
L 528.588 81.819562 
L 530.262 81.819562 
L 530.262 81.713016 
L 530.262 81.347717 
L 536.4 81.347717 
L 536.4 81.241171 
L 536.4 79.277688 
L 543.096 79.178753 
L 543.096 79.171142 
L 543.096 78.098076 
L 546.444 78.090466 
L 546.444 77.99153 
L 546.444 77.435971 
L 549.792 77.428361 
L 549.792 77.329426 
L 549.792 76.735814 
L 554.814 76.728204 
L 554.814 76.629269 
L 554.814 75.282228 
L 559.836 75.282228 
L 559.836 75.175682 
L 559.836 75.107189 
L 562.068 75.107189 
L 562.068 75.000643 
L 562.068 74.003681 
L 568.206 73.927577 
L 568.206 73.897135 
L 568.206 72.451159 
L 573.786 72.420718 
L 573.786 72.344614 
L 573.786 71.416145 
L 578.25 71.400924 
L 578.25 71.309599 
L 578.25 70.168039 
L 582.156 70.160429 
L 582.156 70.061494 
L 582.156 69.597259 
L 586.062 69.597259 
L 586.062 69.490714 
L 586.062 68.881882 
L 589.41 68.881882 
L 589.41 68.775336 
L 589.41 68.684011 
L 592.2 68.684011 
L 592.2 68.577466 
L 592.2 68.037127 
L 597.222 67.991465 
L 597.222 67.930582 
L 597.222 67.32175 
L 601.686 67.298918 
L 601.686 67.215204 
L 601.686 66.613982 
L 605.034 66.613982 
L 605.034 66.507437 
L 605.034 65.852942 
L 608.382 65.852942 
L 608.382 65.746397 
L 608.382 65.015798 
L 610.614 65.015798 
L 610.614 64.909253 
L 610.614 64.163434 
L 613.404 64.163434 
L 613.404 64.056888 
L 613.404 63.470887 
L 615.078 63.470887 
L 615.078 63.364342 
L 615.078 63.052315 
L 616.752 63.052315 
L 616.752 62.94577 
L 616.752 62.687016 
L 618.426 62.687016 
L 618.426 62.58047 
L 618.426 62.550029 
L 648 62.458704 
L 648 62.443483 
L 648 60.48 
L 648 60.48 
" clip-path="url(#p4e23768560)" style="fill: none; stroke: #1f77b4; stroke-width: 2.8; stroke-linecap: round"/>
   </g>
   <g id="patch_3">
    <path d="M 90 441 
L 90 60.48 
" style="fill: none; stroke: #262626; stroke-width: 1.25; stroke-linejoin: miter; stroke-linecap: square"/>
   </g>
   <g id="patch_4">
    <path d="M 648 441 
L 648 60.48 
" style="fill: none; stroke: #262626; stroke-width: 1.25; stroke-linejoin: miter; stroke-linecap: square"/>
   </g>
   <g id="patch_5">
    <path d="M 90 441 
L 648 441 
" style="fill: none; stroke: #262626; stroke-width: 1.25; stroke-linejoin: miter; stroke-linecap: square"/>
   </g>
   <g id="patch_6">
    <path d="M 90 60.48 
L 648 60.48 
" style="fill: none; stroke: #262626; stroke-width: 1.25; stroke-linejoin: miter; stroke-linecap: square"/>
   </g>
   <g id="text_15">
    <!-- Distribution of FCsp3 -->
    <g style="fill: #262626" transform="translate(252.294922 54.48)scale(0.25 -0.25)">
     <defs>
      <path id="ArialMT-44" d="M 494 0 
L 494 4581 
L 2072 4581 
Q 2606 4581 2888 4516 
Q 3281 4425 3559 4188 
Q 3922 3881 4101 3404 
Q 4281 2928 4281 2316 
Q 4281 1794 4159 1391 
Q 4038 988 3847 723 
Q 3656 459 3429 307 
Q 3203 156 2883 78 
Q 2563 0 2147 0 
L 494 0 
z
M 1100 541 
L 2078 541 
Q 2531 541 2789 625 
Q 3047 709 3200 863 
Q 3416 1078 3536 1442 
Q 3656 1806 3656 2325 
Q 3656 3044 3420 3430 
Q 3184 3816 2847 3947 
Q 2603 4041 2063 4041 
L 1100 4041 
L 1100 541 
z
" transform="scale(0.015625)"/>
      <path id="ArialMT-62" d="M 941 0 
L 419 0 
L 419 4581 
L 981 4581 
L 981 2947 
Q 1338 3394 1891 3394 
Q 2197 3394 2470 3270 
Q 2744 3147 2920 2923 
Q 3097 2700 3197 2384 
Q 3297 2069 3297 1709 
Q 3297 856 2875 390 
Q 2453 -75 1863 -75 
Q 1275 -75 941 416 
L 941 0 
z
M 934 1684 
Q 934 1088 1097 822 
Q 1363 388 1816 388 
Q 2184 388 2453 708 
Q 2722 1028 2722 1663 
Q 2722 2313 2464 2622 
Q 2206 2931 1841 2931 
Q 1472 2931 1203 2611 
Q 934 2291 934 1684 
z
" transform="scale(0.015625)"/>
      <path id="ArialMT-75" d="M 2597 0 
L 2597 488 
Q 2209 -75 1544 -75 
Q 1250 -75 995 37 
Q 741 150 617 320 
Q 494 491 444 738 
Q 409 903 409 1263 
L 409 3319 
L 972 3319 
L 972 1478 
Q 972 1038 1006 884 
Q 1059 663 1231 536 
Q 1403 409 1656 409 
Q 1909 409 2131 539 
Q 2353 669 2445 892 
Q 2538 1116 2538 1541 
L 2538 3319 
L 3100 3319 
L 3100 0 
L 2597 0 
z
" transform="scale(0.015625)"/>
      <path id="ArialMT-20" transform="scale(0.015625)"/>
      <path id="ArialMT-66" d="M 556 0 
L 556 2881 
L 59 2881 
L 59 3319 
L 556 3319 
L 556 3672 
Q 556 4006 616 4169 
Q 697 4388 901 4523 
Q 1106 4659 1475 4659 
Q 1713 4659 2000 4603 
L 1916 4113 
Q 1741 4144 1584 4144 
Q 1328 4144 1222 4034 
Q 1116 3925 1116 3625 
L 1116 3319 
L 1763 3319 
L 1763 2881 
L 1116 2881 
L 1116 0 
L 556 0 
z
" transform="scale(0.015625)"/>
     </defs>
     <use xlink:href="#ArialMT-44"/>
     <use xlink:href="#ArialMT-69" x="72.216797"/>
     <use xlink:href="#ArialMT-73" x="94.433594"/>
     <use xlink:href="#ArialMT-74" x="144.433594"/>
     <use xlink:href="#ArialMT-72" x="172.216797"/>
     <use xlink:href="#ArialMT-69" x="205.517578"/>
     <use xlink:href="#ArialMT-62" x="227.734375"/>
     <use xlink:href="#ArialMT-75" x="283.349609"/>
     <use xlink:href="#ArialMT-74" x="338.964844"/>
     <use xlink:href="#ArialMT-69" x="366.748047"/>
     <use xlink:href="#ArialMT-6f" x="388.964844"/>
     <use xlink:href="#ArialMT-6e" x="444.580078"/>
     <use xlink:href="#ArialMT-20" x="500.195312"/>
     <use xlink:href="#ArialMT-6f" x="527.978516"/>
     <use xlink:href="#ArialMT-66" x="583.59375"/>
     <use xlink:href="#ArialMT-20" x="611.376953"/>
     <use xlink:href="#ArialMT-46" x="639.160156"/>
     <use xlink:href="#ArialMT-43" x="700.244141"/>
     <use xlink:href="#ArialMT-73" x="772.460938"/>
     <use xlink:href="#ArialMT-70" x="822.460938"/>
     <use xlink:href="#ArialMT-33" x="878.076172"/>
    </g>
   </g>
   <g id="legend_1">
    <g id="text_16">
     <!-- DataSet -->
     <g style="fill: #262626" transform="translate(130.600781 88.295625)scale(0.2 -0.2)">
      <defs>
       <path id="ArialMT-61" d="M 2588 409 
Q 2275 144 1986 34 
Q 1697 -75 1366 -75 
Q 819 -75 525 192 
Q 231 459 231 875 
Q 231 1119 342 1320 
Q 453 1522 633 1644 
Q 813 1766 1038 1828 
Q 1203 1872 1538 1913 
Q 2219 1994 2541 2106 
Q 2544 2222 2544 2253 
Q 2544 2597 2384 2738 
Q 2169 2928 1744 2928 
Q 1347 2928 1158 2789 
Q 969 2650 878 2297 
L 328 2372 
Q 403 2725 575 2942 
Q 747 3159 1072 3276 
Q 1397 3394 1825 3394 
Q 2250 3394 2515 3294 
Q 2781 3194 2906 3042 
Q 3031 2891 3081 2659 
Q 3109 2516 3109 2141 
L 3109 1391 
Q 3109 606 3145 398 
Q 3181 191 3288 0 
L 2700 0 
Q 2613 175 2588 409 
z
M 2541 1666 
Q 2234 1541 1622 1453 
Q 1275 1403 1131 1340 
Q 988 1278 909 1158 
Q 831 1038 831 891 
Q 831 666 1001 516 
Q 1172 366 1500 366 
Q 1825 366 2078 508 
Q 2331 650 2450 897 
Q 2541 1088 2541 1459 
L 2541 1666 
z
" transform="scale(0.015625)"/>
       <path id="ArialMT-53" d="M 288 1472 
L 859 1522 
Q 900 1178 1048 958 
Q 1197 738 1509 602 
Q 1822 466 2213 466 
Q 2559 466 2825 569 
Q 3091 672 3220 851 
Q 3350 1031 3350 1244 
Q 3350 1459 3225 1620 
Q 3100 1781 2813 1891 
Q 2628 1963 1997 2114 
Q 1366 2266 1113 2400 
Q 784 2572 623 2826 
Q 463 3081 463 3397 
Q 463 3744 659 4045 
Q 856 4347 1234 4503 
Q 1613 4659 2075 4659 
Q 2584 4659 2973 4495 
Q 3363 4331 3572 4012 
Q 3781 3694 3797 3291 
L 3216 3247 
Q 3169 3681 2898 3903 
Q 2628 4125 2100 4125 
Q 1550 4125 1298 3923 
Q 1047 3722 1047 3438 
Q 1047 3191 1225 3031 
Q 1400 2872 2139 2705 
Q 2878 2538 3153 2413 
Q 3553 2228 3743 1945 
Q 3934 1663 3934 1294 
Q 3934 928 3725 604 
Q 3516 281 3123 101 
Q 2731 -78 2241 -78 
Q 1619 -78 1198 103 
Q 778 284 539 648 
Q 300 1013 288 1472 
z
" transform="scale(0.015625)"/>
       <path id="ArialMT-65" d="M 2694 1069 
L 3275 997 
Q 3138 488 2766 206 
Q 2394 -75 1816 -75 
Q 1088 -75 661 373 
Q 234 822 234 1631 
Q 234 2469 665 2931 
Q 1097 3394 1784 3394 
Q 2450 3394 2872 2941 
Q 3294 2488 3294 1666 
Q 3294 1616 3291 1516 
L 816 1516 
Q 847 969 1125 678 
Q 1403 388 1819 388 
Q 2128 388 2347 550 
Q 2566 713 2694 1069 
z
M 847 1978 
L 2700 1978 
Q 2663 2397 2488 2606 
Q 2219 2931 1791 2931 
Q 1403 2931 1139 2672 
Q 875 2413 847 1978 
z
" transform="scale(0.015625)"/>
      </defs>
      <use xlink:href="#ArialMT-44"/>
      <use xlink:href="#ArialMT-61" x="72.216797"/>
      <use xlink:href="#ArialMT-74" x="127.832031"/>
      <use xlink:href="#ArialMT-61" x="155.615234"/>
      <use xlink:href="#ArialMT-53" x="211.230469"/>
      <use xlink:href="#ArialMT-65" x="277.929688"/>
      <use xlink:href="#ArialMT-74" x="333.544922"/>
     </g>
    </g>
    <g id="line2d_17">
     <path d="M 103.5 105.257344 
L 118.5 105.257344 
L 118.5 105.257344 
L 133.5 105.257344 
L 133.5 105.257344 
" style="fill: none; stroke: #1f77b4; stroke-width: 2.8; stroke-linecap: round"/>
    </g>
    <g id="text_17">
     <!-- Enamine -->
     <g style="fill: #262626" transform="translate(145.5 110.507344)scale(0.15 -0.15)">
      <defs>
       <path id="ArialMT-45" d="M 506 0 
L 506 4581 
L 3819 4581 
L 3819 4041 
L 1113 4041 
L 1113 2638 
L 3647 2638 
L 3647 2100 
L 1113 2100 
L 1113 541 
L 3925 541 
L 3925 0 
L 506 0 
z
" transform="scale(0.015625)"/>
       <path id="ArialMT-6d" d="M 422 0 
L 422 3319 
L 925 3319 
L 925 2853 
Q 1081 3097 1340 3245 
Q 1600 3394 1931 3394 
Q 2300 3394 2536 3241 
Q 2772 3088 2869 2813 
Q 3263 3394 3894 3394 
Q 4388 3394 4653 3120 
Q 4919 2847 4919 2278 
L 4919 0 
L 4359 0 
L 4359 2091 
Q 4359 2428 4304 2576 
Q 4250 2725 4106 2815 
Q 3963 2906 3769 2906 
Q 3419 2906 3187 2673 
Q 2956 2441 2956 1928 
L 2956 0 
L 2394 0 
L 2394 2156 
Q 2394 2531 2256 2718 
Q 2119 2906 1806 2906 
Q 1569 2906 1367 2781 
Q 1166 2656 1075 2415 
Q 984 2175 984 1722 
L 984 0 
L 422 0 
z
" transform="scale(0.015625)"/>
      </defs>
      <use xlink:href="#ArialMT-45"/>
      <use xlink:href="#ArialMT-6e" x="66.699219"/>
      <use xlink:href="#ArialMT-61" x="122.314453"/>
      <use xlink:href="#ArialMT-6d" x="177.929688"/>
      <use xlink:href="#ArialMT-69" x="261.230469"/>
      <use xlink:href="#ArialMT-6e" x="283.447266"/>
      <use xlink:href="#ArialMT-65" x="339.0625"/>
     </g>
    </g>
    <g id="line2d_18">
     <path d="M 103.5 126.475313 
L 118.5 126.475313 
L 118.5 126.475313 
L 133.5 126.475313 
L 133.5 126.475313 
" style="fill: none; stroke: #ff7f0e; stroke-width: 2.8; stroke-linecap: round"/>
    </g>
    <g id="text_18">
     <!-- DrugBank -->
     <g style="fill: #262626" transform="translate(145.5 131.725313)scale(0.15 -0.15)">
      <defs>
       <path id="ArialMT-67" d="M 319 -275 
L 866 -356 
Q 900 -609 1056 -725 
Q 1266 -881 1628 -881 
Q 2019 -881 2231 -725 
Q 2444 -569 2519 -288 
Q 2563 -116 2559 434 
Q 2191 0 1641 0 
Q 956 0 581 494 
Q 206 988 206 1678 
Q 206 2153 378 2554 
Q 550 2956 876 3175 
Q 1203 3394 1644 3394 
Q 2231 3394 2613 2919 
L 2613 3319 
L 3131 3319 
L 3131 450 
Q 3131 -325 2973 -648 
Q 2816 -972 2473 -1159 
Q 2131 -1347 1631 -1347 
Q 1038 -1347 672 -1080 
Q 306 -813 319 -275 
z
M 784 1719 
Q 784 1066 1043 766 
Q 1303 466 1694 466 
Q 2081 466 2343 764 
Q 2606 1063 2606 1700 
Q 2606 2309 2336 2618 
Q 2066 2928 1684 2928 
Q 1309 2928 1046 2623 
Q 784 2319 784 1719 
z
" transform="scale(0.015625)"/>
       <path id="ArialMT-42" d="M 469 0 
L 469 4581 
L 2188 4581 
Q 2713 4581 3030 4442 
Q 3347 4303 3526 4014 
Q 3706 3725 3706 3409 
Q 3706 3116 3547 2856 
Q 3388 2597 3066 2438 
Q 3481 2316 3704 2022 
Q 3928 1728 3928 1328 
Q 3928 1006 3792 729 
Q 3656 453 3456 303 
Q 3256 153 2954 76 
Q 2653 0 2216 0 
L 469 0 
z
M 1075 2656 
L 2066 2656 
Q 2469 2656 2644 2709 
Q 2875 2778 2992 2937 
Q 3109 3097 3109 3338 
Q 3109 3566 3000 3739 
Q 2891 3913 2687 3977 
Q 2484 4041 1991 4041 
L 1075 4041 
L 1075 2656 
z
M 1075 541 
L 2216 541 
Q 2509 541 2628 563 
Q 2838 600 2978 687 
Q 3119 775 3209 942 
Q 3300 1109 3300 1328 
Q 3300 1584 3169 1773 
Q 3038 1963 2805 2039 
Q 2572 2116 2134 2116 
L 1075 2116 
L 1075 541 
z
" transform="scale(0.015625)"/>
       <path id="ArialMT-6b" d="M 425 0 
L 425 4581 
L 988 4581 
L 988 1969 
L 2319 3319 
L 3047 3319 
L 1778 2088 
L 3175 0 
L 2481 0 
L 1384 1697 
L 988 1316 
L 988 0 
L 425 0 
z
" transform="scale(0.015625)"/>
      </defs>
      <use xlink:href="#ArialMT-44"/>
      <use xlink:href="#ArialMT-72" x="72.216797"/>
      <use xlink:href="#ArialMT-75" x="105.517578"/>
      <use xlink:href="#ArialMT-67" x="161.132812"/>
      <use xlink:href="#ArialMT-42" x="216.748047"/>
      <use xlink:href="#ArialMT-61" x="283.447266"/>
      <use xlink:href="#ArialMT-6e" x="339.0625"/>
      <use xlink:href="#ArialMT-6b" x="394.677734"/>
     </g>
    </g>
    <g id="line2d_19">
     <path d="M 103.5 147.869063 
L 118.5 147.869063 
L 118.5 147.869063 
L 133.5 147.869063 
L 133.5 147.869063 
" style="fill: none; stroke: #2ca02c; stroke-width: 2.8; stroke-linecap: round"/>
    </g>
    <g id="text_19">
     <!-- ChEMBL NP -->
     <g style="fill: #262626" transform="translate(145.5 153.119063)scale(0.15 -0.15)">
      <defs>
       <path id="ArialMT-68" d="M 422 0 
L 422 4581 
L 984 4581 
L 984 2938 
Q 1378 3394 1978 3394 
Q 2347 3394 2619 3248 
Q 2891 3103 3008 2847 
Q 3125 2591 3125 2103 
L 3125 0 
L 2563 0 
L 2563 2103 
Q 2563 2525 2380 2717 
Q 2197 2909 1863 2909 
Q 1613 2909 1392 2779 
Q 1172 2650 1078 2428 
Q 984 2206 984 1816 
L 984 0 
L 422 0 
z
" transform="scale(0.015625)"/>
       <path id="ArialMT-4d" d="M 475 0 
L 475 4581 
L 1388 4581 
L 2472 1338 
Q 2622 884 2691 659 
Q 2769 909 2934 1394 
L 4031 4581 
L 4847 4581 
L 4847 0 
L 4263 0 
L 4263 3834 
L 2931 0 
L 2384 0 
L 1059 3900 
L 1059 0 
L 475 0 
z
" transform="scale(0.015625)"/>
       <path id="ArialMT-4c" d="M 469 0 
L 469 4581 
L 1075 4581 
L 1075 541 
L 3331 541 
L 3331 0 
L 469 0 
z
" transform="scale(0.015625)"/>
       <path id="ArialMT-4e" d="M 488 0 
L 488 4581 
L 1109 4581 
L 3516 984 
L 3516 4581 
L 4097 4581 
L 4097 0 
L 3475 0 
L 1069 3600 
L 1069 0 
L 488 0 
z
" transform="scale(0.015625)"/>
      </defs>
      <use xlink:href="#ArialMT-43"/>
      <use xlink:href="#ArialMT-68" x="72.216797"/>
      <use xlink:href="#ArialMT-45" x="127.832031"/>
      <use xlink:href="#ArialMT-4d" x="194.53125"/>
      <use xlink:href="#ArialMT-42" x="277.832031"/>
      <use xlink:href="#ArialMT-4c" x="344.53125"/>
      <use xlink:href="#ArialMT-20" x="396.396484"/>
      <use xlink:href="#ArialMT-4e" x="424.179688"/>
      <use xlink:href="#ArialMT-50" x="496.396484"/>
     </g>
    </g>
    <g id="line2d_20">
     <path d="M 103.5 169.087031 
L 118.5 169.087031 
L 118.5 169.087031 
L 133.5 169.087031 
L 133.5 169.087031 
" style="fill: none; stroke: #d62728; stroke-width: 2.8; stroke-linecap: round"/>
    </g>
    <g id="text_20">
     <!-- SmoAnta -->
     <g style="fill: #262626" transform="translate(145.5 174.337031)scale(0.15 -0.15)">
      <defs>
       <path id="ArialMT-41" d="M -9 0 
L 1750 4581 
L 2403 4581 
L 4278 0 
L 3588 0 
L 3053 1388 
L 1138 1388 
L 634 0 
L -9 0 
z
M 1313 1881 
L 2866 1881 
L 2388 3150 
Q 2169 3728 2063 4100 
Q 1975 3659 1816 3225 
L 1313 1881 
z
" transform="scale(0.015625)"/>
      </defs>
      <use xlink:href="#ArialMT-53"/>
      <use xlink:href="#ArialMT-6d" x="66.699219"/>
      <use xlink:href="#ArialMT-6f" x="150"/>
      <use xlink:href="#ArialMT-41" x="205.615234"/>
      <use xlink:href="#ArialMT-6e" x="272.314453"/>
      <use xlink:href="#ArialMT-74" x="327.929688"/>
      <use xlink:href="#ArialMT-61" x="355.712891"/>
     </g>
    </g>
   </g>
  </g>
 </g>
 <defs>
  <clipPath id="p4e23768560">
   <rect x="90" y="60.48" width="558" height="380.52"/>
  </clipPath>
 </defs>
</svg>
