<?xml version="1.0" encoding="utf-8" standalone="no"?>
<!DOCTYPE svg PUBLIC "-//W3C//DTD SVG 1.1//EN"
  "http://www.w3.org/Graphics/SVG/1.1/DTD/svg11.dtd">
<svg xmlns:xlink="http://www.w3.org/1999/xlink" width="720pt" height="504pt" viewBox="0 0 720 504" xmlns="http://www.w3.org/2000/svg" version="1.1">
 <metadata>
  <rdf:RDF xmlns:dc="http://purl.org/dc/elements/1.1/" xmlns:cc="http://creativecommons.org/ns#" xmlns:rdf="http://www.w3.org/1999/02/22-rdf-syntax-ns#">
   <cc:Work>
    <dc:type rdf:resource="http://purl.org/dc/dcmitype/StillImage"/>
    <dc:date>2022-04-08T12:19:13.409643</dc:date>
    <dc:format>image/svg+xml</dc:format>
    <dc:creator>
     <cc:Agent>
      <dc:title>Matplotlib v3.5.1, https://matplotlib.org/</dc:title>
     </cc:Agent>
    </dc:creator>
   </cc:Work>
  </rdf:RDF>
 </metadata>
 <defs>
  <style type="text/css">*{stroke-linejoin: round; stroke-linecap: butt}</style>
 </defs>
 <g id="figure_1">
  <g id="patch_1">
   <path d="M 0 504 
L 720 504 
L 720 0 
L 0 0 
z
" style="fill: #ffffff"/>
  </g>
  <g id="axes_1">
   <g id="patch_2">
    <path d="M 90 441 
L 648 441 
L 648 60.48 
L 90 60.48 
z
" style="fill: #ffffff"/>
   </g>
   <g id="matplotlib.axis_1">
    <g id="xtick_1">
     <g id="line2d_1"/>
     <g id="text_1">
      <!-- 0.0 -->
      <g style="fill: #262626" transform="translate(76.1 466.515625)scale(0.2 -0.2)">
       <defs>
        <path id="ArialMT-30" d="M 266 2259 
Q 266 3072 433 3567 
Q 600 4063 929 4331 
Q 1259 4600 1759 4600 
Q 2128 4600 2406 4451 
Q 2684 4303 2865 4023 
Q 3047 3744 3150 3342 
Q 3253 2941 3253 2259 
Q 3253 1453 3087 958 
Q 2922 463 2592 192 
Q 2263 -78 1759 -78 
Q 1097 -78 719 397 
Q 266 969 266 2259 
z
M 844 2259 
Q 844 1131 1108 757 
Q 1372 384 1759 384 
Q 2147 384 2411 759 
Q 2675 1134 2675 2259 
Q 2675 3391 2411 3762 
Q 2147 4134 1753 4134 
Q 1366 4134 1134 3806 
Q 844 3388 844 2259 
z
" transform="scale(0.015625)"/>
        <path id="ArialMT-2e" d="M 581 0 
L 581 641 
L 1222 641 
L 1222 0 
L 581 0 
z
" transform="scale(0.015625)"/>
       </defs>
       <use xlink:href="#ArialMT-30"/>
       <use xlink:href="#ArialMT-2e" x="55.615234"/>
       <use xlink:href="#ArialMT-30" x="83.398438"/>
      </g>
     </g>
    </g>
    <g id="xtick_2">
     <g id="line2d_2"/>
     <g id="text_2">
      <!-- 0.2 -->
      <g style="fill: #262626" transform="translate(187.7 466.515625)scale(0.2 -0.2)">
       <defs>
        <path id="ArialMT-32" d="M 3222 541 
L 3222 0 
L 194 0 
Q 188 203 259 391 
Q 375 700 629 1000 
Q 884 1300 1366 1694 
Q 2113 2306 2375 2664 
Q 2638 3022 2638 3341 
Q 2638 3675 2398 3904 
Q 2159 4134 1775 4134 
Q 1369 4134 1125 3890 
Q 881 3647 878 3216 
L 300 3275 
Q 359 3922 746 4261 
Q 1134 4600 1788 4600 
Q 2447 4600 2831 4234 
Q 3216 3869 3216 3328 
Q 3216 3053 3103 2787 
Q 2991 2522 2730 2228 
Q 2469 1934 1863 1422 
Q 1356 997 1212 845 
Q 1069 694 975 541 
L 3222 541 
z
" transform="scale(0.015625)"/>
       </defs>
       <use xlink:href="#ArialMT-30"/>
       <use xlink:href="#ArialMT-2e" x="55.615234"/>
       <use xlink:href="#ArialMT-32" x="83.398438"/>
      </g>
     </g>
    </g>
    <g id="xtick_3">
     <g id="line2d_3"/>
     <g id="text_3">
      <!-- 0.4 -->
      <g style="fill: #262626" transform="translate(299.3 466.515625)scale(0.2 -0.2)">
       <defs>
        <path id="ArialMT-34" d="M 2069 0 
L 2069 1097 
L 81 1097 
L 81 1613 
L 2172 4581 
L 2631 4581 
L 2631 1613 
L 3250 1613 
L 3250 1097 
L 2631 1097 
L 2631 0 
L 2069 0 
z
M 2069 1613 
L 2069 3678 
L 634 1613 
L 2069 1613 
z
" transform="scale(0.015625)"/>
       </defs>
       <use xlink:href="#ArialMT-30"/>
       <use xlink:href="#ArialMT-2e" x="55.615234"/>
       <use xlink:href="#ArialMT-34" x="83.398438"/>
      </g>
     </g>
    </g>
    <g id="xtick_4">
     <g id="line2d_4"/>
     <g id="text_4">
      <!-- 0.6 -->
      <g style="fill: #262626" transform="translate(410.9 466.515625)scale(0.2 -0.2)">
       <defs>
        <path id="ArialMT-36" d="M 3184 3459 
L 2625 3416 
Q 2550 3747 2413 3897 
Q 2184 4138 1850 4138 
Q 1581 4138 1378 3988 
Q 1113 3794 959 3422 
Q 806 3050 800 2363 
Q 1003 2672 1297 2822 
Q 1591 2972 1913 2972 
Q 2475 2972 2870 2558 
Q 3266 2144 3266 1488 
Q 3266 1056 3080 686 
Q 2894 316 2569 119 
Q 2244 -78 1831 -78 
Q 1128 -78 684 439 
Q 241 956 241 2144 
Q 241 3472 731 4075 
Q 1159 4600 1884 4600 
Q 2425 4600 2770 4297 
Q 3116 3994 3184 3459 
z
M 888 1484 
Q 888 1194 1011 928 
Q 1134 663 1356 523 
Q 1578 384 1822 384 
Q 2178 384 2434 671 
Q 2691 959 2691 1453 
Q 2691 1928 2437 2201 
Q 2184 2475 1800 2475 
Q 1419 2475 1153 2201 
Q 888 1928 888 1484 
z
" transform="scale(0.015625)"/>
       </defs>
       <use xlink:href="#ArialMT-30"/>
       <use xlink:href="#ArialMT-2e" x="55.615234"/>
       <use xlink:href="#ArialMT-36" x="83.398438"/>
      </g>
     </g>
    </g>
    <g id="xtick_5">
     <g id="line2d_5"/>
     <g id="text_5">
      <!-- 0.8 -->
      <g style="fill: #262626" transform="translate(522.5 466.515625)scale(0.2 -0.2)">
       <defs>
        <path id="ArialMT-38" d="M 1131 2484 
Q 781 2613 612 2850 
Q 444 3088 444 3419 
Q 444 3919 803 4259 
Q 1163 4600 1759 4600 
Q 2359 4600 2725 4251 
Q 3091 3903 3091 3403 
Q 3091 3084 2923 2848 
Q 2756 2613 2416 2484 
Q 2838 2347 3058 2040 
Q 3278 1734 3278 1309 
Q 3278 722 2862 322 
Q 2447 -78 1769 -78 
Q 1091 -78 675 323 
Q 259 725 259 1325 
Q 259 1772 486 2073 
Q 713 2375 1131 2484 
z
M 1019 3438 
Q 1019 3113 1228 2906 
Q 1438 2700 1772 2700 
Q 2097 2700 2305 2904 
Q 2513 3109 2513 3406 
Q 2513 3716 2298 3927 
Q 2084 4138 1766 4138 
Q 1444 4138 1231 3931 
Q 1019 3725 1019 3438 
z
M 838 1322 
Q 838 1081 952 856 
Q 1066 631 1291 507 
Q 1516 384 1775 384 
Q 2178 384 2440 643 
Q 2703 903 2703 1303 
Q 2703 1709 2433 1975 
Q 2163 2241 1756 2241 
Q 1359 2241 1098 1978 
Q 838 1716 838 1322 
z
" transform="scale(0.015625)"/>
       </defs>
       <use xlink:href="#ArialMT-30"/>
       <use xlink:href="#ArialMT-2e" x="55.615234"/>
       <use xlink:href="#ArialMT-38" x="83.398438"/>
      </g>
     </g>
    </g>
    <g id="xtick_6">
     <g id="line2d_6"/>
     <g id="text_6">
      <!-- 1.0 -->
      <g style="fill: #262626" transform="translate(634.1 466.515625)scale(0.2 -0.2)">
       <defs>
        <path id="ArialMT-31" d="M 2384 0 
L 1822 0 
L 1822 3584 
Q 1619 3391 1289 3197 
Q 959 3003 697 2906 
L 697 3450 
Q 1169 3672 1522 3987 
Q 1875 4303 2022 4600 
L 2384 4600 
L 2384 0 
z
" transform="scale(0.015625)"/>
       </defs>
       <use xlink:href="#ArialMT-31"/>
       <use xlink:href="#ArialMT-2e" x="55.615234"/>
       <use xlink:href="#ArialMT-30" x="83.398438"/>
      </g>
     </g>
    </g>
    <g id="text_7">
     <!-- QED -->
     <g style="fill: #262626" transform="translate(341.912109 492.385156)scale(0.25 -0.25)">
      <defs>
       <path id="ArialMT-51" d="M 3966 491 
Q 4388 200 4744 66 
L 4566 -356 
Q 4072 -178 3581 206 
Q 3072 -78 2456 -78 
Q 1834 -78 1328 222 
Q 822 522 548 1065 
Q 275 1609 275 2291 
Q 275 2969 550 3525 
Q 825 4081 1333 4372 
Q 1841 4663 2469 4663 
Q 3103 4663 3612 4361 
Q 4122 4059 4389 3517 
Q 4656 2975 4656 2294 
Q 4656 1728 4484 1276 
Q 4313 825 3966 491 
z
M 2631 1266 
Q 3156 1119 3497 828 
Q 4031 1316 4031 2294 
Q 4031 2850 3842 3265 
Q 3653 3681 3289 3911 
Q 2925 4141 2472 4141 
Q 1794 4141 1347 3677 
Q 900 3213 900 2291 
Q 900 1397 1342 919 
Q 1784 441 2472 441 
Q 2797 441 3084 563 
Q 2800 747 2484 825 
L 2631 1266 
z
" transform="scale(0.015625)"/>
       <path id="ArialMT-45" d="M 506 0 
L 506 4581 
L 3819 4581 
L 3819 4041 
L 1113 4041 
L 1113 2638 
L 3647 2638 
L 3647 2100 
L 1113 2100 
L 1113 541 
L 3925 541 
L 3925 0 
L 506 0 
z
" transform="scale(0.015625)"/>
       <path id="ArialMT-44" d="M 494 0 
L 494 4581 
L 2072 4581 
Q 2606 4581 2888 4516 
Q 3281 4425 3559 4188 
Q 3922 3881 4101 3404 
Q 4281 2928 4281 2316 
Q 4281 1794 4159 1391 
Q 4038 988 3847 723 
Q 3656 459 3429 307 
Q 3203 156 2883 78 
Q 2563 0 2147 0 
L 494 0 
z
M 1100 541 
L 2078 541 
Q 2531 541 2789 625 
Q 3047 709 3200 863 
Q 3416 1078 3536 1442 
Q 3656 1806 3656 2325 
Q 3656 3044 3420 3430 
Q 3184 3816 2847 3947 
Q 2603 4041 2063 4041 
L 1100 4041 
L 1100 541 
z
" transform="scale(0.015625)"/>
      </defs>
      <use xlink:href="#ArialMT-51"/>
      <use xlink:href="#ArialMT-45" x="77.783203"/>
      <use xlink:href="#ArialMT-44" x="144.482422"/>
     </g>
    </g>
   </g>
   <g id="matplotlib.axis_2">
    <g id="ytick_1">
     <g id="line2d_7"/>
     <g id="text_8">
      <!-- 0.0 -->
      <g style="fill: #262626" transform="translate(51 448.157812)scale(0.2 -0.2)">
       <use xlink:href="#ArialMT-30"/>
       <use xlink:href="#ArialMT-2e" x="55.615234"/>
       <use xlink:href="#ArialMT-30" x="83.398438"/>
      </g>
     </g>
    </g>
    <g id="ytick_2">
     <g id="line2d_8"/>
     <g id="text_9">
      <!-- 0.2 -->
      <g style="fill: #262626" transform="translate(51 372.053813)scale(0.2 -0.2)">
       <use xlink:href="#ArialMT-30"/>
       <use xlink:href="#ArialMT-2e" x="55.615234"/>
       <use xlink:href="#ArialMT-32" x="83.398438"/>
      </g>
     </g>
    </g>
    <g id="ytick_3">
     <g id="line2d_9"/>
     <g id="text_10">
      <!-- 0.4 -->
      <g style="fill: #262626" transform="translate(51 295.949813)scale(0.2 -0.2)">
       <use xlink:href="#ArialMT-30"/>
       <use xlink:href="#ArialMT-2e" x="55.615234"/>
       <use xlink:href="#ArialMT-34" x="83.398438"/>
      </g>
     </g>
    </g>
    <g id="ytick_4">
     <g id="line2d_10"/>
     <g id="text_11">
      <!-- 0.6 -->
      <g style="fill: #262626" transform="translate(51 219.845812)scale(0.2 -0.2)">
       <use xlink:href="#ArialMT-30"/>
       <use xlink:href="#ArialMT-2e" x="55.615234"/>
       <use xlink:href="#ArialMT-36" x="83.398438"/>
      </g>
     </g>
    </g>
    <g id="ytick_5">
     <g id="line2d_11"/>
     <g id="text_12">
      <!-- 0.8 -->
      <g style="fill: #262626" transform="translate(51 143.741812)scale(0.2 -0.2)">
       <use xlink:href="#ArialMT-30"/>
       <use xlink:href="#ArialMT-2e" x="55.615234"/>
       <use xlink:href="#ArialMT-38" x="83.398438"/>
      </g>
     </g>
    </g>
    <g id="ytick_6">
     <g id="line2d_12"/>
     <g id="text_13">
      <!-- 1.0 -->
      <g style="fill: #262626" transform="translate(51 67.637812)scale(0.2 -0.2)">
       <use xlink:href="#ArialMT-31"/>
       <use xlink:href="#ArialMT-2e" x="55.615234"/>
       <use xlink:href="#ArialMT-30" x="83.398438"/>
      </g>
     </g>
    </g>
    <g id="text_14">
     <!-- Proportion -->
     <g style="fill: #262626" transform="translate(42.03125 308.407969)rotate(-90)scale(0.25 -0.25)">
      <defs>
       <path id="ArialMT-50" d="M 494 0 
L 494 4581 
L 2222 4581 
Q 2678 4581 2919 4538 
Q 3256 4481 3484 4323 
Q 3713 4166 3852 3881 
Q 3991 3597 3991 3256 
Q 3991 2672 3619 2267 
Q 3247 1863 2275 1863 
L 1100 1863 
L 1100 0 
L 494 0 
z
M 1100 2403 
L 2284 2403 
Q 2872 2403 3119 2622 
Q 3366 2841 3366 3238 
Q 3366 3525 3220 3729 
Q 3075 3934 2838 4000 
Q 2684 4041 2272 4041 
L 1100 4041 
L 1100 2403 
z
" transform="scale(0.015625)"/>
       <path id="ArialMT-72" d="M 416 0 
L 416 3319 
L 922 3319 
L 922 2816 
Q 1116 3169 1280 3281 
Q 1444 3394 1641 3394 
Q 1925 3394 2219 3213 
L 2025 2691 
Q 1819 2813 1613 2813 
Q 1428 2813 1281 2702 
Q 1134 2591 1072 2394 
Q 978 2094 978 1738 
L 978 0 
L 416 0 
z
" transform="scale(0.015625)"/>
       <path id="ArialMT-6f" d="M 213 1659 
Q 213 2581 725 3025 
Q 1153 3394 1769 3394 
Q 2453 3394 2887 2945 
Q 3322 2497 3322 1706 
Q 3322 1066 3130 698 
Q 2938 331 2570 128 
Q 2203 -75 1769 -75 
Q 1072 -75 642 372 
Q 213 819 213 1659 
z
M 791 1659 
Q 791 1022 1069 705 
Q 1347 388 1769 388 
Q 2188 388 2466 706 
Q 2744 1025 2744 1678 
Q 2744 2294 2464 2611 
Q 2184 2928 1769 2928 
Q 1347 2928 1069 2612 
Q 791 2297 791 1659 
z
" transform="scale(0.015625)"/>
       <path id="ArialMT-70" d="M 422 -1272 
L 422 3319 
L 934 3319 
L 934 2888 
Q 1116 3141 1344 3267 
Q 1572 3394 1897 3394 
Q 2322 3394 2647 3175 
Q 2972 2956 3137 2557 
Q 3303 2159 3303 1684 
Q 3303 1175 3120 767 
Q 2938 359 2589 142 
Q 2241 -75 1856 -75 
Q 1575 -75 1351 44 
Q 1128 163 984 344 
L 984 -1272 
L 422 -1272 
z
M 931 1641 
Q 931 1000 1190 694 
Q 1450 388 1819 388 
Q 2194 388 2461 705 
Q 2728 1022 2728 1688 
Q 2728 2322 2467 2637 
Q 2206 2953 1844 2953 
Q 1484 2953 1207 2617 
Q 931 2281 931 1641 
z
" transform="scale(0.015625)"/>
       <path id="ArialMT-74" d="M 1650 503 
L 1731 6 
Q 1494 -44 1306 -44 
Q 1000 -44 831 53 
Q 663 150 594 308 
Q 525 466 525 972 
L 525 2881 
L 113 2881 
L 113 3319 
L 525 3319 
L 525 4141 
L 1084 4478 
L 1084 3319 
L 1650 3319 
L 1650 2881 
L 1084 2881 
L 1084 941 
Q 1084 700 1114 631 
Q 1144 563 1211 522 
Q 1278 481 1403 481 
Q 1497 481 1650 503 
z
" transform="scale(0.015625)"/>
       <path id="ArialMT-69" d="M 425 3934 
L 425 4581 
L 988 4581 
L 988 3934 
L 425 3934 
z
M 425 0 
L 425 3319 
L 988 3319 
L 988 0 
L 425 0 
z
" transform="scale(0.015625)"/>
       <path id="ArialMT-6e" d="M 422 0 
L 422 3319 
L 928 3319 
L 928 2847 
Q 1294 3394 1984 3394 
Q 2284 3394 2536 3286 
Q 2788 3178 2913 3003 
Q 3038 2828 3088 2588 
Q 3119 2431 3119 2041 
L 3119 0 
L 2556 0 
L 2556 2019 
Q 2556 2363 2490 2533 
Q 2425 2703 2258 2804 
Q 2091 2906 1866 2906 
Q 1506 2906 1245 2678 
Q 984 2450 984 1813 
L 984 0 
L 422 0 
z
" transform="scale(0.015625)"/>
      </defs>
      <use xlink:href="#ArialMT-50"/>
      <use xlink:href="#ArialMT-72" x="66.699219"/>
      <use xlink:href="#ArialMT-6f" x="100"/>
      <use xlink:href="#ArialMT-70" x="155.615234"/>
      <use xlink:href="#ArialMT-6f" x="211.230469"/>
      <use xlink:href="#ArialMT-72" x="266.845703"/>
      <use xlink:href="#ArialMT-74" x="300.146484"/>
      <use xlink:href="#ArialMT-69" x="327.929688"/>
      <use xlink:href="#ArialMT-6f" x="350.146484"/>
      <use xlink:href="#ArialMT-6e" x="405.761719"/>
     </g>
    </g>
   </g>
   <g id="line2d_13">
    <path d="M 434.844 441 
L 434.844 60.48 
" clip-path="url(#p83737e32f6)" style="fill: none; stroke: #ff7f0e; stroke-width: 2.8; stroke-linecap: round"/>
   </g>
   <g id="line2d_14">
    <path d="M 175.932 441 
L 175.932 440.381268 
L 178.722 440.381268 
L 178.722 439.762537 
L 183.744 439.762537 
L 183.744 438.525073 
L 184.302 438.525073 
L 184.302 437.906341 
L 185.418 437.906341 
L 185.418 437.28761 
L 190.998 437.28761 
L 190.998 436.668878 
L 194.346 436.668878 
L 194.346 436.050146 
L 202.716 436.050146 
L 202.716 434.812683 
L 204.39 434.812683 
L 204.39 434.193951 
L 206.622 434.193951 
L 206.622 432.337756 
L 209.97 432.337756 
L 209.97 431.719024 
L 211.086 431.719024 
L 211.086 429.244098 
L 212.76 429.244098 
L 212.76 428.625366 
L 214.992 428.625366 
L 214.992 428.006634 
L 216.108 428.006634 
L 216.108 427.387902 
L 216.666 427.387902 
L 216.666 426.150439 
L 217.224 426.150439 
L 217.224 425.531707 
L 218.34 425.531707 
L 218.34 424.294244 
L 218.898 424.294244 
L 218.898 423.675512 
L 222.246 423.675512 
L 222.246 421.819317 
L 223.362 421.819317 
L 223.362 420.581854 
L 224.478 420.581854 
L 224.478 419.963122 
L 226.152 419.963122 
L 226.152 419.34439 
L 230.058 419.34439 
L 230.058 418.725659 
L 232.29 418.725659 
L 232.29 418.106927 
L 232.848 418.106927 
L 232.848 417.488195 
L 233.406 417.488195 
L 233.406 416.869463 
L 235.08 416.869463 
L 235.08 414.394537 
L 238.428 414.394537 
L 238.428 413.775805 
L 241.218 413.775805 
L 241.218 411.91961 
L 242.334 411.91961 
L 242.334 410.682146 
L 242.892 410.682146 
L 242.892 409.444683 
L 244.008 409.444683 
L 244.008 408.825951 
L 244.566 408.825951 
L 244.566 408.20722 
L 245.124 408.20722 
L 245.124 407.588488 
L 246.798 407.588488 
L 246.798 406.969756 
L 249.588 406.969756 
L 249.588 406.351024 
L 251.262 406.351024 
L 251.262 404.494829 
L 252.378 404.494829 
L 252.378 403.876098 
L 252.936 403.876098 
L 252.936 402.638634 
L 253.494 402.638634 
L 253.494 401.401171 
L 254.052 401.401171 
L 254.052 400.163707 
L 254.61 400.163707 
L 254.61 399.544976 
L 255.726 399.544976 
L 255.726 398.926244 
L 256.842 398.926244 
L 256.842 397.68878 
L 257.958 397.68878 
L 257.958 397.070049 
L 258.516 397.070049 
L 258.516 396.451317 
L 259.074 396.451317 
L 259.074 395.213854 
L 259.632 395.213854 
L 259.632 393.97639 
L 260.748 393.97639 
L 260.748 393.357659 
L 261.306 393.357659 
L 261.306 390.882732 
L 262.98 390.882732 
L 262.98 389.645268 
L 264.654 389.645268 
L 264.654 389.026537 
L 265.212 389.026537 
L 265.212 385.932878 
L 265.77 385.932878 
L 265.77 385.314146 
L 266.886 385.314146 
L 266.886 384.695415 
L 268.002 384.695415 
L 268.002 384.076683 
L 269.118 384.076683 
L 269.118 382.83922 
L 269.676 382.83922 
L 269.676 382.220488 
L 270.234 382.220488 
L 270.234 381.601756 
L 270.792 381.601756 
L 270.792 380.983024 
L 271.908 380.983024 
L 271.908 380.364293 
L 273.582 380.364293 
L 273.582 379.745561 
L 274.698 379.745561 
L 274.698 379.126829 
L 275.814 379.126829 
L 275.814 377.889366 
L 276.93 377.889366 
L 276.93 377.270634 
L 278.046 377.270634 
L 278.046 376.651902 
L 278.604 376.651902 
L 278.604 376.033171 
L 283.068 376.033171 
L 283.068 374.795707 
L 283.626 374.795707 
L 283.626 374.176976 
L 284.742 374.176976 
L 284.742 373.558244 
L 285.3 373.558244 
L 285.3 372.939512 
L 285.858 372.939512 
L 285.858 372.32078 
L 286.974 372.32078 
L 286.974 370.464585 
L 288.648 370.464585 
L 288.648 369.227122 
L 289.206 369.227122 
L 289.206 368.60839 
L 290.322 368.60839 
L 290.322 367.989659 
L 290.88 367.989659 
L 290.88 367.370927 
L 292.554 367.370927 
L 292.554 366.752195 
L 294.786 366.752195 
L 294.786 366.133463 
L 295.344 366.133463 
L 295.344 365.514732 
L 295.902 365.514732 
L 295.902 364.277268 
L 297.576 364.277268 
L 297.576 363.658537 
L 298.692 363.658537 
L 298.692 363.039805 
L 299.25 363.039805 
L 299.25 361.18361 
L 299.808 361.18361 
L 299.808 360.564878 
L 300.924 360.564878 
L 300.924 359.946146 
L 302.04 359.946146 
L 302.04 359.327415 
L 302.598 359.327415 
L 302.598 358.708683 
L 303.156 358.708683 
L 303.156 357.47122 
L 303.714 357.47122 
L 303.714 356.233756 
L 304.272 356.233756 
L 304.272 355.615024 
L 309.852 355.615024 
L 309.852 354.996293 
L 310.968 354.996293 
L 310.968 354.377561 
L 311.526 354.377561 
L 311.526 351.902634 
L 312.084 351.902634 
L 312.084 350.665171 
L 312.642 350.665171 
L 312.642 349.427707 
L 313.2 349.427707 
L 313.2 348.190244 
L 313.758 348.190244 
L 313.758 347.571512 
L 314.316 347.571512 
L 314.316 345.715317 
L 315.432 345.715317 
L 315.432 344.477854 
L 315.99 344.477854 
L 315.99 342.002927 
L 317.106 342.002927 
L 317.106 341.384195 
L 318.222 341.384195 
L 318.222 340.765463 
L 318.78 340.765463 
L 318.78 340.146732 
L 319.896 340.146732 
L 319.896 338.909268 
L 320.454 338.909268 
L 320.454 338.290537 
L 321.012 338.290537 
L 321.012 337.671805 
L 322.686 337.671805 
L 322.686 337.053073 
L 323.244 337.053073 
L 323.244 333.340683 
L 323.802 333.340683 
L 323.802 332.721951 
L 324.918 332.721951 
L 324.918 332.10322 
L 325.476 332.10322 
L 325.476 331.484488 
L 326.034 331.484488 
L 326.034 330.247024 
L 326.592 330.247024 
L 326.592 329.628293 
L 327.15 329.628293 
L 327.15 329.009561 
L 327.708 329.009561 
L 327.708 327.153366 
L 328.266 327.153366 
L 328.266 326.534634 
L 329.382 326.534634 
L 329.382 325.915902 
L 331.056 325.915902 
L 331.056 323.440976 
L 332.172 323.440976 
L 332.172 322.203512 
L 332.73 322.203512 
L 332.73 321.58478 
L 333.846 321.58478 
L 333.846 320.966049 
L 334.404 320.966049 
L 334.404 320.347317 
L 334.962 320.347317 
L 334.962 319.109854 
L 336.078 319.109854 
L 336.078 316.634927 
L 336.636 316.634927 
L 336.636 316.016195 
L 337.194 316.016195 
L 337.194 314.778732 
L 338.868 314.778732 
L 338.868 313.541268 
L 339.426 313.541268 
L 339.426 309.210146 
L 339.984 309.210146 
L 339.984 306.73522 
L 341.1 306.73522 
L 341.1 306.116488 
L 341.658 306.116488 
L 341.658 305.497756 
L 342.216 305.497756 
L 342.216 304.260293 
L 342.774 304.260293 
L 342.774 302.404098 
L 344.448 302.404098 
L 344.448 301.785366 
L 345.564 301.785366 
L 345.564 300.547902 
L 346.122 300.547902 
L 346.122 299.929171 
L 347.238 299.929171 
L 347.238 298.691707 
L 347.796 298.691707 
L 347.796 298.072976 
L 349.47 298.072976 
L 349.47 295.598049 
L 350.028 295.598049 
L 350.028 294.360585 
L 350.586 294.360585 
L 350.586 293.741854 
L 351.144 293.741854 
L 351.144 292.50439 
L 351.702 292.50439 
L 351.702 291.266927 
L 352.26 291.266927 
L 352.26 290.029463 
L 352.818 290.029463 
L 352.818 288.792 
L 353.934 288.792 
L 353.934 286.317073 
L 355.05 286.317073 
L 355.05 285.698341 
L 355.608 285.698341 
L 355.608 285.07961 
L 356.166 285.07961 
L 356.166 284.460878 
L 356.724 284.460878 
L 356.724 281.985951 
L 357.282 281.985951 
L 357.282 281.36722 
L 358.398 281.36722 
L 358.398 280.748488 
L 358.956 280.748488 
L 358.956 275.798634 
L 359.514 275.798634 
L 359.514 272.704976 
L 360.072 272.704976 
L 360.072 272.086244 
L 360.63 272.086244 
L 360.63 270.230049 
L 361.188 270.230049 
L 361.188 269.611317 
L 362.304 269.611317 
L 362.304 265.898927 
L 362.862 265.898927 
L 362.862 262.805268 
L 363.42 262.805268 
L 363.42 259.71161 
L 363.978 259.71161 
L 363.978 258.474146 
L 364.536 258.474146 
L 364.536 257.855415 
L 365.094 257.855415 
L 365.094 254.761756 
L 365.652 254.761756 
L 365.652 252.905561 
L 366.21 252.905561 
L 366.21 250.430634 
L 366.768 250.430634 
L 366.768 249.193171 
L 367.326 249.193171 
L 367.326 247.336976 
L 367.884 247.336976 
L 367.884 245.48078 
L 368.442 245.48078 
L 368.442 244.243317 
L 369 244.243317 
L 369 243.624585 
L 369.558 243.624585 
L 369.558 242.387122 
L 370.116 242.387122 
L 370.116 239.912195 
L 370.674 239.912195 
L 370.674 238.056 
L 371.232 238.056 
L 371.232 234.962341 
L 371.79 234.962341 
L 371.79 234.34361 
L 372.348 234.34361 
L 372.348 233.724878 
L 372.906 233.724878 
L 372.906 233.106146 
L 374.022 233.106146 
L 374.022 231.868683 
L 374.58 231.868683 
L 374.58 231.249951 
L 375.138 231.249951 
L 375.138 221.968976 
L 375.696 221.968976 
L 375.696 220.11278 
L 376.254 220.11278 
L 376.254 214.544195 
L 376.812 214.544195 
L 376.812 212.688 
L 377.37 212.688 
L 377.37 211.450537 
L 377.928 211.450537 
L 377.928 210.831805 
L 379.044 210.831805 
L 379.044 209.594341 
L 379.602 209.594341 
L 379.602 208.356878 
L 380.16 208.356878 
L 380.16 207.738146 
L 380.718 207.738146 
L 380.718 206.500683 
L 381.276 206.500683 
L 381.276 205.26322 
L 381.834 205.26322 
L 381.834 204.644488 
L 382.392 204.644488 
L 382.392 202.788293 
L 382.95 202.788293 
L 382.95 201.550829 
L 383.508 201.550829 
L 383.508 199.694634 
L 384.624 199.694634 
L 384.624 197.838439 
L 385.182 197.838439 
L 385.182 196.600976 
L 385.74 196.600976 
L 385.74 194.74478 
L 386.298 194.74478 
L 386.298 194.126049 
L 386.856 194.126049 
L 386.856 192.269854 
L 387.414 192.269854 
L 387.414 190.413659 
L 387.972 190.413659 
L 387.972 189.176195 
L 388.53 189.176195 
L 388.53 186.701268 
L 389.088 186.701268 
L 389.088 184.845073 
L 389.646 184.845073 
L 389.646 184.226341 
L 390.204 184.226341 
L 390.204 183.60761 
L 391.32 183.60761 
L 391.32 181.751415 
L 392.436 181.751415 
L 392.436 181.132683 
L 392.994 181.132683 
L 392.994 178.039024 
L 393.552 178.039024 
L 393.552 177.420293 
L 394.668 177.420293 
L 394.668 174.945366 
L 396.342 174.945366 
L 396.342 174.326634 
L 397.458 174.326634 
L 397.458 171.851707 
L 399.132 171.851707 
L 399.132 170.614244 
L 399.69 170.614244 
L 399.69 169.37678 
L 400.248 169.37678 
L 400.248 167.520585 
L 400.806 167.520585 
L 400.806 165.66439 
L 401.364 165.66439 
L 401.364 165.045659 
L 401.922 165.045659 
L 401.922 164.426927 
L 403.038 164.426927 
L 403.038 163.808195 
L 403.596 163.808195 
L 403.596 161.952 
L 404.712 161.952 
L 404.712 161.333268 
L 405.27 161.333268 
L 405.27 159.477073 
L 405.828 159.477073 
L 405.828 157.620878 
L 406.944 157.620878 
L 406.944 157.002146 
L 407.502 157.002146 
L 407.502 155.764683 
L 409.176 155.764683 
L 409.176 155.145951 
L 410.85 155.145951 
L 410.85 154.52722 
L 411.966 154.52722 
L 411.966 152.052293 
L 412.524 152.052293 
L 412.524 151.433561 
L 413.64 151.433561 
L 413.64 149.577366 
L 414.198 149.577366 
L 414.198 147.721171 
L 415.314 147.721171 
L 415.314 146.483707 
L 415.872 146.483707 
L 415.872 145.246244 
L 416.988 145.246244 
L 416.988 144.00878 
L 417.546 144.00878 
L 417.546 142.771317 
L 418.662 142.771317 
L 418.662 141.533854 
L 419.22 141.533854 
L 419.22 140.29639 
L 420.336 140.29639 
L 420.336 138.440195 
L 420.894 138.440195 
L 420.894 136.584 
L 421.452 136.584 
L 421.452 135.346537 
L 423.126 135.346537 
L 423.126 134.727805 
L 423.684 134.727805 
L 423.684 134.109073 
L 424.8 134.109073 
L 424.8 132.252878 
L 425.916 132.252878 
L 425.916 130.396683 
L 427.032 130.396683 
L 427.032 129.777951 
L 427.59 129.777951 
L 427.59 129.15922 
L 428.148 129.15922 
L 428.148 128.540488 
L 428.706 128.540488 
L 428.706 127.303024 
L 429.264 127.303024 
L 429.264 126.684293 
L 429.822 126.684293 
L 429.822 122.353171 
L 430.38 122.353171 
L 430.38 121.734439 
L 431.496 121.734439 
L 431.496 121.115707 
L 432.054 121.115707 
L 432.054 120.496976 
L 433.17 120.496976 
L 433.17 119.878244 
L 434.286 119.878244 
L 434.286 118.64078 
L 435.402 118.64078 
L 435.402 117.403317 
L 435.96 117.403317 
L 435.96 116.784585 
L 436.518 116.784585 
L 436.518 114.309659 
L 437.634 114.309659 
L 437.634 113.072195 
L 438.75 113.072195 
L 438.75 112.453463 
L 442.098 112.453463 
L 442.098 111.216 
L 443.214 111.216 
L 443.214 109.978537 
L 443.772 109.978537 
L 443.772 109.359805 
L 444.33 109.359805 
L 444.33 108.741073 
L 445.446 108.741073 
L 445.446 108.122341 
L 446.004 108.122341 
L 446.004 107.50361 
L 446.562 107.50361 
L 446.562 106.884878 
L 449.352 106.884878 
L 449.352 106.266146 
L 451.026 106.266146 
L 451.026 105.647415 
L 451.584 105.647415 
L 451.584 104.409951 
L 452.142 104.409951 
L 452.142 103.172488 
L 453.816 103.172488 
L 453.816 102.553756 
L 454.374 102.553756 
L 454.374 101.316293 
L 455.49 101.316293 
L 455.49 100.078829 
L 456.048 100.078829 
L 456.048 99.460098 
L 456.606 99.460098 
L 456.606 96.985171 
L 457.164 96.985171 
L 457.164 95.747707 
L 458.28 95.747707 
L 458.28 93.27278 
L 459.396 93.27278 
L 459.396 91.416585 
L 460.512 91.416585 
L 460.512 90.179122 
L 462.186 90.179122 
L 462.186 89.56039 
L 462.744 89.56039 
L 462.744 88.941659 
L 463.302 88.941659 
L 463.302 87.704195 
L 464.976 87.704195 
L 464.976 87.085463 
L 466.092 87.085463 
L 466.092 85.848 
L 466.65 85.848 
L 466.65 85.229268 
L 467.208 85.229268 
L 467.208 84.610537 
L 467.766 84.610537 
L 467.766 83.373073 
L 468.324 83.373073 
L 468.324 82.13561 
L 469.44 82.13561 
L 469.44 81.516878 
L 469.998 81.516878 
L 469.998 80.898146 
L 470.556 80.898146 
L 470.556 80.279415 
L 472.23 80.279415 
L 472.23 79.660683 
L 474.462 79.660683 
L 474.462 79.041951 
L 475.02 79.041951 
L 475.02 77.804488 
L 482.274 77.804488 
L 482.274 77.185756 
L 482.832 77.185756 
L 482.832 76.567024 
L 483.39 76.567024 
L 483.39 74.092098 
L 484.506 74.092098 
L 484.506 73.473366 
L 487.296 73.473366 
L 487.296 72.854634 
L 487.854 72.854634 
L 487.854 72.235902 
L 490.086 72.235902 
L 490.086 70.998439 
L 493.992 70.998439 
L 493.992 70.379707 
L 494.55 70.379707 
L 494.55 69.760976 
L 496.224 69.760976 
L 496.224 69.142244 
L 497.898 69.142244 
L 497.898 67.90478 
L 500.688 67.90478 
L 500.688 67.286049 
L 505.71 67.286049 
L 505.71 66.667317 
L 518.544 66.667317 
L 518.544 66.048585 
L 522.45 66.048585 
L 522.45 65.429854 
L 529.146 65.429854 
L 529.146 64.811122 
L 532.494 64.811122 
L 532.494 64.19239 
L 535.284 64.19239 
L 535.284 63.573659 
L 536.958 63.573659 
L 536.958 62.954927 
L 537.516 62.954927 
L 537.516 62.336195 
L 538.074 62.336195 
L 538.074 61.717463 
L 542.538 61.717463 
L 542.538 61.098732 
L 555.372 61.098732 
L 555.372 60.48 
L 555.372 60.48 
" clip-path="url(#p83737e32f6)" style="fill: none; stroke: #1f77b4; stroke-width: 2.8; stroke-linecap: round"/>
   </g>
   <g id="patch_3">
    <path d="M 90 441 
L 90 60.48 
" style="fill: none; stroke: #262626; stroke-width: 1.25; stroke-linejoin: miter; stroke-linecap: square"/>
   </g>
   <g id="patch_4">
    <path d="M 648 441 
L 648 60.48 
" style="fill: none; stroke: #262626; stroke-width: 1.25; stroke-linejoin: miter; stroke-linecap: square"/>
   </g>
   <g id="patch_5">
    <path d="M 90 441 
L 648 441 
" style="fill: none; stroke: #262626; stroke-width: 1.25; stroke-linejoin: miter; stroke-linecap: square"/>
   </g>
   <g id="patch_6">
    <path d="M 90 60.48 
L 648 60.48 
" style="fill: none; stroke: #262626; stroke-width: 1.25; stroke-linejoin: miter; stroke-linecap: square"/>
   </g>
   <g id="text_15">
    <!-- Distribution of QED -->
    <g style="fill: #262626" transform="translate(262.021484 54.48)scale(0.25 -0.25)">
     <defs>
      <path id="ArialMT-73" d="M 197 991 
L 753 1078 
Q 800 744 1014 566 
Q 1228 388 1613 388 
Q 2000 388 2187 545 
Q 2375 703 2375 916 
Q 2375 1106 2209 1216 
Q 2094 1291 1634 1406 
Q 1016 1563 777 1677 
Q 538 1791 414 1992 
Q 291 2194 291 2438 
Q 291 2659 392 2848 
Q 494 3038 669 3163 
Q 800 3259 1026 3326 
Q 1253 3394 1513 3394 
Q 1903 3394 2198 3281 
Q 2494 3169 2634 2976 
Q 2775 2784 2828 2463 
L 2278 2388 
Q 2241 2644 2061 2787 
Q 1881 2931 1553 2931 
Q 1166 2931 1000 2803 
Q 834 2675 834 2503 
Q 834 2394 903 2306 
Q 972 2216 1119 2156 
Q 1203 2125 1616 2013 
Q 2213 1853 2448 1751 
Q 2684 1650 2818 1456 
Q 2953 1263 2953 975 
Q 2953 694 2789 445 
Q 2625 197 2315 61 
Q 2006 -75 1616 -75 
Q 969 -75 630 194 
Q 291 463 197 991 
z
" transform="scale(0.015625)"/>
      <path id="ArialMT-62" d="M 941 0 
L 419 0 
L 419 4581 
L 981 4581 
L 981 2947 
Q 1338 3394 1891 3394 
Q 2197 3394 2470 3270 
Q 2744 3147 2920 2923 
Q 3097 2700 3197 2384 
Q 3297 2069 3297 1709 
Q 3297 856 2875 390 
Q 2453 -75 1863 -75 
Q 1275 -75 941 416 
L 941 0 
z
M 934 1684 
Q 934 1088 1097 822 
Q 1363 388 1816 388 
Q 2184 388 2453 708 
Q 2722 1028 2722 1663 
Q 2722 2313 2464 2622 
Q 2206 2931 1841 2931 
Q 1472 2931 1203 2611 
Q 934 2291 934 1684 
z
" transform="scale(0.015625)"/>
      <path id="ArialMT-75" d="M 2597 0 
L 2597 488 
Q 2209 -75 1544 -75 
Q 1250 -75 995 37 
Q 741 150 617 320 
Q 494 491 444 738 
Q 409 903 409 1263 
L 409 3319 
L 972 3319 
L 972 1478 
Q 972 1038 1006 884 
Q 1059 663 1231 536 
Q 1403 409 1656 409 
Q 1909 409 2131 539 
Q 2353 669 2445 892 
Q 2538 1116 2538 1541 
L 2538 3319 
L 3100 3319 
L 3100 0 
L 2597 0 
z
" transform="scale(0.015625)"/>
      <path id="ArialMT-20" transform="scale(0.015625)"/>
      <path id="ArialMT-66" d="M 556 0 
L 556 2881 
L 59 2881 
L 59 3319 
L 556 3319 
L 556 3672 
Q 556 4006 616 4169 
Q 697 4388 901 4523 
Q 1106 4659 1475 4659 
Q 1713 4659 2000 4603 
L 1916 4113 
Q 1741 4144 1584 4144 
Q 1328 4144 1222 4034 
Q 1116 3925 1116 3625 
L 1116 3319 
L 1763 3319 
L 1763 2881 
L 1116 2881 
L 1116 0 
L 556 0 
z
" transform="scale(0.015625)"/>
     </defs>
     <use xlink:href="#ArialMT-44"/>
     <use xlink:href="#ArialMT-69" x="72.216797"/>
     <use xlink:href="#ArialMT-73" x="94.433594"/>
     <use xlink:href="#ArialMT-74" x="144.433594"/>
     <use xlink:href="#ArialMT-72" x="172.216797"/>
     <use xlink:href="#ArialMT-69" x="205.517578"/>
     <use xlink:href="#ArialMT-62" x="227.734375"/>
     <use xlink:href="#ArialMT-75" x="283.349609"/>
     <use xlink:href="#ArialMT-74" x="338.964844"/>
     <use xlink:href="#ArialMT-69" x="366.748047"/>
     <use xlink:href="#ArialMT-6f" x="388.964844"/>
     <use xlink:href="#ArialMT-6e" x="444.580078"/>
     <use xlink:href="#ArialMT-20" x="500.195312"/>
     <use xlink:href="#ArialMT-6f" x="527.978516"/>
     <use xlink:href="#ArialMT-66" x="583.59375"/>
     <use xlink:href="#ArialMT-20" x="611.376953"/>
     <use xlink:href="#ArialMT-51" x="639.160156"/>
     <use xlink:href="#ArialMT-45" x="716.943359"/>
     <use xlink:href="#ArialMT-44" x="783.642578"/>
    </g>
   </g>
   <g id="legend_1">
    <g id="text_16">
     <!-- CpdClass -->
     <g style="fill: #262626" transform="translate(539.303125 88.539375)scale(0.2 -0.2)">
      <defs>
       <path id="ArialMT-43" d="M 3763 1606 
L 4369 1453 
Q 4178 706 3683 314 
Q 3188 -78 2472 -78 
Q 1731 -78 1267 223 
Q 803 525 561 1097 
Q 319 1669 319 2325 
Q 319 3041 592 3573 
Q 866 4106 1370 4382 
Q 1875 4659 2481 4659 
Q 3169 4659 3637 4309 
Q 4106 3959 4291 3325 
L 3694 3184 
Q 3534 3684 3231 3912 
Q 2928 4141 2469 4141 
Q 1941 4141 1586 3887 
Q 1231 3634 1087 3207 
Q 944 2781 944 2328 
Q 944 1744 1114 1308 
Q 1284 872 1643 656 
Q 2003 441 2422 441 
Q 2931 441 3284 734 
Q 3638 1028 3763 1606 
z
" transform="scale(0.015625)"/>
       <path id="ArialMT-64" d="M 2575 0 
L 2575 419 
Q 2259 -75 1647 -75 
Q 1250 -75 917 144 
Q 584 363 401 755 
Q 219 1147 219 1656 
Q 219 2153 384 2558 
Q 550 2963 881 3178 
Q 1213 3394 1622 3394 
Q 1922 3394 2156 3267 
Q 2391 3141 2538 2938 
L 2538 4581 
L 3097 4581 
L 3097 0 
L 2575 0 
z
M 797 1656 
Q 797 1019 1065 703 
Q 1334 388 1700 388 
Q 2069 388 2326 689 
Q 2584 991 2584 1609 
Q 2584 2291 2321 2609 
Q 2059 2928 1675 2928 
Q 1300 2928 1048 2622 
Q 797 2316 797 1656 
z
" transform="scale(0.015625)"/>
       <path id="ArialMT-6c" d="M 409 0 
L 409 4581 
L 972 4581 
L 972 0 
L 409 0 
z
" transform="scale(0.015625)"/>
       <path id="ArialMT-61" d="M 2588 409 
Q 2275 144 1986 34 
Q 1697 -75 1366 -75 
Q 819 -75 525 192 
Q 231 459 231 875 
Q 231 1119 342 1320 
Q 453 1522 633 1644 
Q 813 1766 1038 1828 
Q 1203 1872 1538 1913 
Q 2219 1994 2541 2106 
Q 2544 2222 2544 2253 
Q 2544 2597 2384 2738 
Q 2169 2928 1744 2928 
Q 1347 2928 1158 2789 
Q 969 2650 878 2297 
L 328 2372 
Q 403 2725 575 2942 
Q 747 3159 1072 3276 
Q 1397 3394 1825 3394 
Q 2250 3394 2515 3294 
Q 2781 3194 2906 3042 
Q 3031 2891 3081 2659 
Q 3109 2516 3109 2141 
L 3109 1391 
Q 3109 606 3145 398 
Q 3181 191 3288 0 
L 2700 0 
Q 2613 175 2588 409 
z
M 2541 1666 
Q 2234 1541 1622 1453 
Q 1275 1403 1131 1340 
Q 988 1278 909 1158 
Q 831 1038 831 891 
Q 831 666 1001 516 
Q 1172 366 1500 366 
Q 1825 366 2078 508 
Q 2331 650 2450 897 
Q 2541 1088 2541 1459 
L 2541 1666 
z
" transform="scale(0.015625)"/>
      </defs>
      <use xlink:href="#ArialMT-43"/>
      <use xlink:href="#ArialMT-70" x="72.216797"/>
      <use xlink:href="#ArialMT-64" x="127.832031"/>
      <use xlink:href="#ArialMT-43" x="183.447266"/>
      <use xlink:href="#ArialMT-6c" x="255.664062"/>
      <use xlink:href="#ArialMT-61" x="277.880859"/>
      <use xlink:href="#ArialMT-73" x="333.496094"/>
      <use xlink:href="#ArialMT-73" x="383.496094"/>
     </g>
    </g>
    <g id="line2d_15">
     <path d="M 530.803125 105.501094 
L 545.803125 105.501094 
L 545.803125 105.501094 
L 560.803125 105.501094 
L 560.803125 105.501094 
" style="fill: none; stroke: #1f77b4; stroke-width: 2.8; stroke-linecap: round"/>
    </g>
    <g id="text_17">
     <!-- SmoAnta -->
     <g style="fill: #262626" transform="translate(572.803125 110.751094)scale(0.15 -0.15)">
      <defs>
       <path id="ArialMT-53" d="M 288 1472 
L 859 1522 
Q 900 1178 1048 958 
Q 1197 738 1509 602 
Q 1822 466 2213 466 
Q 2559 466 2825 569 
Q 3091 672 3220 851 
Q 3350 1031 3350 1244 
Q 3350 1459 3225 1620 
Q 3100 1781 2813 1891 
Q 2628 1963 1997 2114 
Q 1366 2266 1113 2400 
Q 784 2572 623 2826 
Q 463 3081 463 3397 
Q 463 3744 659 4045 
Q 856 4347 1234 4503 
Q 1613 4659 2075 4659 
Q 2584 4659 2973 4495 
Q 3363 4331 3572 4012 
Q 3781 3694 3797 3291 
L 3216 3247 
Q 3169 3681 2898 3903 
Q 2628 4125 2100 4125 
Q 1550 4125 1298 3923 
Q 1047 3722 1047 3438 
Q 1047 3191 1225 3031 
Q 1400 2872 2139 2705 
Q 2878 2538 3153 2413 
Q 3553 2228 3743 1945 
Q 3934 1663 3934 1294 
Q 3934 928 3725 604 
Q 3516 281 3123 101 
Q 2731 -78 2241 -78 
Q 1619 -78 1198 103 
Q 778 284 539 648 
Q 300 1013 288 1472 
z
" transform="scale(0.015625)"/>
       <path id="ArialMT-6d" d="M 422 0 
L 422 3319 
L 925 3319 
L 925 2853 
Q 1081 3097 1340 3245 
Q 1600 3394 1931 3394 
Q 2300 3394 2536 3241 
Q 2772 3088 2869 2813 
Q 3263 3394 3894 3394 
Q 4388 3394 4653 3120 
Q 4919 2847 4919 2278 
L 4919 0 
L 4359 0 
L 4359 2091 
Q 4359 2428 4304 2576 
Q 4250 2725 4106 2815 
Q 3963 2906 3769 2906 
Q 3419 2906 3187 2673 
Q 2956 2441 2956 1928 
L 2956 0 
L 2394 0 
L 2394 2156 
Q 2394 2531 2256 2718 
Q 2119 2906 1806 2906 
Q 1569 2906 1367 2781 
Q 1166 2656 1075 2415 
Q 984 2175 984 1722 
L 984 0 
L 422 0 
z
" transform="scale(0.015625)"/>
       <path id="ArialMT-41" d="M -9 0 
L 1750 4581 
L 2403 4581 
L 4278 0 
L 3588 0 
L 3053 1388 
L 1138 1388 
L 634 0 
L -9 0 
z
M 1313 1881 
L 2866 1881 
L 2388 3150 
Q 2169 3728 2063 4100 
Q 1975 3659 1816 3225 
L 1313 1881 
z
" transform="scale(0.015625)"/>
      </defs>
      <use xlink:href="#ArialMT-53"/>
      <use xlink:href="#ArialMT-6d" x="66.699219"/>
      <use xlink:href="#ArialMT-6f" x="150"/>
      <use xlink:href="#ArialMT-41" x="205.615234"/>
      <use xlink:href="#ArialMT-6e" x="272.314453"/>
      <use xlink:href="#ArialMT-74" x="327.929688"/>
      <use xlink:href="#ArialMT-61" x="355.712891"/>
     </g>
    </g>
    <g id="line2d_16">
     <path d="M 530.803125 126.719063 
L 545.803125 126.719063 
L 545.803125 126.719063 
L 560.803125 126.719063 
L 560.803125 126.719063 
" style="fill: none; stroke: #ff7f0e; stroke-width: 2.8; stroke-linecap: round"/>
    </g>
    <g id="text_18">
     <!-- PNP -->
     <g style="fill: #262626" transform="translate(572.803125 131.969063)scale(0.15 -0.15)">
      <defs>
       <path id="ArialMT-4e" d="M 488 0 
L 488 4581 
L 1109 4581 
L 3516 984 
L 3516 4581 
L 4097 4581 
L 4097 0 
L 3475 0 
L 1069 3600 
L 1069 0 
L 488 0 
z
" transform="scale(0.015625)"/>
      </defs>
      <use xlink:href="#ArialMT-50"/>
      <use xlink:href="#ArialMT-4e" x="66.699219"/>
      <use xlink:href="#ArialMT-50" x="138.916016"/>
     </g>
    </g>
   </g>
  </g>
 </g>
 <defs>
  <clipPath id="p83737e32f6">
   <rect x="90" y="60.48" width="558" height="380.52"/>
  </clipPath>
 </defs>
</svg>
