<?xml version="1.0" encoding="utf-8" standalone="no"?>
<!DOCTYPE svg PUBLIC "-//W3C//DTD SVG 1.1//EN"
  "http://www.w3.org/Graphics/SVG/1.1/DTD/svg11.dtd">
<svg xmlns:xlink="http://www.w3.org/1999/xlink" width="720pt" height="504pt" viewBox="0 0 720 504" xmlns="http://www.w3.org/2000/svg" version="1.1">
 <metadata>
  <rdf:RDF xmlns:dc="http://purl.org/dc/elements/1.1/" xmlns:cc="http://creativecommons.org/ns#" xmlns:rdf="http://www.w3.org/1999/02/22-rdf-syntax-ns#">
   <cc:Work>
    <dc:type rdf:resource="http://purl.org/dc/dcmitype/StillImage"/>
    <dc:date>2022-04-29T12:56:23.713043</dc:date>
    <dc:format>image/svg+xml</dc:format>
    <dc:creator>
     <cc:Agent>
      <dc:title>Matplotlib v3.5.1, https://matplotlib.org/</dc:title>
     </cc:Agent>
    </dc:creator>
   </cc:Work>
  </rdf:RDF>
 </metadata>
 <defs>
  <style type="text/css">*{stroke-linejoin: round; stroke-linecap: butt}</style>
 </defs>
 <g id="figure_1">
  <g id="patch_1">
   <path d="M 0 504 
L 720 504 
L 720 0 
L 0 0 
z
" style="fill: #ffffff"/>
  </g>
  <g id="axes_1">
   <g id="patch_2">
    <path d="M 90 441 
L 648 441 
L 648 60.48 
L 90 60.48 
z
" style="fill: #ffffff"/>
   </g>
   <g id="matplotlib.axis_1">
    <g id="xtick_1">
     <g id="line2d_1"/>
     <g id="text_1">
      <!-- 0.0 -->
      <g style="fill: #262626" transform="translate(76.1 466.515625)scale(0.2 -0.2)">
       <defs>
        <path id="ArialMT-30" d="M 266 2259 
Q 266 3072 433 3567 
Q 600 4063 929 4331 
Q 1259 4600 1759 4600 
Q 2128 4600 2406 4451 
Q 2684 4303 2865 4023 
Q 3047 3744 3150 3342 
Q 3253 2941 3253 2259 
Q 3253 1453 3087 958 
Q 2922 463 2592 192 
Q 2263 -78 1759 -78 
Q 1097 -78 719 397 
Q 266 969 266 2259 
z
M 844 2259 
Q 844 1131 1108 757 
Q 1372 384 1759 384 
Q 2147 384 2411 759 
Q 2675 1134 2675 2259 
Q 2675 3391 2411 3762 
Q 2147 4134 1753 4134 
Q 1366 4134 1134 3806 
Q 844 3388 844 2259 
z
" transform="scale(0.015625)"/>
        <path id="ArialMT-2e" d="M 581 0 
L 581 641 
L 1222 641 
L 1222 0 
L 581 0 
z
" transform="scale(0.015625)"/>
       </defs>
       <use xlink:href="#ArialMT-30"/>
       <use xlink:href="#ArialMT-2e" x="55.615234"/>
       <use xlink:href="#ArialMT-30" x="83.398438"/>
      </g>
     </g>
    </g>
    <g id="xtick_2">
     <g id="line2d_2"/>
     <g id="text_2">
      <!-- 0.2 -->
      <g style="fill: #262626" transform="translate(187.7 466.515625)scale(0.2 -0.2)">
       <defs>
        <path id="ArialMT-32" d="M 3222 541 
L 3222 0 
L 194 0 
Q 188 203 259 391 
Q 375 700 629 1000 
Q 884 1300 1366 1694 
Q 2113 2306 2375 2664 
Q 2638 3022 2638 3341 
Q 2638 3675 2398 3904 
Q 2159 4134 1775 4134 
Q 1369 4134 1125 3890 
Q 881 3647 878 3216 
L 300 3275 
Q 359 3922 746 4261 
Q 1134 4600 1788 4600 
Q 2447 4600 2831 4234 
Q 3216 3869 3216 3328 
Q 3216 3053 3103 2787 
Q 2991 2522 2730 2228 
Q 2469 1934 1863 1422 
Q 1356 997 1212 845 
Q 1069 694 975 541 
L 3222 541 
z
" transform="scale(0.015625)"/>
       </defs>
       <use xlink:href="#ArialMT-30"/>
       <use xlink:href="#ArialMT-2e" x="55.615234"/>
       <use xlink:href="#ArialMT-32" x="83.398438"/>
      </g>
     </g>
    </g>
    <g id="xtick_3">
     <g id="line2d_3"/>
     <g id="text_3">
      <!-- 0.4 -->
      <g style="fill: #262626" transform="translate(299.3 466.515625)scale(0.2 -0.2)">
       <defs>
        <path id="ArialMT-34" d="M 2069 0 
L 2069 1097 
L 81 1097 
L 81 1613 
L 2172 4581 
L 2631 4581 
L 2631 1613 
L 3250 1613 
L 3250 1097 
L 2631 1097 
L 2631 0 
L 2069 0 
z
M 2069 1613 
L 2069 3678 
L 634 1613 
L 2069 1613 
z
" transform="scale(0.015625)"/>
       </defs>
       <use xlink:href="#ArialMT-30"/>
       <use xlink:href="#ArialMT-2e" x="55.615234"/>
       <use xlink:href="#ArialMT-34" x="83.398438"/>
      </g>
     </g>
    </g>
    <g id="xtick_4">
     <g id="line2d_4"/>
     <g id="text_4">
      <!-- 0.6 -->
      <g style="fill: #262626" transform="translate(410.9 466.515625)scale(0.2 -0.2)">
       <defs>
        <path id="ArialMT-36" d="M 3184 3459 
L 2625 3416 
Q 2550 3747 2413 3897 
Q 2184 4138 1850 4138 
Q 1581 4138 1378 3988 
Q 1113 3794 959 3422 
Q 806 3050 800 2363 
Q 1003 2672 1297 2822 
Q 1591 2972 1913 2972 
Q 2475 2972 2870 2558 
Q 3266 2144 3266 1488 
Q 3266 1056 3080 686 
Q 2894 316 2569 119 
Q 2244 -78 1831 -78 
Q 1128 -78 684 439 
Q 241 956 241 2144 
Q 241 3472 731 4075 
Q 1159 4600 1884 4600 
Q 2425 4600 2770 4297 
Q 3116 3994 3184 3459 
z
M 888 1484 
Q 888 1194 1011 928 
Q 1134 663 1356 523 
Q 1578 384 1822 384 
Q 2178 384 2434 671 
Q 2691 959 2691 1453 
Q 2691 1928 2437 2201 
Q 2184 2475 1800 2475 
Q 1419 2475 1153 2201 
Q 888 1928 888 1484 
z
" transform="scale(0.015625)"/>
       </defs>
       <use xlink:href="#ArialMT-30"/>
       <use xlink:href="#ArialMT-2e" x="55.615234"/>
       <use xlink:href="#ArialMT-36" x="83.398438"/>
      </g>
     </g>
    </g>
    <g id="xtick_5">
     <g id="line2d_5"/>
     <g id="text_5">
      <!-- 0.8 -->
      <g style="fill: #262626" transform="translate(522.5 466.515625)scale(0.2 -0.2)">
       <defs>
        <path id="ArialMT-38" d="M 1131 2484 
Q 781 2613 612 2850 
Q 444 3088 444 3419 
Q 444 3919 803 4259 
Q 1163 4600 1759 4600 
Q 2359 4600 2725 4251 
Q 3091 3903 3091 3403 
Q 3091 3084 2923 2848 
Q 2756 2613 2416 2484 
Q 2838 2347 3058 2040 
Q 3278 1734 3278 1309 
Q 3278 722 2862 322 
Q 2447 -78 1769 -78 
Q 1091 -78 675 323 
Q 259 725 259 1325 
Q 259 1772 486 2073 
Q 713 2375 1131 2484 
z
M 1019 3438 
Q 1019 3113 1228 2906 
Q 1438 2700 1772 2700 
Q 2097 2700 2305 2904 
Q 2513 3109 2513 3406 
Q 2513 3716 2298 3927 
Q 2084 4138 1766 4138 
Q 1444 4138 1231 3931 
Q 1019 3725 1019 3438 
z
M 838 1322 
Q 838 1081 952 856 
Q 1066 631 1291 507 
Q 1516 384 1775 384 
Q 2178 384 2440 643 
Q 2703 903 2703 1303 
Q 2703 1709 2433 1975 
Q 2163 2241 1756 2241 
Q 1359 2241 1098 1978 
Q 838 1716 838 1322 
z
" transform="scale(0.015625)"/>
       </defs>
       <use xlink:href="#ArialMT-30"/>
       <use xlink:href="#ArialMT-2e" x="55.615234"/>
       <use xlink:href="#ArialMT-38" x="83.398438"/>
      </g>
     </g>
    </g>
    <g id="xtick_6">
     <g id="line2d_6"/>
     <g id="text_6">
      <!-- 1.0 -->
      <g style="fill: #262626" transform="translate(634.1 466.515625)scale(0.2 -0.2)">
       <defs>
        <path id="ArialMT-31" d="M 2384 0 
L 1822 0 
L 1822 3584 
Q 1619 3391 1289 3197 
Q 959 3003 697 2906 
L 697 3450 
Q 1169 3672 1522 3987 
Q 1875 4303 2022 4600 
L 2384 4600 
L 2384 0 
z
" transform="scale(0.015625)"/>
       </defs>
       <use xlink:href="#ArialMT-31"/>
       <use xlink:href="#ArialMT-2e" x="55.615234"/>
       <use xlink:href="#ArialMT-30" x="83.398438"/>
      </g>
     </g>
    </g>
    <g id="text_7">
     <!-- TaniSim -->
     <g style="fill: #262626" transform="translate(324.548828 492.385156)scale(0.25 -0.25)">
      <defs>
       <path id="ArialMT-54" d="M 1659 0 
L 1659 4041 
L 150 4041 
L 150 4581 
L 3781 4581 
L 3781 4041 
L 2266 4041 
L 2266 0 
L 1659 0 
z
" transform="scale(0.015625)"/>
       <path id="ArialMT-61" d="M 2588 409 
Q 2275 144 1986 34 
Q 1697 -75 1366 -75 
Q 819 -75 525 192 
Q 231 459 231 875 
Q 231 1119 342 1320 
Q 453 1522 633 1644 
Q 813 1766 1038 1828 
Q 1203 1872 1538 1913 
Q 2219 1994 2541 2106 
Q 2544 2222 2544 2253 
Q 2544 2597 2384 2738 
Q 2169 2928 1744 2928 
Q 1347 2928 1158 2789 
Q 969 2650 878 2297 
L 328 2372 
Q 403 2725 575 2942 
Q 747 3159 1072 3276 
Q 1397 3394 1825 3394 
Q 2250 3394 2515 3294 
Q 2781 3194 2906 3042 
Q 3031 2891 3081 2659 
Q 3109 2516 3109 2141 
L 3109 1391 
Q 3109 606 3145 398 
Q 3181 191 3288 0 
L 2700 0 
Q 2613 175 2588 409 
z
M 2541 1666 
Q 2234 1541 1622 1453 
Q 1275 1403 1131 1340 
Q 988 1278 909 1158 
Q 831 1038 831 891 
Q 831 666 1001 516 
Q 1172 366 1500 366 
Q 1825 366 2078 508 
Q 2331 650 2450 897 
Q 2541 1088 2541 1459 
L 2541 1666 
z
" transform="scale(0.015625)"/>
       <path id="ArialMT-6e" d="M 422 0 
L 422 3319 
L 928 3319 
L 928 2847 
Q 1294 3394 1984 3394 
Q 2284 3394 2536 3286 
Q 2788 3178 2913 3003 
Q 3038 2828 3088 2588 
Q 3119 2431 3119 2041 
L 3119 0 
L 2556 0 
L 2556 2019 
Q 2556 2363 2490 2533 
Q 2425 2703 2258 2804 
Q 2091 2906 1866 2906 
Q 1506 2906 1245 2678 
Q 984 2450 984 1813 
L 984 0 
L 422 0 
z
" transform="scale(0.015625)"/>
       <path id="ArialMT-69" d="M 425 3934 
L 425 4581 
L 988 4581 
L 988 3934 
L 425 3934 
z
M 425 0 
L 425 3319 
L 988 3319 
L 988 0 
L 425 0 
z
" transform="scale(0.015625)"/>
       <path id="ArialMT-53" d="M 288 1472 
L 859 1522 
Q 900 1178 1048 958 
Q 1197 738 1509 602 
Q 1822 466 2213 466 
Q 2559 466 2825 569 
Q 3091 672 3220 851 
Q 3350 1031 3350 1244 
Q 3350 1459 3225 1620 
Q 3100 1781 2813 1891 
Q 2628 1963 1997 2114 
Q 1366 2266 1113 2400 
Q 784 2572 623 2826 
Q 463 3081 463 3397 
Q 463 3744 659 4045 
Q 856 4347 1234 4503 
Q 1613 4659 2075 4659 
Q 2584 4659 2973 4495 
Q 3363 4331 3572 4012 
Q 3781 3694 3797 3291 
L 3216 3247 
Q 3169 3681 2898 3903 
Q 2628 4125 2100 4125 
Q 1550 4125 1298 3923 
Q 1047 3722 1047 3438 
Q 1047 3191 1225 3031 
Q 1400 2872 2139 2705 
Q 2878 2538 3153 2413 
Q 3553 2228 3743 1945 
Q 3934 1663 3934 1294 
Q 3934 928 3725 604 
Q 3516 281 3123 101 
Q 2731 -78 2241 -78 
Q 1619 -78 1198 103 
Q 778 284 539 648 
Q 300 1013 288 1472 
z
" transform="scale(0.015625)"/>
       <path id="ArialMT-6d" d="M 422 0 
L 422 3319 
L 925 3319 
L 925 2853 
Q 1081 3097 1340 3245 
Q 1600 3394 1931 3394 
Q 2300 3394 2536 3241 
Q 2772 3088 2869 2813 
Q 3263 3394 3894 3394 
Q 4388 3394 4653 3120 
Q 4919 2847 4919 2278 
L 4919 0 
L 4359 0 
L 4359 2091 
Q 4359 2428 4304 2576 
Q 4250 2725 4106 2815 
Q 3963 2906 3769 2906 
Q 3419 2906 3187 2673 
Q 2956 2441 2956 1928 
L 2956 0 
L 2394 0 
L 2394 2156 
Q 2394 2531 2256 2718 
Q 2119 2906 1806 2906 
Q 1569 2906 1367 2781 
Q 1166 2656 1075 2415 
Q 984 2175 984 1722 
L 984 0 
L 422 0 
z
" transform="scale(0.015625)"/>
      </defs>
      <use xlink:href="#ArialMT-54"/>
      <use xlink:href="#ArialMT-61" x="49.958984"/>
      <use xlink:href="#ArialMT-6e" x="105.574219"/>
      <use xlink:href="#ArialMT-69" x="161.189453"/>
      <use xlink:href="#ArialMT-53" x="183.40625"/>
      <use xlink:href="#ArialMT-69" x="250.105469"/>
      <use xlink:href="#ArialMT-6d" x="272.322266"/>
     </g>
    </g>
   </g>
   <g id="matplotlib.axis_2">
    <g id="ytick_1">
     <g id="line2d_7"/>
     <g id="text_8">
      <!-- 0.0 -->
      <g style="fill: #262626" transform="translate(51 448.157812)scale(0.2 -0.2)">
       <use xlink:href="#ArialMT-30"/>
       <use xlink:href="#ArialMT-2e" x="55.615234"/>
       <use xlink:href="#ArialMT-30" x="83.398438"/>
      </g>
     </g>
    </g>
    <g id="ytick_2">
     <g id="line2d_8"/>
     <g id="text_9">
      <!-- 0.2 -->
      <g style="fill: #262626" transform="translate(51 372.053813)scale(0.2 -0.2)">
       <use xlink:href="#ArialMT-30"/>
       <use xlink:href="#ArialMT-2e" x="55.615234"/>
       <use xlink:href="#ArialMT-32" x="83.398438"/>
      </g>
     </g>
    </g>
    <g id="ytick_3">
     <g id="line2d_9"/>
     <g id="text_10">
      <!-- 0.4 -->
      <g style="fill: #262626" transform="translate(51 295.949813)scale(0.2 -0.2)">
       <use xlink:href="#ArialMT-30"/>
       <use xlink:href="#ArialMT-2e" x="55.615234"/>
       <use xlink:href="#ArialMT-34" x="83.398438"/>
      </g>
     </g>
    </g>
    <g id="ytick_4">
     <g id="line2d_10"/>
     <g id="text_11">
      <!-- 0.6 -->
      <g style="fill: #262626" transform="translate(51 219.845812)scale(0.2 -0.2)">
       <use xlink:href="#ArialMT-30"/>
       <use xlink:href="#ArialMT-2e" x="55.615234"/>
       <use xlink:href="#ArialMT-36" x="83.398438"/>
      </g>
     </g>
    </g>
    <g id="ytick_5">
     <g id="line2d_11"/>
     <g id="text_12">
      <!-- 0.8 -->
      <g style="fill: #262626" transform="translate(51 143.741812)scale(0.2 -0.2)">
       <use xlink:href="#ArialMT-30"/>
       <use xlink:href="#ArialMT-2e" x="55.615234"/>
       <use xlink:href="#ArialMT-38" x="83.398438"/>
      </g>
     </g>
    </g>
    <g id="ytick_6">
     <g id="line2d_12"/>
     <g id="text_13">
      <!-- 1.0 -->
      <g style="fill: #262626" transform="translate(51 67.637812)scale(0.2 -0.2)">
       <use xlink:href="#ArialMT-31"/>
       <use xlink:href="#ArialMT-2e" x="55.615234"/>
       <use xlink:href="#ArialMT-30" x="83.398438"/>
      </g>
     </g>
    </g>
    <g id="text_14">
     <!-- Proportion -->
     <g style="fill: #262626" transform="translate(42.03125 308.407969)rotate(-90)scale(0.25 -0.25)">
      <defs>
       <path id="ArialMT-50" d="M 494 0 
L 494 4581 
L 2222 4581 
Q 2678 4581 2919 4538 
Q 3256 4481 3484 4323 
Q 3713 4166 3852 3881 
Q 3991 3597 3991 3256 
Q 3991 2672 3619 2267 
Q 3247 1863 2275 1863 
L 1100 1863 
L 1100 0 
L 494 0 
z
M 1100 2403 
L 2284 2403 
Q 2872 2403 3119 2622 
Q 3366 2841 3366 3238 
Q 3366 3525 3220 3729 
Q 3075 3934 2838 4000 
Q 2684 4041 2272 4041 
L 1100 4041 
L 1100 2403 
z
" transform="scale(0.015625)"/>
       <path id="ArialMT-72" d="M 416 0 
L 416 3319 
L 922 3319 
L 922 2816 
Q 1116 3169 1280 3281 
Q 1444 3394 1641 3394 
Q 1925 3394 2219 3213 
L 2025 2691 
Q 1819 2813 1613 2813 
Q 1428 2813 1281 2702 
Q 1134 2591 1072 2394 
Q 978 2094 978 1738 
L 978 0 
L 416 0 
z
" transform="scale(0.015625)"/>
       <path id="ArialMT-6f" d="M 213 1659 
Q 213 2581 725 3025 
Q 1153 3394 1769 3394 
Q 2453 3394 2887 2945 
Q 3322 2497 3322 1706 
Q 3322 1066 3130 698 
Q 2938 331 2570 128 
Q 2203 -75 1769 -75 
Q 1072 -75 642 372 
Q 213 819 213 1659 
z
M 791 1659 
Q 791 1022 1069 705 
Q 1347 388 1769 388 
Q 2188 388 2466 706 
Q 2744 1025 2744 1678 
Q 2744 2294 2464 2611 
Q 2184 2928 1769 2928 
Q 1347 2928 1069 2612 
Q 791 2297 791 1659 
z
" transform="scale(0.015625)"/>
       <path id="ArialMT-70" d="M 422 -1272 
L 422 3319 
L 934 3319 
L 934 2888 
Q 1116 3141 1344 3267 
Q 1572 3394 1897 3394 
Q 2322 3394 2647 3175 
Q 2972 2956 3137 2557 
Q 3303 2159 3303 1684 
Q 3303 1175 3120 767 
Q 2938 359 2589 142 
Q 2241 -75 1856 -75 
Q 1575 -75 1351 44 
Q 1128 163 984 344 
L 984 -1272 
L 422 -1272 
z
M 931 1641 
Q 931 1000 1190 694 
Q 1450 388 1819 388 
Q 2194 388 2461 705 
Q 2728 1022 2728 1688 
Q 2728 2322 2467 2637 
Q 2206 2953 1844 2953 
Q 1484 2953 1207 2617 
Q 931 2281 931 1641 
z
" transform="scale(0.015625)"/>
       <path id="ArialMT-74" d="M 1650 503 
L 1731 6 
Q 1494 -44 1306 -44 
Q 1000 -44 831 53 
Q 663 150 594 308 
Q 525 466 525 972 
L 525 2881 
L 113 2881 
L 113 3319 
L 525 3319 
L 525 4141 
L 1084 4478 
L 1084 3319 
L 1650 3319 
L 1650 2881 
L 1084 2881 
L 1084 941 
Q 1084 700 1114 631 
Q 1144 563 1211 522 
Q 1278 481 1403 481 
Q 1497 481 1650 503 
z
" transform="scale(0.015625)"/>
      </defs>
      <use xlink:href="#ArialMT-50"/>
      <use xlink:href="#ArialMT-72" x="66.699219"/>
      <use xlink:href="#ArialMT-6f" x="100"/>
      <use xlink:href="#ArialMT-70" x="155.615234"/>
      <use xlink:href="#ArialMT-6f" x="211.230469"/>
      <use xlink:href="#ArialMT-72" x="266.845703"/>
      <use xlink:href="#ArialMT-74" x="300.146484"/>
      <use xlink:href="#ArialMT-69" x="327.929688"/>
      <use xlink:href="#ArialMT-6f" x="350.146484"/>
      <use xlink:href="#ArialMT-6e" x="405.761719"/>
     </g>
    </g>
   </g>
   <g id="line2d_13">
    <path d="M 102.276 441 
L 102.276 440.997978 
L 110.646 440.888791 
L 110.646 440.860483 
L 113.436 440.753317 
L 113.436 440.751295 
L 113.436 440.7149 
L 114.552 440.640086 
L 114.552 440.605712 
L 114.552 440.57336 
L 115.668 440.486415 
L 115.668 440.464173 
L 115.668 440.439909 
L 116.784 440.36914 
L 116.784 440.330722 
L 116.784 440.30848 
L 117.9 440.201315 
L 117.9 440.199293 
L 117.9 440.094149 
L 118.458 440.094149 
L 118.458 439.984962 
L 118.458 439.936434 
L 119.016 439.936434 
L 119.016 439.827247 
L 119.016 439.782763 
L 119.574 439.782763 
L 119.574 439.673576 
L 119.574 439.625048 
L 120.132 439.625048 
L 120.132 439.515861 
L 120.132 439.485531 
L 120.69 439.485531 
L 120.69 439.376343 
L 120.69 439.325794 
L 121.248 439.325794 
L 121.248 439.216606 
L 121.248 439.014407 
L 121.806 439.014407 
L 121.806 438.90522 
L 121.806 438.789967 
L 122.364 438.789967 
L 122.364 438.680779 
L 122.364 438.438141 
L 122.922 438.438141 
L 122.922 438.328953 
L 122.922 438.118667 
L 123.48 438.118667 
L 123.48 438.009479 
L 123.48 437.752687 
L 124.038 437.752687 
L 124.038 437.643499 
L 124.038 437.447367 
L 124.596 437.447367 
L 124.596 437.338179 
L 124.596 436.992419 
L 125.154 436.992419 
L 125.154 436.883232 
L 125.154 436.654747 
L 125.712 436.654747 
L 125.712 436.54556 
L 125.712 436.242262 
L 126.27 436.242262 
L 126.27 436.133074 
L 126.27 435.754962 
L 126.828 435.754962 
L 126.828 435.645775 
L 126.828 435.198916 
L 127.386 435.198916 
L 127.386 435.089728 
L 127.386 434.586253 
L 127.944 434.586253 
L 127.944 434.477066 
L 127.944 433.797678 
L 128.502 433.797678 
L 128.502 433.68849 
L 128.502 433.197147 
L 129.06 433.197147 
L 129.06 433.08796 
L 129.06 432.424748 
L 129.618 432.424748 
L 129.618 432.31556 
L 129.618 431.456215 
L 130.176 431.456215 
L 130.176 431.347028 
L 130.176 430.756607 
L 130.734 430.756607 
L 130.734 430.64742 
L 130.734 429.984208 
L 131.292 429.984208 
L 131.292 429.87502 
L 131.292 428.942884 
L 131.85 428.942884 
L 131.85 428.833696 
L 131.85 427.915714 
L 132.408 427.915714 
L 132.408 427.806526 
L 132.408 426.714653 
L 132.966 426.714653 
L 132.966 426.605465 
L 132.966 425.719834 
L 133.524 425.719834 
L 133.524 425.610647 
L 133.524 424.575389 
L 134.082 424.575389 
L 134.082 424.466202 
L 134.082 423.145843 
L 134.64 423.145843 
L 134.64 423.036656 
L 134.64 421.977134 
L 135.198 421.977134 
L 135.198 421.867947 
L 135.198 420.497039 
L 135.756 420.497039 
L 135.756 420.387851 
L 135.756 419.283846 
L 136.314 419.283846 
L 136.314 419.174658 
L 136.314 417.429682 
L 136.872 417.429682 
L 136.872 417.320495 
L 136.872 416.204357 
L 137.43 416.204357 
L 137.43 416.09517 
L 137.43 414.275381 
L 137.988 414.275381 
L 137.988 414.166193 
L 137.988 412.580954 
L 138.546 412.580954 
L 138.546 412.471767 
L 138.546 410.680285 
L 139.104 410.680285 
L 139.104 410.571098 
L 139.104 408.741199 
L 139.662 408.741199 
L 139.662 408.632011 
L 139.662 407.109454 
L 140.22 407.109454 
L 140.22 407.000267 
L 140.22 404.757882 
L 140.778 404.757882 
L 140.778 404.648694 
L 140.778 403.300028 
L 141.336 403.300028 
L 141.336 403.190841 
L 141.336 400.572366 
L 141.894 400.572366 
L 141.894 400.463179 
L 141.894 398.590817 
L 142.452 398.590817 
L 142.452 398.48163 
L 142.452 396.069398 
L 143.01 396.069398 
L 143.01 395.960211 
L 143.01 393.938222 
L 143.568 393.938222 
L 143.568 393.829035 
L 143.568 391.279308 
L 144.126 391.279308 
L 144.126 391.17012 
L 144.126 388.602195 
L 144.684 388.602195 
L 144.684 388.493008 
L 144.684 385.912951 
L 145.242 385.912951 
L 145.242 385.803763 
L 145.242 382.877946 
L 145.8 382.877946 
L 145.8 382.768759 
L 145.8 380.914596 
L 146.358 380.914596 
L 146.358 380.805408 
L 146.358 377.412512 
L 146.916 377.412512 
L 146.916 377.303325 
L 146.916 374.57364 
L 147.474 374.57364 
L 147.474 374.464453 
L 147.474 371.180744 
L 148.032 371.180744 
L 148.032 371.071557 
L 148.032 367.957695 
L 148.59 367.957695 
L 148.59 367.848507 
L 148.59 365.052097 
L 149.148 365.052097 
L 149.148 364.94291 
L 149.148 361.594498 
L 149.706 361.594498 
L 149.706 361.48531 
L 149.706 357.989292 
L 150.264 357.989292 
L 150.264 357.880105 
L 150.264 354.891606 
L 150.822 354.891606 
L 150.822 354.782419 
L 150.822 350.679805 
L 151.38 350.679805 
L 151.38 350.570617 
L 151.38 346.579212 
L 151.938 346.579212 
L 151.938 346.470025 
L 151.938 343.493658 
L 152.496 343.493658 
L 152.496 343.384471 
L 152.496 340.345422 
L 153.054 340.345422 
L 153.054 340.236235 
L 153.054 335.359199 
L 153.612 335.359199 
L 153.612 335.250012 
L 153.612 332.119974 
L 154.17 332.119974 
L 154.17 332.010787 
L 154.17 327.689798 
L 154.728 327.689798 
L 154.728 327.58061 
L 154.728 323.473952 
L 155.286 323.473952 
L 155.286 323.364765 
L 155.286 319.838417 
L 155.844 319.838417 
L 155.844 319.72923 
L 155.844 315.602352 
L 156.402 315.602352 
L 156.402 315.493164 
L 156.402 310.771822 
L 156.96 310.771822 
L 156.96 310.662634 
L 156.96 307.122133 
L 157.518 307.122133 
L 157.518 307.012945 
L 157.518 302.317889 
L 158.076 302.317889 
L 158.076 302.208701 
L 158.076 297.740107 
L 158.634 297.740107 
L 158.634 297.63092 
L 158.634 293.245227 
L 159.192 293.245227 
L 159.192 293.13604 
L 159.192 289.334702 
L 159.75 289.334702 
L 159.75 289.225514 
L 159.75 285.266461 
L 160.308 285.266461 
L 160.308 285.157274 
L 160.308 281.372112 
L 160.866 281.372112 
L 160.866 281.262924 
L 160.866 276.968221 
L 161.424 276.968221 
L 161.424 276.859034 
L 161.424 272.125559 
L 161.982 272.125559 
L 161.982 272.016372 
L 161.982 266.957357 
L 162.54 266.957357 
L 162.54 266.84817 
L 162.54 262.654566 
L 163.098 262.654566 
L 163.098 262.545379 
L 163.098 258.833008 
L 163.656 258.833008 
L 163.656 258.723821 
L 163.656 254.325996 
L 164.214 254.325996 
L 164.214 254.216809 
L 164.214 250.21125 
L 164.772 250.21125 
L 164.772 250.102063 
L 164.772 246.258263 
L 165.33 246.258263 
L 165.33 246.149076 
L 165.33 242.127341 
L 165.888 242.127341 
L 165.888 242.018153 
L 165.888 237.895319 
L 166.446 237.895319 
L 166.446 237.786132 
L 166.446 234.114201 
L 167.004 234.114201 
L 167.004 234.005014 
L 167.004 230.027763 
L 167.562 230.027763 
L 167.562 229.918575 
L 167.562 226.568141 
L 168.12 226.568141 
L 168.12 226.458954 
L 168.12 222.617176 
L 168.678 222.617176 
L 168.678 222.507988 
L 168.678 219.297071 
L 169.236 219.297071 
L 169.236 219.187884 
L 169.236 215.418897 
L 169.794 215.418897 
L 169.794 215.30971 
L 169.794 211.753033 
L 170.352 211.753033 
L 170.352 211.643845 
L 170.352 207.949673 
L 170.91 207.949673 
L 170.91 207.840485 
L 170.91 204.182708 
L 171.468 204.182708 
L 171.468 204.073521 
L 171.468 200.731174 
L 172.026 200.731174 
L 172.026 200.621987 
L 172.026 197.392872 
L 172.584 197.392872 
L 172.584 197.283684 
L 172.584 193.751271 
L 173.142 193.751271 
L 173.142 193.642083 
L 173.142 190.857806 
L 173.7 190.857806 
L 173.7 190.748618 
L 173.7 187.527591 
L 174.258 187.527591 
L 174.258 187.418403 
L 174.258 184.957644 
L 174.816 184.957644 
L 174.816 184.848456 
L 174.816 181.809408 
L 175.374 181.809408 
L 175.374 181.700221 
L 175.374 178.786535 
L 175.932 178.786535 
L 175.932 178.677348 
L 175.932 175.781861 
L 176.49 175.781861 
L 176.49 175.672673 
L 176.49 173.450508 
L 177.048 173.450508 
L 177.048 173.341321 
L 177.048 170.682406 
L 177.606 170.682406 
L 177.606 170.573219 
L 177.606 168.094261 
L 178.164 168.094261 
L 178.164 167.985074 
L 178.164 165.671919 
L 178.722 165.671919 
L 178.722 165.562732 
L 178.722 163.118148 
L 179.28 163.118148 
L 179.28 163.008961 
L 179.28 160.817125 
L 179.838 160.817125 
L 179.838 160.707938 
L 179.838 158.647532 
L 180.396 158.647532 
L 180.396 158.538345 
L 180.396 156.380883 
L 180.954 156.380883 
L 180.954 156.271696 
L 180.954 154.195114 
L 181.512 154.195114 
L 181.512 154.085926 
L 181.512 151.64943 
L 182.07 151.64943 
L 182.07 151.540243 
L 182.07 149.868059 
L 182.628 149.868059 
L 182.628 149.758871 
L 182.628 149.251352 
L 183.186 149.251352 
L 183.186 149.142165 
L 183.186 147.017055 
L 183.744 147.017055 
L 183.744 146.907868 
L 183.744 144.776692 
L 184.302 144.776692 
L 184.302 144.667505 
L 184.302 142.839627 
L 184.86 142.839627 
L 184.86 142.73044 
L 184.86 141.590039 
L 185.418 141.590039 
L 185.418 141.480851 
L 185.418 139.869327 
L 185.976 139.869327 
L 185.976 139.760139 
L 185.976 138.399341 
L 186.534 138.399341 
L 186.534 138.290154 
L 186.534 137.121444 
L 187.092 137.121444 
L 187.092 137.012257 
L 187.092 135.710097 
L 187.65 135.710097 
L 187.65 135.600909 
L 187.65 134.414002 
L 188.208 134.414002 
L 188.208 134.304815 
L 188.208 132.937951 
L 188.766 132.937951 
L 188.766 132.828763 
L 188.766 131.999748 
L 189.324 131.999748 
L 189.324 131.890561 
L 189.324 130.992798 
L 189.882 130.992798 
L 189.882 130.883611 
L 189.882 129.759385 
L 190.44 129.759385 
L 190.44 129.650198 
L 190.44 128.673577 
L 190.998 128.673577 
L 190.998 128.56439 
L 190.998 127.757617 
L 191.556 127.757617 
L 191.556 127.648429 
L 191.556 126.611149 
L 192.114 126.611149 
L 192.114 126.501962 
L 192.114 125.519276 
L 192.672 125.519276 
L 192.672 125.410088 
L 192.672 124.566919 
L 193.23 124.566919 
L 193.23 124.457732 
L 193.23 123.555925 
L 193.788 123.555925 
L 193.788 123.446738 
L 193.788 122.765328 
L 194.346 122.765328 
L 194.346 122.65614 
L 194.346 122.079874 
L 194.904 122.079874 
L 194.904 121.970686 
L 194.904 121.125495 
L 195.462 121.125495 
L 195.462 121.016308 
L 195.462 120.340964 
L 196.02 120.340964 
L 196.02 120.231776 
L 196.02 119.467465 
L 196.578 119.467465 
L 196.578 119.358277 
L 196.578 118.818406 
L 197.136 118.818406 
L 197.136 118.709219 
L 197.136 118.143062 
L 197.694 118.143062 
L 197.694 118.033875 
L 197.694 117.51018 
L 198.252 117.51018 
L 198.252 117.400993 
L 198.252 116.733736 
L 198.81 116.733736 
L 198.81 116.624549 
L 198.81 115.977513 
L 199.368 115.977513 
L 199.368 115.868325 
L 199.368 115.563005 
L 199.926 115.563005 
L 199.926 115.453818 
L 199.926 114.725902 
L 200.484 114.725902 
L 200.484 114.616715 
L 200.484 114.058646 
L 201.042 114.058646 
L 201.042 113.949459 
L 201.042 113.811963 
L 201.6 113.811963 
L 201.6 113.702776 
L 201.6 112.800969 
L 202.158 112.800969 
L 202.158 112.691782 
L 202.158 112.532045 
L 202.716 112.532045 
L 202.716 112.422857 
L 202.716 111.945668 
L 203.274 111.945668 
L 203.274 111.836481 
L 203.274 111.197533 
L 203.832 111.197533 
L 203.832 111.088345 
L 203.832 110.894234 
L 204.39 110.894234 
L 204.39 110.785047 
L 204.39 110.28966 
L 204.948 110.28966 
L 204.948 110.180472 
L 204.948 109.887284 
L 205.506 109.887284 
L 205.506 109.778097 
L 205.506 109.414139 
L 206.064 109.414139 
L 206.064 109.304951 
L 206.064 108.8864 
L 206.622 108.8864 
L 206.622 108.777213 
L 206.622 108.378881 
L 207.18 108.378881 
L 207.18 108.269693 
L 207.18 107.956285 
L 207.738 107.956285 
L 207.738 107.847098 
L 207.738 107.351711 
L 208.296 107.351711 
L 208.296 107.242523 
L 208.296 106.955401 
L 208.854 106.955401 
L 208.854 106.846214 
L 208.854 106.518652 
L 209.412 106.518652 
L 209.412 106.409464 
L 209.412 105.914077 
L 209.97 105.914077 
L 209.97 105.80489 
L 209.97 105.483394 
L 210.528 105.483394 
L 210.528 105.374206 
L 210.528 104.969809 
L 211.086 104.969809 
L 211.086 104.860621 
L 211.086 104.518905 
L 211.644 104.518905 
L 211.644 104.409718 
L 211.644 104.070024 
L 212.202 104.070024 
L 212.202 103.960836 
L 212.202 103.784923 
L 212.76 103.784923 
L 212.76 103.675736 
L 212.76 103.176305 
L 213.318 103.176305 
L 213.318 103.067118 
L 213.318 102.751687 
L 213.876 102.751687 
L 213.876 102.6425 
L 213.876 102.436257 
L 214.434 102.436257 
L 214.434 102.32707 
L 214.434 102.058145 
L 214.992 102.058145 
L 214.992 101.948958 
L 214.992 101.696209 
L 215.55 101.696209 
L 215.55 101.587022 
L 215.55 101.328208 
L 216.108 101.328208 
L 216.108 101.21902 
L 216.108 101.000646 
L 216.666 101.000646 
L 216.666 100.891458 
L 216.666 100.626578 
L 217.224 100.626578 
L 217.224 100.51739 
L 217.224 100.258576 
L 217.782 100.258576 
L 217.782 100.149388 
L 217.782 99.939102 
L 218.34 99.939102 
L 218.34 99.829914 
L 218.34 99.593342 
L 218.898 99.593342 
L 218.898 99.484154 
L 218.898 99.192988 
L 219.456 99.192988 
L 219.456 99.083801 
L 219.456 98.992811 
L 220.014 98.992811 
L 220.014 98.883624 
L 220.014 98.620765 
L 220.572 98.620765 
L 220.572 98.511578 
L 220.572 98.337687 
L 221.13 98.337687 
L 221.13 98.2285 
L 221.13 98.09707 
L 221.688 98.09707 
L 221.688 97.987883 
L 221.688 97.848366 
L 222.246 97.848366 
L 222.246 97.739178 
L 222.246 97.567309 
L 222.804 97.567309 
L 222.804 97.458122 
L 222.804 97.310517 
L 223.362 97.310517 
L 223.362 97.20133 
L 223.362 97.051702 
L 223.92 97.051702 
L 223.92 96.942515 
L 223.92 96.7848 
L 224.478 96.7848 
L 224.478 96.675613 
L 224.478 96.540139 
L 225.036 96.540139 
L 225.036 96.430952 
L 225.036 96.240885 
L 225.594 96.240885 
L 225.594 96.131698 
L 225.594 96.02251 
L 226.152 96.02251 
L 226.152 95.913323 
L 226.152 95.765718 
L 227.268 95.674728 
L 227.268 95.65653 
L 227.268 95.337056 
L 228.384 95.314814 
L 228.384 95.227869 
L 228.384 94.916483 
L 229.5 94.916483 
L 229.5 94.807295 
L 229.5 94.552525 
L 230.616 94.552525 
L 230.616 94.443337 
L 230.616 94.168347 
L 231.732 94.148127 
L 231.732 94.05916 
L 231.732 93.838763 
L 232.29 93.838763 
L 232.29 93.729576 
L 232.29 93.715422 
L 232.848 93.715422 
L 232.848 93.606234 
L 232.848 93.515245 
L 233.406 93.515245 
L 233.406 93.406057 
L 233.406 93.371684 
L 233.964 93.371684 
L 233.964 93.262496 
L 233.964 93.209925 
L 234.522 93.209925 
L 234.522 93.100737 
L 234.522 93.040078 
L 235.08 93.040078 
L 235.08 92.93089 
L 235.08 92.876297 
L 235.638 92.876297 
L 235.638 92.767109 
L 235.638 92.653878 
L 236.196 92.653878 
L 236.196 92.54469 
L 236.196 92.506273 
L 236.754 92.506273 
L 236.754 92.397085 
L 236.754 92.384953 
L 237.312 92.384953 
L 237.312 92.275766 
L 237.312 92.190842 
L 237.87 92.190842 
L 237.87 92.081655 
L 237.87 92.018973 
L 238.428 92.018973 
L 238.428 91.909786 
L 238.428 91.871368 
L 238.986 91.871368 
L 238.986 91.762181 
L 238.986 91.725785 
L 239.544 91.725785 
L 239.544 91.616598 
L 239.544 91.584246 
L 240.102 91.584246 
L 240.102 91.475059 
L 240.102 91.438663 
L 240.66 91.438663 
L 240.66 91.329475 
L 240.66 91.250618 
L 241.776 91.155584 
L 241.776 91.141431 
L 241.776 91.018089 
L 242.334 91.018089 
L 242.334 90.908902 
L 242.334 90.828022 
L 242.892 90.828022 
L 242.892 90.718835 
L 242.892 90.627846 
L 243.45 90.627846 
L 243.45 90.518658 
L 243.45 90.472152 
L 244.008 90.472152 
L 244.008 90.362965 
L 244.008 90.326569 
L 244.566 90.326569 
L 244.566 90.217382 
L 244.566 90.150656 
L 245.124 90.150656 
L 245.124 90.041469 
L 245.124 89.970699 
L 245.682 89.970699 
L 245.682 89.861512 
L 245.682 89.792764 
L 246.24 89.792764 
L 246.24 89.683577 
L 246.24 89.643137 
L 246.798 89.643137 
L 246.798 89.53395 
L 246.798 89.495532 
L 247.356 89.495532 
L 247.356 89.386345 
L 247.356 89.339839 
L 247.914 89.339839 
L 247.914 89.230652 
L 247.914 89.139662 
L 248.472 89.139662 
L 248.472 89.030475 
L 248.472 89.024409 
L 249.588 88.941507 
L 249.588 88.915221 
L 249.588 88.745374 
L 250.146 88.745374 
L 250.146 88.636187 
L 250.146 88.543176 
L 250.704 88.543176 
L 250.704 88.433988 
L 250.704 88.361197 
L 251.82 88.254031 
L 251.82 88.252009 
L 251.82 88.142822 
L 252.378 88.142822 
L 252.378 88.033635 
L 252.378 87.979041 
L 252.936 87.979041 
L 252.936 87.869853 
L 252.936 87.807172 
L 253.494 87.807172 
L 253.494 87.697984 
L 253.494 87.683831 
L 254.052 87.683831 
L 254.052 87.574643 
L 254.052 87.546335 
L 254.61 87.546335 
L 254.61 87.437148 
L 254.61 87.370422 
L 255.168 87.370422 
L 255.168 87.261235 
L 255.168 87.245059 
L 256.284 87.139916 
L 256.284 87.135872 
L 256.284 86.972091 
L 256.842 86.972091 
L 256.842 86.862903 
L 256.842 86.852793 
L 257.4 86.852793 
L 257.4 86.743606 
L 257.4 86.701144 
L 257.958 86.701144 
L 257.958 86.591957 
L 257.958 86.585891 
L 258.516 86.585891 
L 258.516 86.476704 
L 258.516 86.440308 
L 259.074 86.440308 
L 259.074 86.33112 
L 259.074 86.314944 
L 259.632 86.314944 
L 259.632 86.205757 
L 259.632 86.145097 
L 260.748 86.03591 
L 260.748 85.876173 
L 261.864 85.773052 
L 261.864 85.766986 
L 261.864 85.568831 
L 262.98 85.494017 
L 262.98 85.459643 
L 262.98 85.299906 
L 263.538 85.299906 
L 263.538 85.190719 
L 263.538 85.174543 
L 264.096 85.174543 
L 264.096 85.065356 
L 264.096 84.99863 
L 265.212 84.93797 
L 265.212 84.889443 
L 265.212 84.820695 
L 265.77 84.820695 
L 265.77 84.711508 
L 265.77 84.638716 
L 266.886 84.537617 
L 266.886 84.529529 
L 266.886 84.442583 
L 268.002 84.343506 
L 268.002 84.333396 
L 268.002 84.206011 
L 268.56 84.206011 
L 268.56 84.096823 
L 268.56 84.054362 
L 269.118 84.054362 
L 269.118 83.945174 
L 269.118 83.9108 
L 270.234 83.819811 
L 270.234 83.801613 
L 270.234 83.71669 
L 270.792 83.71669 
L 270.792 83.607502 
L 270.792 83.560996 
L 271.35 83.560996 
L 271.35 83.451809 
L 271.35 83.447765 
L 272.466 83.393171 
L 272.466 83.338578 
L 272.466 83.223324 
L 273.024 83.223324 
L 273.024 83.114137 
L 273.024 83.075719 
L 274.14 83.073697 
L 274.14 82.966532 
L 274.14 82.891718 
L 274.698 82.891718 
L 274.698 82.782531 
L 274.698 82.738047 
L 275.814 82.738047 
L 275.814 82.62886 
L 275.814 82.404419 
L 277.488 82.404419 
L 277.488 82.295232 
L 277.488 82.143583 
L 278.604 82.060681 
L 278.604 82.034395 
L 278.604 82.028329 
L 279.162 82.028329 
L 279.162 81.919142 
L 279.162 81.85646 
L 280.278 81.753339 
L 280.278 81.747273 
L 280.278 81.674481 
L 280.836 81.674481 
L 280.836 81.565294 
L 280.836 81.557206 
L 281.394 81.557206 
L 281.394 81.448019 
L 281.394 81.431843 
L 282.51 81.385337 
L 282.51 81.322655 
L 282.51 81.270084 
L 283.626 81.171006 
L 283.626 81.160896 
L 283.626 81.059797 
L 284.742 80.995093 
L 284.742 80.95061 
L 284.742 80.91017 
L 285.3 80.91017 
L 285.3 80.800982 
L 285.3 80.792894 
L 286.416 80.726169 
L 286.416 80.683707 
L 286.416 80.633157 
L 287.532 80.53408 
L 287.532 80.52397 
L 287.532 80.430959 
L 288.648 80.327837 
L 288.648 80.321771 
L 288.648 80.226738 
L 289.764 80.123616 
L 289.764 80.11755 
L 289.764 80.024539 
L 290.88 79.941637 
L 290.88 79.915352 
L 290.88 79.818296 
L 291.996 79.717197 
L 291.996 79.709109 
L 291.996 79.640361 
L 293.112 79.561504 
L 293.112 79.531174 
L 293.112 79.41592 
L 294.228 79.328975 
L 294.228 79.306733 
L 294.228 79.233941 
L 295.344 79.126776 
L 295.344 79.124754 
L 295.344 79.025677 
L 296.46 78.916489 
L 296.46 78.837632 
L 297.576 78.762818 
L 297.576 78.728444 
L 297.576 78.710247 
L 298.134 78.710247 
L 298.134 78.601059 
L 298.134 78.582861 
L 299.25 78.485806 
L 299.25 78.473674 
L 299.25 78.394816 
L 300.366 78.305849 
L 300.366 78.285629 
L 300.366 78.204749 
L 301.482 78.12387 
L 301.482 78.095562 
L 301.482 78.040968 
L 302.598 77.954023 
L 302.598 77.931781 
L 302.598 77.810462 
L 303.714 77.739692 
L 303.714 77.701274 
L 303.714 77.626461 
L 304.83 77.563779 
L 304.83 77.517273 
L 304.83 77.434372 
L 305.946 77.39191 
L 305.946 77.325185 
L 305.946 77.270591 
L 307.062 77.177579 
L 307.062 77.161403 
L 307.062 77.092656 
L 308.178 77.001666 
L 308.178 76.983468 
L 308.178 76.941007 
L 308.736 76.941007 
L 308.736 76.831819 
L 308.736 76.811599 
L 309.852 76.724654 
L 309.852 76.702412 
L 309.852 76.651862 
L 310.968 76.583115 
L 310.968 76.542675 
L 310.968 76.488081 
L 312.084 76.429444 
L 312.084 76.378894 
L 312.084 76.251509 
L 313.2 76.251509 
L 313.2 76.142321 
L 313.2 76.114014 
L 314.316 76.111992 
L 314.316 76.004826 
L 314.316 75.976518 
L 315.432 75.950232 
L 315.432 75.867331 
L 315.432 75.843067 
L 316.548 75.782407 
L 316.548 75.73388 
L 316.548 75.711638 
L 317.664 75.644912 
L 317.664 75.60245 
L 317.664 75.584253 
L 318.78 75.511461 
L 318.78 75.475065 
L 318.78 75.448779 
L 319.896 75.355768 
L 319.896 75.339592 
L 319.896 75.25669 
L 321.012 75.198053 
L 321.012 75.147503 
L 321.012 75.117173 
L 322.128 75.056514 
L 322.128 75.007986 
L 322.128 74.985744 
L 323.244 74.906887 
L 323.244 74.876557 
L 323.244 74.846227 
L 324.36 74.795677 
L 324.36 74.737039 
L 324.36 74.71682 
L 325.476 74.639984 
L 325.476 74.607632 
L 325.476 74.591456 
L 326.034 74.591456 
L 326.034 74.482269 
L 326.034 74.472159 
L 327.15 74.405433 
L 327.15 74.362972 
L 327.15 74.34073 
L 328.266 74.288158 
L 328.266 74.231542 
L 328.266 74.199191 
L 329.94 74.124377 
L 329.94 74.090003 
L 329.94 74.039454 
L 331.614 73.936332 
L 331.614 73.930266 
L 331.614 73.861519 
L 332.73 73.788727 
L 332.73 73.752331 
L 332.73 73.719979 
L 334.404 73.612814 
L 334.404 73.610792 
L 334.404 73.562264 
L 336.078 73.491495 
L 336.078 73.453077 
L 336.078 73.440945 
L 337.194 73.384329 
L 337.194 73.331758 
L 337.194 73.317604 
L 338.868 73.226614 
L 338.868 73.208416 
L 338.868 73.176065 
L 339.984 73.119449 
L 339.984 73.066877 
L 339.984 73.030481 
L 341.658 72.961734 
L 341.658 72.921294 
L 341.658 72.892986 
L 342.774 72.834349 
L 342.774 72.783799 
L 342.774 72.781777 
L 344.448 72.682699 
L 344.448 72.672589 
L 344.448 72.648326 
L 345.564 72.573512 
L 345.564 72.539138 
L 345.564 72.529028 
L 347.238 72.438039 
L 347.238 72.419841 
L 347.238 72.401643 
L 348.912 72.310654 
L 348.912 72.292456 
L 348.912 72.233818 
L 350.586 72.148894 
L 350.586 72.124631 
L 350.586 72.096323 
L 351.702 72.045773 
L 351.702 71.987135 
L 351.702 71.962872 
L 353.934 71.853684 
L 353.934 71.772805 
L 355.608 71.663617 
L 355.608 71.653507 
L 356.724 71.602958 
L 356.724 71.54432 
L 356.724 71.538254 
L 358.398 71.443221 
L 358.398 71.429067 
L 358.398 71.400759 
L 360.072 71.297637 
L 360.072 71.291571 
L 360.072 71.257198 
L 361.746 71.180362 
L 361.746 71.14801 
L 361.746 71.143966 
L 363.42 71.042867 
L 363.42 71.034779 
L 363.42 71.016581 
L 365.094 70.909416 
L 365.094 70.907394 
L 365.094 70.90335 
L 366.21 70.84269 
L 366.21 70.794162 
L 366.21 70.721371 
L 369 70.680931 
L 369 70.612183 
L 369 70.454468 
L 371.79 70.416051 
L 371.79 70.345281 
L 371.79 70.304841 
L 374.022 70.223962 
L 374.022 70.195654 
L 374.022 70.159258 
L 376.254 70.056137 
L 376.254 70.050071 
L 376.254 70.019741 
L 377.37 69.928751 
L 377.37 69.910553 
L 377.37 69.892356 
L 379.602 69.799344 
L 379.602 69.783168 
L 379.602 69.74475 
L 381.834 69.651739 
L 381.834 69.635563 
L 381.834 69.558727 
L 383.508 69.475826 
L 383.508 69.44954 
L 383.508 69.435386 
L 385.182 69.350463 
L 385.182 69.326199 
L 385.182 69.295869 
L 386.856 69.239253 
L 386.856 69.186682 
L 386.856 69.176572 
L 389.088 69.081538 
L 389.088 69.067384 
L 389.088 69.051208 
L 390.762 68.956175 
L 390.762 68.942021 
L 390.762 68.929889 
L 392.436 68.846988 
L 392.436 68.820702 
L 392.436 68.806548 
L 394.11 68.72769 
L 394.11 68.69736 
L 394.11 68.687251 
L 395.784 68.606371 
L 395.784 68.578063 
L 395.784 68.551777 
L 397.458 68.458766 
L 397.458 68.44259 
L 397.458 68.408216 
L 399.132 68.311161 
L 399.132 68.299029 
L 399.132 68.274765 
L 400.806 68.218149 
L 400.806 68.165578 
L 400.806 68.145358 
L 402.48 68.0665 
L 402.48 68.03617 
L 402.48 67.991687 
L 403.596 67.929005 
L 403.596 67.882499 
L 403.596 67.858235 
L 405.828 67.789488 
L 405.828 67.749048 
L 405.828 67.747026 
L 408.06 67.641883 
L 408.06 67.637839 
L 408.06 67.583245 
L 409.734 67.520563 
L 409.734 67.474058 
L 409.734 67.467992 
L 411.966 67.381046 
L 411.966 67.358804 
L 411.966 67.330496 
L 413.64 67.243551 
L 413.64 67.221309 
L 413.64 67.207155 
L 415.314 67.097968 
L 415.314 67.057528 
L 417.546 66.960472 
L 417.546 66.948341 
L 417.546 66.934187 
L 419.778 66.831065 
L 419.778 66.824999 
L 419.778 66.804779 
L 421.452 66.707724 
L 421.452 66.695592 
L 421.452 66.671328 
L 423.684 66.604603 
L 423.684 66.562141 
L 423.684 66.558097 
L 425.916 66.481261 
L 425.916 66.448909 
L 425.916 66.392294 
L 428.706 66.285128 
L 428.706 66.283106 
L 428.706 66.244689 
L 430.38 66.169875 
L 430.38 66.135501 
L 430.38 66.131457 
L 432.612 66.026314 
L 432.612 66.02227 
L 432.612 65.998006 
L 433.728 65.913083 
L 433.728 65.888819 
L 433.728 65.882753 
L 435.402 65.814005 
L 435.402 65.773565 
L 435.402 65.767499 
L 437.076 65.67651 
L 437.076 65.658312 
L 437.076 65.642136 
L 439.308 65.557213 
L 439.308 65.532949 
L 439.308 65.504641 
L 440.982 65.429827 
L 440.982 65.395454 
L 440.982 65.393432 
L 443.214 65.286266 
L 443.214 65.284244 
L 443.214 65.235716 
L 445.446 65.136639 
L 445.446 65.126529 
L 445.446 65.110353 
L 447.12 65.04565 
L 447.12 65.001166 
L 447.12 64.96477 
L 449.91 64.857605 
L 449.91 64.855583 
L 449.91 64.817165 
L 452.142 64.716065 
L 452.142 64.707978 
L 452.142 64.677648 
L 454.374 64.59879 
L 454.374 64.56846 
L 454.374 64.536109 
L 456.606 64.439053 
L 456.606 64.426921 
L 456.606 64.422877 
L 458.838 64.31369 
L 458.838 64.297514 
L 460.512 64.188327 
L 460.512 64.186305 
L 462.186 64.186305 
L 462.186 64.077117 
L 462.186 64.064985 
L 465.534 63.96793 
L 465.534 63.955798 
L 465.534 63.91738 
L 467.766 63.814259 
L 467.766 63.808193 
L 467.766 63.804149 
L 469.998 63.694961 
L 469.998 63.682829 
L 473.346 63.589818 
L 473.346 63.573642 
L 473.346 63.549378 
L 475.02 63.470521 
L 475.02 63.440191 
L 475.02 63.419971 
L 477.81 63.324938 
L 477.81 63.310784 
L 477.81 63.304718 
L 479.484 63.21575 
L 479.484 63.19553 
L 479.484 63.189464 
L 482.274 63.086343 
L 482.274 63.080277 
L 482.274 63.072189 
L 485.064 62.969068 
L 485.064 62.963002 
L 485.064 62.932672 
L 487.854 62.827528 
L 487.854 62.823484 
L 487.854 62.793155 
L 490.644 62.698121 
L 490.644 62.683967 
L 490.644 62.663747 
L 493.434 62.568714 
L 493.434 62.55456 
L 493.434 62.54445 
L 496.224 62.439307 
L 496.224 62.435263 
L 496.224 62.425153 
L 499.014 62.342251 
L 499.014 62.315965 
L 499.014 62.297767 
L 502.362 62.194646 
L 502.362 62.18858 
L 502.362 62.172404 
L 505.152 62.071305 
L 505.152 62.063217 
L 505.152 62.040975 
L 508.5 61.972227 
L 508.5 61.931788 
L 508.5 61.897414 
L 512.964 61.798336 
L 512.964 61.788226 
L 512.964 61.768007 
L 517.428 61.660841 
L 517.428 61.658819 
L 517.428 61.654775 
L 520.218 61.551654 
L 520.218 61.545588 
L 520.218 61.539522 
L 524.124 61.444488 
L 524.124 61.430335 
L 524.124 61.414159 
L 528.588 61.315081 
L 528.588 61.304971 
L 528.588 61.286773 
L 531.936 61.193762 
L 531.936 61.177586 
L 531.936 61.167476 
L 534.726 61.094684 
L 534.726 61.058289 
L 534.726 61.054245 
L 539.748 60.945057 
L 539.748 60.936969 
L 544.77 60.837892 
L 544.77 60.827782 
L 544.77 60.821716 
L 553.698 60.720617 
L 553.698 60.712529 
L 553.698 60.708485 
L 569.322 60.599297 
L 569.322 60.583121 
L 648 60.542682 
L 648 60.48 
" clip-path="url(#pa3859416e8)" style="fill: none; stroke: #ff7f0e; stroke-width: 2.8; stroke-linecap: round"/>
   </g>
   <g id="line2d_14">
    <path d="M 102.276 441 
L 102.276 440.997978 
L 107.298 440.898901 
L 107.298 440.888791 
L 107.298 440.882725 
L 110.646 440.797801 
L 110.646 440.773537 
L 110.646 440.771515 
L 112.878 440.676482 
L 112.878 440.662328 
L 112.878 440.648174 
L 115.11 440.565273 
L 115.11 440.538987 
L 115.11 440.532921 
L 116.784 440.468217 
L 116.784 440.423733 
L 116.784 440.419689 
L 117.9 440.35903 
L 117.9 440.310502 
L 117.9 440.29837 
L 120.132 440.213447 
L 120.132 440.189183 
L 120.132 440.179073 
L 122.364 440.079995 
L 122.364 440.069885 
L 122.364 440.0436 
L 124.038 439.944522 
L 124.038 439.934412 
L 124.038 439.904082 
L 126.27 439.827247 
L 126.27 439.794895 
L 126.27 439.762543 
L 127.944 439.675598 
L 127.944 439.653356 
L 127.944 439.62707 
L 129.618 439.540124 
L 129.618 439.517883 
L 129.618 439.485531 
L 131.292 439.390497 
L 131.292 439.376343 
L 131.292 439.333882 
L 132.966 439.23076 
L 132.966 439.224694 
L 132.966 439.202452 
L 134.64 439.125617 
L 134.64 439.093265 
L 134.64 439.077089 
L 135.756 439.018451 
L 135.756 438.967902 
L 135.756 438.963858 
L 137.988 438.856692 
L 137.988 438.85467 
L 137.988 438.781879 
L 139.104 438.717175 
L 139.104 438.672691 
L 139.104 438.658538 
L 140.22 438.573614 
L 140.22 438.54935 
L 140.22 438.488691 
L 141.336 438.401745 
L 141.336 438.379503 
L 141.336 438.343107 
L 142.452 438.27436 
L 142.452 438.23392 
L 142.452 438.181348 
L 143.568 438.134843 
L 143.568 438.072161 
L 143.568 438.051941 
L 144.126 438.051941 
L 144.126 437.942754 
L 144.126 437.920512 
L 144.684 437.920512 
L 144.684 437.811324 
L 144.684 437.778973 
L 145.242 437.778973 
L 145.242 437.669785 
L 145.242 437.657653 
L 146.358 437.60306 
L 146.358 437.548466 
L 146.358 437.48174 
L 146.916 437.48174 
L 146.916 437.372553 
L 146.916 437.287629 
L 147.474 437.287629 
L 147.474 437.178442 
L 147.474 437.138002 
L 148.032 437.138002 
L 148.032 437.028815 
L 148.032 437.000507 
L 148.59 437.000507 
L 148.59 436.89132 
L 148.59 436.814484 
L 149.148 436.814484 
L 149.148 436.705297 
L 149.148 436.618351 
L 149.706 436.618351 
L 149.706 436.509164 
L 149.706 436.42424 
L 150.264 436.42424 
L 150.264 436.315053 
L 150.264 436.122964 
L 150.822 436.122964 
L 150.822 436.013777 
L 150.822 435.932897 
L 151.38 435.932897 
L 151.38 435.82371 
L 151.38 435.597247 
L 151.938 435.597247 
L 151.938 435.48806 
L 151.938 435.469862 
L 152.496 435.469862 
L 152.496 435.360675 
L 152.496 435.229245 
L 153.054 435.229245 
L 153.054 435.120058 
L 153.054 434.964365 
L 153.612 434.964365 
L 153.612 434.855178 
L 153.612 434.648935 
L 154.17 434.648935 
L 154.17 434.539747 
L 154.17 434.418428 
L 154.728 434.418428 
L 154.728 434.309241 
L 154.728 434.149504 
L 155.286 434.149504 
L 155.286 434.040316 
L 155.286 433.747128 
L 155.844 433.747128 
L 155.844 433.637941 
L 155.844 433.498423 
L 156.402 433.498423 
L 156.402 433.389236 
L 156.402 433.120312 
L 156.96 433.120312 
L 156.96 433.011124 
L 156.96 432.744222 
L 157.518 432.744222 
L 157.518 432.635034 
L 157.518 432.351956 
L 158.076 432.351956 
L 158.076 432.242769 
L 158.076 431.903075 
L 158.634 431.903075 
L 158.634 431.793887 
L 158.634 431.3996 
L 159.192 431.3996 
L 159.192 431.290412 
L 159.192 430.857707 
L 159.75 430.857707 
L 159.75 430.748519 
L 159.75 430.467463 
L 160.308 430.467463 
L 160.308 430.358276 
L 160.308 429.93568 
L 160.866 429.93568 
L 160.866 429.826493 
L 160.866 429.365479 
L 161.424 429.365479 
L 161.424 429.256292 
L 161.424 428.744729 
L 161.982 428.744729 
L 161.982 428.635542 
L 161.982 428.13611 
L 162.54 428.13611 
L 162.54 428.026923 
L 162.54 427.343491 
L 163.098 427.343491 
L 163.098 427.234304 
L 163.098 426.76318 
L 163.656 426.76318 
L 163.656 426.653993 
L 163.656 426.015045 
L 164.214 426.015045 
L 164.214 425.905857 
L 164.214 425.355877 
L 164.772 425.355877 
L 164.772 425.246689 
L 164.772 424.741192 
L 165.33 424.741192 
L 165.33 424.632005 
L 165.33 423.928353 
L 165.888 423.928353 
L 165.888 423.819165 
L 165.888 423.220657 
L 166.446 423.220657 
L 166.446 423.11147 
L 166.446 422.472521 
L 167.004 422.472521 
L 167.004 422.363334 
L 167.004 421.65766 
L 167.562 421.65766 
L 167.562 421.548473 
L 167.562 420.838755 
L 168.12 420.838755 
L 168.12 420.729567 
L 168.12 419.819673 
L 168.678 419.819673 
L 168.678 419.710485 
L 168.678 418.940108 
L 169.236 418.940108 
L 169.236 418.83092 
L 169.236 418.090873 
L 169.794 418.090873 
L 169.794 417.981685 
L 169.794 417.282077 
L 170.352 417.282077 
L 170.352 417.17289 
L 170.352 416.198292 
L 170.91 416.198292 
L 170.91 416.089104 
L 170.91 415.01745 
L 171.468 415.01745 
L 171.468 414.908263 
L 171.468 413.802235 
L 172.026 413.802235 
L 172.026 413.693048 
L 172.026 412.750801 
L 172.584 412.750801 
L 172.584 412.641614 
L 172.584 411.764071 
L 173.142 411.764071 
L 173.142 411.654884 
L 173.142 410.536724 
L 173.7 410.536724 
L 173.7 410.427537 
L 173.7 409.384191 
L 174.258 409.384191 
L 174.258 409.275004 
L 174.258 408.175042 
L 174.816 408.175042 
L 174.816 408.065855 
L 174.816 406.601935 
L 175.374 406.601935 
L 175.374 406.492748 
L 175.374 405.087466 
L 175.932 405.087466 
L 175.932 404.978278 
L 175.932 403.467853 
L 176.49 403.467853 
L 176.49 403.358666 
L 176.49 401.947318 
L 177.048 401.947318 
L 177.048 401.838131 
L 177.048 400.248848 
L 177.606 400.248848 
L 177.606 400.13966 
L 177.606 398.81728 
L 178.164 398.81728 
L 178.164 398.708093 
L 178.164 397.086458 
L 178.722 397.086458 
L 178.722 396.977271 
L 178.722 395.357658 
L 179.28 395.357658 
L 179.28 395.248471 
L 179.28 393.222438 
L 179.838 393.222438 
L 179.838 393.113251 
L 179.838 391.467353 
L 180.396 391.467353 
L 180.396 391.358165 
L 180.396 389.685981 
L 180.954 389.685981 
L 180.954 389.576794 
L 180.954 387.781268 
L 181.512 387.781268 
L 181.512 387.672081 
L 181.512 385.807807 
L 182.07 385.807807 
L 182.07 385.69862 
L 182.07 384.240766 
L 182.628 384.240766 
L 182.628 384.131579 
L 182.628 382.495791 
L 183.186 382.495791 
L 183.186 382.386603 
L 183.186 380.299911 
L 183.744 380.299911 
L 183.744 380.190724 
L 183.744 378.174802 
L 184.302 378.174802 
L 184.302 378.065614 
L 184.302 375.689778 
L 184.86 375.689778 
L 184.86 375.580591 
L 184.86 373.433239 
L 185.418 373.433239 
L 185.418 373.324052 
L 185.418 371.144348 
L 185.976 371.144348 
L 185.976 371.035161 
L 185.976 368.873655 
L 186.534 368.873655 
L 186.534 368.764468 
L 186.534 366.811227 
L 187.092 366.811227 
L 187.092 366.70204 
L 187.092 364.174555 
L 187.65 364.174555 
L 187.65 364.065367 
L 187.65 362.148522 
L 188.208 362.148522 
L 188.208 362.039335 
L 188.208 359.639235 
L 188.766 359.639235 
L 188.766 359.530047 
L 188.766 357.971094 
L 189.324 357.971094 
L 189.324 357.861907 
L 189.324 355.31218 
L 189.882 355.31218 
L 189.882 355.202992 
L 189.882 352.726057 
L 190.44 352.726057 
L 190.44 352.616869 
L 190.44 350.7162 
L 190.998 350.7162 
L 190.998 350.607013 
L 190.998 348.024934 
L 191.556 348.024934 
L 191.556 347.915747 
L 191.556 345.283118 
L 192.114 345.283118 
L 192.114 345.173931 
L 192.114 343.412779 
L 192.672 343.412779 
L 192.672 343.303591 
L 192.672 340.968195 
L 193.23 340.968195 
L 193.23 340.859007 
L 193.23 338.169763 
L 193.788 338.169763 
L 193.788 338.060576 
L 193.788 335.797971 
L 194.346 335.797971 
L 194.346 335.688783 
L 194.346 333.955939 
L 194.904 333.955939 
L 194.904 333.846752 
L 194.904 330.862297 
L 195.462 330.862297 
L 195.462 330.75311 
L 195.462 328.441977 
L 196.02 328.441977 
L 196.02 328.33279 
L 196.02 325.643546 
L 196.578 325.643546 
L 196.578 325.534358 
L 196.578 323.271753 
L 197.136 323.271753 
L 197.136 323.162566 
L 197.136 321.172929 
L 197.694 321.172929 
L 197.694 321.063742 
L 197.694 318.695994 
L 198.252 318.695994 
L 198.252 318.586806 
L 198.252 316.075497 
L 198.81 316.075497 
L 198.81 315.96631 
L 198.81 313.416582 
L 199.368 313.416582 
L 199.368 313.307395 
L 199.368 310.601975 
L 199.926 310.601975 
L 199.926 310.492787 
L 199.926 308.102797 
L 200.484 308.102797 
L 200.484 307.99361 
L 200.484 306.628768 
L 201.042 306.628768 
L 201.042 306.51958 
L 201.042 303.569499 
L 201.6 303.569499 
L 201.6 303.460312 
L 201.6 300.206933 
L 202.158 300.206933 
L 202.158 300.097745 
L 202.158 296.876718 
L 202.716 296.876718 
L 202.716 296.767531 
L 202.716 295.493678 
L 203.274 295.493678 
L 203.274 295.384491 
L 203.274 293.160304 
L 203.832 293.160304 
L 203.832 293.051116 
L 203.832 290.479147 
L 204.39 290.479147 
L 204.39 290.36996 
L 204.39 287.597814 
L 204.948 287.597814 
L 204.948 287.488626 
L 204.948 285.088526 
L 205.506 285.088526 
L 205.506 284.979339 
L 205.506 282.870405 
L 206.064 282.870405 
L 206.064 282.761218 
L 206.064 280.383359 
L 206.622 280.383359 
L 206.622 280.274172 
L 206.622 277.710291 
L 207.18 277.710291 
L 207.18 277.601104 
L 207.18 275.655951 
L 207.738 275.655951 
L 207.738 275.546763 
L 207.738 272.811013 
L 208.296 272.811013 
L 208.296 272.701826 
L 208.296 270.042911 
L 208.854 270.042911 
L 208.854 269.933724 
L 208.854 267.614503 
L 209.412 267.614503 
L 209.412 267.505316 
L 209.412 265.246755 
L 209.97 265.246755 
L 209.97 265.137568 
L 209.97 262.822391 
L 210.528 262.822391 
L 210.528 262.713204 
L 210.528 260.321192 
L 211.086 260.321192 
L 211.086 260.212004 
L 211.086 257.75731 
L 211.644 257.75731 
L 211.644 257.648123 
L 211.644 255.454266 
L 212.202 255.454266 
L 212.202 255.345078 
L 212.202 253.187617 
L 212.76 253.187617 
L 212.76 253.078429 
L 212.76 250.775385 
L 213.318 250.775385 
L 213.318 250.666197 
L 213.318 248.348999 
L 213.876 248.348999 
L 213.876 248.239811 
L 213.876 245.732546 
L 214.434 245.732546 
L 214.434 245.623359 
L 214.434 244.001724 
L 214.992 244.001724 
L 214.992 243.892537 
L 214.992 241.24171 
L 215.55 241.24171 
L 215.55 241.132523 
L 215.55 239.262183 
L 216.108 239.262183 
L 216.108 239.152996 
L 216.108 236.959139 
L 216.666 236.959139 
L 216.666 236.849951 
L 216.666 234.953326 
L 217.224 234.953326 
L 217.224 234.844139 
L 217.224 232.5876 
L 217.782 232.5876 
L 217.782 232.478413 
L 217.782 230.446314 
L 218.34 230.446314 
L 218.34 230.337127 
L 218.34 228.1736 
L 218.898 228.1736 
L 218.898 228.064412 
L 218.898 225.929193 
L 219.456 225.929193 
L 219.456 225.820005 
L 219.456 224.032568 
L 220.014 224.032568 
L 220.014 223.92338 
L 220.014 221.881172 
L 220.572 221.881172 
L 220.572 221.771985 
L 220.572 219.711579 
L 221.13 219.711579 
L 221.13 219.602391 
L 221.13 217.73003 
L 221.688 217.73003 
L 221.688 217.620843 
L 221.688 215.515953 
L 222.246 215.515953 
L 222.246 215.406765 
L 222.246 213.508118 
L 222.804 213.508118 
L 222.804 213.398931 
L 222.804 211.447712 
L 223.362 211.447712 
L 223.362 211.338525 
L 223.362 209.619835 
L 223.92 209.619835 
L 223.92 209.510648 
L 223.92 207.824309 
L 224.478 207.824309 
L 224.478 207.715122 
L 224.478 205.968124 
L 225.036 205.968124 
L 225.036 205.858937 
L 225.036 204.039147 
L 225.594 204.039147 
L 225.594 203.92996 
L 225.594 202.263842 
L 226.152 202.263842 
L 226.152 202.154654 
L 226.152 200.474382 
L 226.71 200.474382 
L 226.71 200.365195 
L 226.71 198.3978 
L 227.268 198.3978 
L 227.268 198.288613 
L 227.268 197.257398 
L 227.826 197.257398 
L 227.826 197.148211 
L 227.826 194.845166 
L 228.384 194.845166 
L 228.384 194.735979 
L 228.384 192.55021 
L 228.942 192.55021 
L 228.942 192.441022 
L 228.942 192.246911 
L 229.5 192.246911 
L 229.5 192.137724 
L 229.5 189.561711 
L 230.058 189.561711 
L 230.058 189.452524 
L 230.058 189.175511 
L 230.616 189.175511 
L 230.616 189.066324 
L 230.616 186.779455 
L 231.174 186.779455 
L 231.174 186.670268 
L 231.174 184.789819 
L 231.732 184.789819 
L 231.732 184.680631 
L 231.732 183.93654 
L 232.29 183.93654 
L 232.29 183.827352 
L 232.29 181.910507 
L 232.848 181.910507 
L 232.848 181.80132 
L 232.848 180.545665 
L 233.406 180.545665 
L 233.406 180.436478 
L 233.406 178.877525 
L 233.964 178.877525 
L 233.964 178.768337 
L 233.964 177.468199 
L 234.522 177.468199 
L 234.522 177.359012 
L 234.522 175.733333 
L 235.08 175.733333 
L 235.08 175.624146 
L 235.08 174.435217 
L 235.638 174.435217 
L 235.638 174.326029 
L 235.638 172.708439 
L 236.196 172.708439 
L 236.196 172.599251 
L 236.196 171.157574 
L 236.754 171.157574 
L 236.754 171.048386 
L 236.754 169.734094 
L 237.312 169.734094 
L 237.312 169.624906 
L 237.312 168.446087 
L 237.87 168.446087 
L 237.87 168.3369 
L 237.87 166.992278 
L 238.428 166.992278 
L 238.428 166.88309 
L 238.428 165.659787 
L 238.986 165.659787 
L 238.986 165.5506 
L 238.986 164.301011 
L 239.544 164.301011 
L 239.544 164.191824 
L 239.544 162.647025 
L 240.102 162.647025 
L 240.102 162.537837 
L 240.102 161.573349 
L 240.66 161.573349 
L 240.66 161.464162 
L 240.66 160.014396 
L 241.218 160.014396 
L 241.218 159.905209 
L 241.218 158.914434 
L 241.776 158.914434 
L 241.776 158.805247 
L 241.776 157.699219 
L 242.334 157.699219 
L 242.334 157.590032 
L 242.334 156.336399 
L 242.892 156.336399 
L 242.892 156.227212 
L 242.892 155.517494 
L 243.45 155.517494 
L 243.45 155.408307 
L 243.45 154.013135 
L 244.008 154.013135 
L 244.008 153.903947 
L 244.008 152.882843 
L 244.566 152.882843 
L 244.566 152.773656 
L 244.566 151.633255 
L 245.124 151.633255 
L 245.124 151.524067 
L 245.124 150.624282 
L 245.682 150.624282 
L 245.682 150.515095 
L 245.682 149.536453 
L 246.24 149.536453 
L 246.24 149.427265 
L 246.24 148.422337 
L 246.798 148.422337 
L 246.798 148.31315 
L 246.798 147.320353 
L 247.356 147.320353 
L 247.356 147.211166 
L 247.356 146.400349 
L 247.914 146.400349 
L 247.914 146.291161 
L 247.914 145.482366 
L 248.472 145.482366 
L 248.472 145.373179 
L 248.472 144.453174 
L 249.03 144.453174 
L 249.03 144.343987 
L 249.03 143.612027 
L 249.588 143.612027 
L 249.588 143.50284 
L 249.588 142.787056 
L 250.146 142.787056 
L 250.146 142.677868 
L 250.146 141.757864 
L 250.704 141.757864 
L 250.704 141.648676 
L 250.704 140.548715 
L 251.262 140.548715 
L 251.262 140.439527 
L 251.262 139.576138 
L 251.82 139.576138 
L 251.82 139.466951 
L 251.82 138.878552 
L 252.378 138.878552 
L 252.378 138.769365 
L 252.378 137.905976 
L 252.936 137.905976 
L 252.936 137.796789 
L 252.936 137.123466 
L 253.494 137.123466 
L 253.494 137.014279 
L 253.494 136.163022 
L 254.052 136.163022 
L 254.052 136.053835 
L 254.052 135.477568 
L 254.61 135.477568 
L 254.61 135.368381 
L 254.61 134.610135 
L 255.168 134.610135 
L 255.168 134.500948 
L 255.168 133.924681 
L 255.726 133.924681 
L 255.726 133.815494 
L 255.726 132.964237 
L 256.284 132.964237 
L 256.284 132.855049 
L 256.284 132.345508 
L 256.842 132.345508 
L 256.842 132.236321 
L 256.842 131.476053 
L 257.4 131.476053 
L 257.4 131.366866 
L 257.4 130.917984 
L 257.958 130.917984 
L 257.958 130.808797 
L 257.958 129.848353 
L 258.516 129.848353 
L 258.516 129.739165 
L 258.516 129.29635 
L 259.074 129.29635 
L 259.074 129.187162 
L 259.074 128.54417 
L 259.632 128.54417 
L 259.632 128.434983 
L 259.632 127.9032 
L 260.19 127.9032 
L 260.19 127.794012 
L 260.19 127.215724 
L 260.748 127.215724 
L 260.748 127.106536 
L 260.748 126.609127 
L 261.306 126.609127 
L 261.306 126.49994 
L 261.306 125.802354 
L 261.864 125.802354 
L 261.864 125.693167 
L 261.864 125.023888 
L 262.422 125.023888 
L 262.422 124.914701 
L 262.422 124.380896 
L 262.98 124.380896 
L 262.98 124.271709 
L 262.98 123.719706 
L 263.538 123.719706 
L 263.538 123.610519 
L 263.538 123.098956 
L 264.096 123.098956 
L 264.096 122.989768 
L 264.096 122.221413 
L 264.654 122.221413 
L 264.654 122.112225 
L 264.654 121.71996 
L 265.212 121.71996 
L 265.212 121.610772 
L 265.212 121.133583 
L 265.77 121.133583 
L 265.77 121.024396 
L 265.77 120.456217 
L 266.328 120.456217 
L 266.328 120.34703 
L 266.328 120.070017 
L 266.886 120.070017 
L 266.886 119.96083 
L 266.886 119.404783 
L 267.444 119.404783 
L 267.444 119.295596 
L 267.444 118.798187 
L 268.002 118.798187 
L 268.002 118.688999 
L 268.002 118.124864 
L 268.56 118.124864 
L 268.56 118.015677 
L 268.56 117.659807 
L 269.118 117.659807 
L 269.118 117.55062 
L 269.118 116.935935 
L 269.676 116.935935 
L 269.676 116.826748 
L 269.676 116.315185 
L 270.234 116.315185 
L 270.234 116.205998 
L 270.234 115.997733 
L 270.792 115.997733 
L 270.792 115.888545 
L 270.792 115.241509 
L 271.35 115.241509 
L 271.35 115.132322 
L 271.35 114.853287 
L 271.908 114.853287 
L 271.908 114.7441 
L 271.908 114.287131 
L 272.466 114.287131 
L 272.466 114.177943 
L 272.466 113.824095 
L 273.024 113.824095 
L 273.024 113.714908 
L 273.024 113.460137 
L 273.582 113.460137 
L 273.582 113.35095 
L 273.582 112.643254 
L 274.698 112.633144 
L 274.698 112.534067 
L 274.698 111.575644 
L 275.814 111.575644 
L 275.814 111.466457 
L 275.814 110.475683 
L 276.93 110.475683 
L 276.93 110.366495 
L 276.93 110.364473 
L 277.488 110.364473 
L 277.488 110.255286 
L 277.488 109.379765 
L 278.604 109.347413 
L 278.604 109.270578 
L 278.604 108.467848 
L 279.162 108.467848 
L 279.162 108.358661 
L 279.162 108.346529 
L 279.72 108.346529 
L 279.72 108.237342 
L 279.72 107.772284 
L 280.278 107.772284 
L 280.278 107.663097 
L 280.278 107.230391 
L 280.836 107.230391 
L 280.836 107.121204 
L 280.836 106.908895 
L 281.394 106.908895 
L 281.394 106.799708 
L 281.394 106.352849 
L 281.952 106.352849 
L 281.952 106.243661 
L 281.952 106.075836 
L 282.51 106.075836 
L 282.51 105.966649 
L 282.51 105.685592 
L 283.068 105.685592 
L 283.068 105.576405 
L 283.068 105.256931 
L 283.626 105.256931 
L 283.626 105.147744 
L 283.626 104.99205 
L 284.184 104.99205 
L 284.184 104.882863 
L 284.184 104.490597 
L 284.742 104.490597 
L 284.742 104.38141 
L 284.742 104.209541 
L 285.3 104.209541 
L 285.3 104.100354 
L 285.3 103.849627 
L 285.858 103.849627 
L 285.858 103.74044 
L 285.858 103.544307 
L 286.416 103.544307 
L 286.416 103.435119 
L 286.416 103.236965 
L 286.974 103.236965 
L 286.974 103.127777 
L 286.974 102.850765 
L 287.532 102.850765 
L 287.532 102.741577 
L 287.532 102.543423 
L 288.09 102.543423 
L 288.09 102.434235 
L 288.09 102.272476 
L 288.648 102.272476 
L 288.648 102.163289 
L 288.648 101.924694 
L 289.206 101.924694 
L 289.206 101.815507 
L 289.206 101.578934 
L 289.764 101.578934 
L 289.764 101.469747 
L 289.764 101.297878 
L 290.322 101.297878 
L 290.322 101.18869 
L 290.322 100.95414 
L 290.88 100.95414 
L 290.88 100.844952 
L 290.88 100.646798 
L 291.438 100.646798 
L 291.438 100.53761 
L 291.438 100.387983 
L 291.996 100.387983 
L 291.996 100.278796 
L 291.996 100.040201 
L 292.554 100.040201 
L 292.554 99.931014 
L 292.554 99.882486 
L 293.112 99.882486 
L 293.112 99.773299 
L 293.112 99.467978 
L 293.67 99.467978 
L 293.67 99.358791 
L 293.67 99.281955 
L 294.228 99.281955 
L 294.228 99.172768 
L 294.228 98.932151 
L 294.786 98.932151 
L 294.786 98.822964 
L 294.786 98.713777 
L 295.344 98.713777 
L 295.344 98.604589 
L 295.344 98.43272 
L 295.902 98.43272 
L 295.902 98.323533 
L 295.902 98.21839 
L 296.46 98.21839 
L 296.46 98.109202 
L 296.46 97.953509 
L 297.018 97.953509 
L 297.018 97.844322 
L 297.018 97.676497 
L 297.576 97.676497 
L 297.576 97.567309 
L 297.576 97.431836 
L 298.134 97.431836 
L 298.134 97.322649 
L 298.134 97.156846 
L 298.692 97.156846 
L 298.692 97.047658 
L 298.692 96.944537 
L 299.25 96.944537 
L 299.25 96.83535 
L 299.25 96.673591 
L 299.808 96.673591 
L 299.808 96.564403 
L 299.808 96.42893 
L 300.366 96.42893 
L 300.366 96.319743 
L 300.366 96.176181 
L 300.924 96.176181 
L 300.924 96.066994 
L 300.924 95.919389 
L 301.482 95.919389 
L 301.482 95.810202 
L 301.482 95.70708 
L 302.04 95.70708 
L 302.04 95.597893 
L 302.04 95.470508 
L 302.598 95.470508 
L 302.598 95.36132 
L 302.598 95.252133 
L 303.156 95.252133 
L 303.156 95.142945 
L 303.156 95.06611 
L 303.714 95.06611 
L 303.714 94.956922 
L 303.714 94.69002 
L 304.272 94.69002 
L 304.272 94.580833 
L 304.272 94.558591 
L 304.83 94.558591 
L 304.83 94.449403 
L 304.83 94.269446 
L 305.388 94.269446 
L 305.388 94.160259 
L 305.388 94.012654 
L 305.946 94.012654 
L 305.946 93.903467 
L 305.946 93.774059 
L 306.504 93.774059 
L 306.504 93.664872 
L 306.504 93.541531 
L 307.062 93.541531 
L 307.062 93.432343 
L 307.062 93.333266 
L 307.62 93.333266 
L 307.62 93.224079 
L 307.62 93.127023 
L 308.178 93.127023 
L 308.178 93.017836 
L 308.178 92.892472 
L 308.736 92.892472 
L 308.736 92.783285 
L 308.736 92.728691 
L 309.294 92.728691 
L 309.294 92.619504 
L 309.294 92.492119 
L 309.852 92.492119 
L 309.852 92.382931 
L 309.852 92.283854 
L 310.41 92.283854 
L 310.41 92.174667 
L 310.41 92.148381 
L 310.968 92.148381 
L 310.968 92.039193 
L 310.968 91.86328 
L 311.526 91.86328 
L 311.526 91.754093 
L 311.526 91.632774 
L 312.084 91.632774 
L 312.084 91.523586 
L 312.084 91.50741 
L 312.642 91.50741 
L 312.642 91.398223 
L 312.642 91.325432 
L 313.2 91.325432 
L 313.2 91.216244 
L 313.2 91.111101 
L 313.758 91.111101 
L 313.758 91.001913 
L 313.758 90.987759 
L 314.316 90.987759 
L 314.316 90.878572 
L 314.316 90.801737 
L 314.874 90.801737 
L 314.874 90.692549 
L 314.874 90.56112 
L 315.432 90.56112 
L 315.432 90.451933 
L 315.432 90.383185 
L 315.99 90.383185 
L 315.99 90.273998 
L 315.99 90.263888 
L 316.548 90.263888 
L 316.548 90.1547 
L 316.548 90.049557 
L 317.106 90.049557 
L 317.106 89.94037 
L 317.106 89.91004 
L 317.664 89.91004 
L 317.664 89.800852 
L 317.664 89.736149 
L 318.222 89.736149 
L 318.222 89.626961 
L 318.222 89.55417 
L 318.78 89.55417 
L 318.78 89.444982 
L 318.78 89.398477 
L 319.338 89.398477 
L 319.338 89.289289 
L 319.338 89.265025 
L 319.896 89.265025 
L 319.896 89.155838 
L 319.896 89.083046 
L 320.454 89.083046 
L 320.454 88.973859 
L 320.454 88.925331 
L 321.012 88.925331 
L 321.012 88.816144 
L 321.012 88.711001 
L 321.57 88.711001 
L 321.57 88.601813 
L 321.57 88.53711 
L 322.128 88.53711 
L 322.128 88.427922 
L 322.128 88.423878 
L 322.686 88.423878 
L 322.686 88.314691 
L 322.686 88.209548 
L 323.244 88.209548 
L 323.244 88.10036 
L 323.244 88.025547 
L 323.802 88.025547 
L 323.802 87.916359 
L 323.802 87.86581 
L 324.36 87.86581 
L 324.36 87.756622 
L 324.36 87.712138 
L 324.918 87.712138 
L 324.918 87.602951 
L 324.918 87.556445 
L 325.476 87.556445 
L 325.476 87.447258 
L 325.476 87.43917 
L 326.034 87.43917 
L 326.034 87.329983 
L 326.034 87.243037 
L 326.592 87.243037 
L 326.592 87.13385 
L 326.592 87.054992 
L 327.15 87.054992 
L 327.15 86.945805 
L 327.15 86.923563 
L 327.708 86.923563 
L 327.708 86.814376 
L 327.708 86.753716 
L 328.266 86.753716 
L 328.266 86.644529 
L 328.266 86.610155 
L 329.382 86.547473 
L 329.382 86.500967 
L 329.382 86.375604 
L 329.94 86.375604 
L 329.94 86.266417 
L 329.94 86.175427 
L 330.498 86.175427 
L 330.498 86.06624 
L 330.498 86.019734 
L 331.056 86.019734 
L 331.056 85.910547 
L 331.056 85.862019 
L 331.614 85.862019 
L 331.614 85.752832 
L 331.614 85.72048 
L 332.172 85.72048 
L 332.172 85.611293 
L 332.172 85.508171 
L 332.73 85.508171 
L 332.73 85.398984 
L 332.73 85.360566 
L 333.846 85.267555 
L 333.846 85.251379 
L 333.846 85.126015 
L 334.404 85.126015 
L 334.404 85.016828 
L 334.404 84.923817 
L 335.52 84.814629 
L 335.52 84.691288 
L 336.078 84.691288 
L 336.078 84.582101 
L 336.078 84.537617 
L 337.194 84.450671 
L 337.194 84.428429 
L 337.194 84.343506 
L 337.752 84.343506 
L 337.752 84.234319 
L 337.752 84.155461 
L 338.868 84.048296 
L 338.868 84.046274 
L 338.868 83.967416 
L 339.426 83.967416 
L 339.426 83.858229 
L 339.426 83.844075 
L 339.984 83.844075 
L 339.984 83.734887 
L 339.984 83.722755 
L 340.542 83.722755 
L 340.542 83.613568 
L 340.542 83.611546 
L 341.1 83.611546 
L 341.1 83.502359 
L 341.1 83.476073 
L 342.216 83.374974 
L 342.216 83.366886 
L 342.216 83.233434 
L 342.774 83.233434 
L 342.774 83.124247 
L 342.774 83.104027 
L 343.89 83.029214 
L 343.89 82.99484 
L 343.89 82.841169 
L 345.006 82.766355 
L 345.006 82.731981 
L 345.006 82.653124 
L 346.122 82.550002 
L 346.122 82.543936 
L 346.122 82.402397 
L 347.238 82.295232 
L 347.238 82.29321 
L 347.238 82.206264 
L 347.796 82.206264 
L 347.796 82.097077 
L 347.796 82.086967 
L 348.912 81.993956 
L 348.912 81.97778 
L 348.912 81.900944 
L 349.47 81.900944 
L 349.47 81.791757 
L 349.47 81.769515 
L 350.028 81.769515 
L 350.028 81.660327 
L 350.028 81.640108 
L 351.144 81.534964 
L 351.144 81.53092 
L 351.144 81.407579 
L 351.702 81.407579 
L 351.702 81.298392 
L 351.702 81.294348 
L 352.818 81.231666 
L 352.818 81.18516 
L 352.818 81.130566 
L 353.376 81.130566 
L 353.376 81.021379 
L 353.376 80.968807 
L 354.492 80.875796 
L 354.492 80.85962 
L 354.492 80.784806 
L 355.608 80.681685 
L 355.608 80.675619 
L 355.608 80.570476 
L 356.166 80.570476 
L 356.166 80.461288 
L 356.166 80.412761 
L 357.282 80.315705 
L 357.282 80.303573 
L 357.282 80.234826 
L 357.84 80.234826 
L 357.84 80.125638 
L 357.84 80.044759 
L 358.398 80.044759 
L 358.398 79.935571 
L 358.398 79.91333 
L 359.514 79.86278 
L 359.514 79.804142 
L 359.514 79.763702 
L 360.072 79.763702 
L 360.072 79.654515 
L 360.072 79.508932 
L 360.63 79.508932 
L 360.63 79.399745 
L 360.63 79.359305 
L 361.746 79.282469 
L 361.746 79.250117 
L 361.746 79.248095 
L 362.304 79.248095 
L 362.304 79.138908 
L 362.304 79.064094 
L 362.862 79.064094 
L 362.862 78.954907 
L 362.862 78.938731 
L 364.536 78.894247 
L 364.536 78.829544 
L 364.536 78.599037 
L 366.768 78.497938 
L 366.768 78.48985 
L 366.768 78.11376 
L 369 78.099606 
L 369 78.004573 
L 369 77.768 
L 371.232 77.749802 
L 371.232 77.658813 
L 371.232 77.428306 
L 373.464 77.357536 
L 373.464 77.319119 
L 373.464 77.070414 
L 375.138 77.01582 
L 375.138 76.961227 
L 375.138 76.955161 
L 376.254 76.847995 
L 376.254 76.845973 
L 376.254 76.767116 
L 377.928 76.663994 
L 377.928 76.657928 
L 377.928 76.556829 
L 379.044 76.449664 
L 379.044 76.447642 
L 379.044 76.38496 
L 380.16 76.298014 
L 380.16 76.275773 
L 380.16 76.225223 
L 380.718 76.225223 
L 380.718 76.116036 
L 380.718 76.085706 
L 381.834 75.994716 
L 381.834 75.976518 
L 381.834 75.921925 
L 382.95 75.861265 
L 382.95 75.812737 
L 382.95 75.760166 
L 384.066 75.687374 
L 384.066 75.650978 
L 384.066 75.63278 
L 385.182 75.523593 
L 385.182 75.414406 
L 386.298 75.325438 
L 386.298 75.305218 
L 386.298 75.250625 
L 387.414 75.189965 
L 387.414 75.141437 
L 387.414 75.086843 
L 388.53 74.993832 
L 388.53 74.977656 
L 388.53 74.95137 
L 389.646 74.925084 
L 389.646 74.842183 
L 389.646 74.834095 
L 391.32 74.732996 
L 391.32 74.724908 
L 391.32 74.668292 
L 392.436 74.61572 
L 392.436 74.559105 
L 392.436 74.514621 
L 393.552 74.421609 
L 393.552 74.405433 
L 393.552 74.38117 
L 394.668 74.29018 
L 394.668 74.271982 
L 394.668 74.241652 
L 396.342 74.134487 
L 396.342 74.132465 
L 396.342 74.063717 
L 398.016 73.96464 
L 398.016 73.95453 
L 398.016 73.940376 
L 399.132 73.857475 
L 399.132 73.831189 
L 399.132 73.802881 
L 400.806 73.703803 
L 400.806 73.693694 
L 400.806 73.616858 
L 402.48 73.517781 
L 402.48 73.507671 
L 402.48 73.451055 
L 403.596 73.398483 
L 403.596 73.341868 
L 403.596 73.299406 
L 405.27 73.250878 
L 405.27 73.190218 
L 405.27 73.188196 
L 406.386 73.115405 
L 406.386 73.079009 
L 406.386 73.068899 
L 407.502 73.004196 
L 407.502 72.959712 
L 407.502 72.925338 
L 408.618 72.83637 
L 408.618 72.816151 
L 408.618 72.739315 
L 410.292 72.670567 
L 410.292 72.630128 
L 410.292 72.615974 
L 411.408 72.527006 
L 411.408 72.506786 
L 411.408 72.474435 
L 413.082 72.369291 
L 413.082 72.365247 
L 413.082 72.27628 
L 414.756 72.189334 
L 414.756 72.167092 
L 414.756 72.15496 
L 415.314 72.15496 
L 415.314 72.045773 
L 415.314 72.033641 
L 416.988 71.964894 
L 416.988 71.924454 
L 416.988 71.87997 
L 418.104 71.827398 
L 418.104 71.770783 
L 418.104 71.720233 
L 419.778 71.613068 
L 419.778 71.611046 
L 419.778 71.576672 
L 420.894 71.499836 
L 420.894 71.467484 
L 420.894 71.414913 
L 422.568 71.342121 
L 422.568 71.305725 
L 422.568 71.283483 
L 423.684 71.220802 
L 423.684 71.174296 
L 423.684 71.111614 
L 425.916 71.032757 
L 425.916 71.002427 
L 425.916 70.921548 
L 427.032 70.86291 
L 427.032 70.81236 
L 427.032 70.808316 
L 428.706 70.725415 
L 428.706 70.699129 
L 428.706 70.672843 
L 429.822 70.614205 
L 429.822 70.563656 
L 429.822 70.535348 
L 431.496 70.458512 
L 431.496 70.42616 
L 431.496 70.347303 
L 433.17 70.250247 
L 433.17 70.238116 
L 433.17 70.19161 
L 434.286 70.126906 
L 434.286 70.082422 
L 434.286 70.068269 
L 435.402 70.023785 
L 435.402 69.959081 
L 435.402 69.890334 
L 437.076 69.821586 
L 437.076 69.781146 
L 437.076 69.746772 
L 438.192 69.684091 
L 438.192 69.637585 
L 438.192 69.623431 
L 439.308 69.514244 
L 439.308 69.465716 
L 440.982 69.380792 
L 440.982 69.356529 
L 440.982 69.314067 
L 442.656 69.259473 
L 442.656 69.20488 
L 442.656 69.140176 
L 444.33 69.055252 
L 444.33 69.030989 
L 444.33 68.958197 
L 446.004 68.853054 
L 446.004 68.84901 
L 446.004 68.784306 
L 447.12 68.729712 
L 447.12 68.675119 
L 447.12 68.648833 
L 448.794 68.545711 
L 448.794 68.539645 
L 448.794 68.446634 
L 450.468 68.337447 
L 450.468 68.270721 
L 452.142 68.191863 
L 452.142 68.161534 
L 452.142 68.110984 
L 453.816 68.032126 
L 453.816 68.001796 
L 453.816 67.975511 
L 455.49 67.900697 
L 455.49 67.866323 
L 455.49 67.767246 
L 457.164 67.682322 
L 457.164 67.658058 
L 457.164 67.554937 
L 458.838 67.518541 
L 458.838 67.44575 
L 458.838 67.429574 
L 460.512 67.397222 
L 460.512 67.320386 
L 460.512 67.283991 
L 463.302 67.178847 
L 463.302 67.174803 
L 463.302 67.150539 
L 463.86 67.150539 
L 463.86 67.041352 
L 463.86 67.021132 
L 465.534 66.964516 
L 465.534 66.911945 
L 465.534 66.847241 
L 467.208 66.746142 
L 467.208 66.738054 
L 467.208 66.616734 
L 468.882 66.529789 
L 468.882 66.507547 
L 468.882 66.473173 
L 470.556 66.380162 
L 470.556 66.363986 
L 470.556 66.3377 
L 472.23 66.279062 
L 472.23 66.228513 
L 472.23 66.186051 
L 473.904 66.119325 
L 473.904 66.076864 
L 473.904 66.016204 
L 475.02 65.93128 
L 475.02 65.907017 
L 475.02 65.886797 
L 476.136 65.848379 
L 476.136 65.777609 
L 476.136 65.775587 
L 478.368 65.668422 
L 478.368 65.6664 
L 478.368 65.63607 
L 480.042 65.543059 
L 480.042 65.526883 
L 480.042 65.492509 
L 481.716 65.419717 
L 481.716 65.383322 
L 481.716 65.35097 
L 482.832 65.282222 
L 482.832 65.241782 
L 482.832 65.237738 
L 484.506 65.160903 
L 484.506 65.128551 
L 484.506 65.104287 
L 486.18 65.001166 
L 486.18 64.9951 
L 486.18 64.96477 
L 487.854 64.865693 
L 487.854 64.855583 
L 487.854 64.829297 
L 489.528 64.740329 
L 489.528 64.720109 
L 489.528 64.675626 
L 491.76 64.576548 
L 491.76 64.566438 
L 491.76 64.552284 
L 493.992 64.457251 
L 493.992 64.443097 
L 493.992 64.408723 
L 495.666 64.337954 
L 495.666 64.299536 
L 495.666 64.285382 
L 497.898 64.192371 
L 497.898 64.176195 
L 497.898 64.135755 
L 500.688 64.042743 
L 500.688 64.026567 
L 500.688 63.969952 
L 502.92 63.87694 
L 502.92 63.860764 
L 502.92 63.832457 
L 505.152 63.731357 
L 505.152 63.723269 
L 505.152 63.692939 
L 507.384 63.62217 
L 507.384 63.583752 
L 507.384 63.573642 
L 508.5 63.573642 
L 508.5 63.464455 
L 508.5 63.460411 
L 511.29 63.375487 
L 511.29 63.351223 
L 511.29 63.310784 
L 512.964 63.227882 
L 512.964 63.201596 
L 512.964 63.19553 
L 515.196 63.102519 
L 515.196 63.086343 
L 515.196 63.070167 
L 517.428 62.999397 
L 517.428 62.96098 
L 517.428 62.95087 
L 519.102 62.882122 
L 519.102 62.841682 
L 519.102 62.815396 
L 520.776 62.734517 
L 520.776 62.706209 
L 520.776 62.694077 
L 523.566 62.595 
L 523.566 62.58489 
L 523.566 62.578824 
L 525.798 62.487834 
L 525.798 62.469636 
L 525.798 62.457505 
L 527.472 62.382691 
L 527.472 62.348317 
L 527.472 62.340229 
L 530.262 62.237108 
L 530.262 62.231042 
L 530.262 62.224976 
L 531.936 62.164316 
L 531.936 62.115789 
L 531.936 62.101635 
L 535.284 62.022777 
L 535.284 61.992447 
L 535.284 61.990425 
L 537.516 61.945942 
L 537.516 61.881238 
L 537.516 61.836754 
L 539.748 61.759919 
L 539.748 61.727567 
L 539.748 61.709369 
L 542.538 61.616357 
L 542.538 61.600182 
L 542.538 61.592094 
L 545.328 61.49706 
L 545.328 61.482906 
L 545.328 61.474818 
L 548.118 61.367653 
L 548.118 61.365631 
L 548.118 61.286773 
L 551.466 61.187696 
L 551.466 61.177586 
L 551.466 61.169498 
L 555.93 61.072443 
L 555.93 61.060311 
L 555.93 61.056267 
L 558.72 60.949101 
L 558.72 60.947079 
L 558.72 60.926859 
L 565.974 60.821716 
L 565.974 60.817672 
L 565.974 60.797452 
L 578.808 60.694331 
L 578.808 60.688265 
L 578.808 60.684221 
L 602.244 60.581099 
L 602.244 60.575033 
L 602.244 60.568967 
L 648 60.55077 
L 648 60.48 
" clip-path="url(#pa3859416e8)" style="fill: none; stroke: #1f77b4; stroke-width: 2.8; stroke-linecap: round"/>
   </g>
   <g id="patch_3">
    <path d="M 90 441 
L 90 60.48 
" style="fill: none; stroke: #262626; stroke-width: 1.25; stroke-linejoin: miter; stroke-linecap: square"/>
   </g>
   <g id="patch_4">
    <path d="M 648 441 
L 648 60.48 
" style="fill: none; stroke: #262626; stroke-width: 1.25; stroke-linejoin: miter; stroke-linecap: square"/>
   </g>
   <g id="patch_5">
    <path d="M 90 441 
L 648 441 
" style="fill: none; stroke: #262626; stroke-width: 1.25; stroke-linejoin: miter; stroke-linecap: square"/>
   </g>
   <g id="patch_6">
    <path d="M 90 60.48 
L 648 60.48 
" style="fill: none; stroke: #262626; stroke-width: 1.25; stroke-linejoin: miter; stroke-linecap: square"/>
   </g>
   <g id="text_15">
    <!-- Intra-Class Tanimoto Fingerprint Similarity -->
    <g style="fill: #262626" transform="translate(137.224609 54.48)scale(0.25 -0.25)">
     <defs>
      <path id="ArialMT-49" d="M 597 0 
L 597 4581 
L 1203 4581 
L 1203 0 
L 597 0 
z
" transform="scale(0.015625)"/>
      <path id="ArialMT-2d" d="M 203 1375 
L 203 1941 
L 1931 1941 
L 1931 1375 
L 203 1375 
z
" transform="scale(0.015625)"/>
      <path id="ArialMT-43" d="M 3763 1606 
L 4369 1453 
Q 4178 706 3683 314 
Q 3188 -78 2472 -78 
Q 1731 -78 1267 223 
Q 803 525 561 1097 
Q 319 1669 319 2325 
Q 319 3041 592 3573 
Q 866 4106 1370 4382 
Q 1875 4659 2481 4659 
Q 3169 4659 3637 4309 
Q 4106 3959 4291 3325 
L 3694 3184 
Q 3534 3684 3231 3912 
Q 2928 4141 2469 4141 
Q 1941 4141 1586 3887 
Q 1231 3634 1087 3207 
Q 944 2781 944 2328 
Q 944 1744 1114 1308 
Q 1284 872 1643 656 
Q 2003 441 2422 441 
Q 2931 441 3284 734 
Q 3638 1028 3763 1606 
z
" transform="scale(0.015625)"/>
      <path id="ArialMT-6c" d="M 409 0 
L 409 4581 
L 972 4581 
L 972 0 
L 409 0 
z
" transform="scale(0.015625)"/>
      <path id="ArialMT-73" d="M 197 991 
L 753 1078 
Q 800 744 1014 566 
Q 1228 388 1613 388 
Q 2000 388 2187 545 
Q 2375 703 2375 916 
Q 2375 1106 2209 1216 
Q 2094 1291 1634 1406 
Q 1016 1563 777 1677 
Q 538 1791 414 1992 
Q 291 2194 291 2438 
Q 291 2659 392 2848 
Q 494 3038 669 3163 
Q 800 3259 1026 3326 
Q 1253 3394 1513 3394 
Q 1903 3394 2198 3281 
Q 2494 3169 2634 2976 
Q 2775 2784 2828 2463 
L 2278 2388 
Q 2241 2644 2061 2787 
Q 1881 2931 1553 2931 
Q 1166 2931 1000 2803 
Q 834 2675 834 2503 
Q 834 2394 903 2306 
Q 972 2216 1119 2156 
Q 1203 2125 1616 2013 
Q 2213 1853 2448 1751 
Q 2684 1650 2818 1456 
Q 2953 1263 2953 975 
Q 2953 694 2789 445 
Q 2625 197 2315 61 
Q 2006 -75 1616 -75 
Q 969 -75 630 194 
Q 291 463 197 991 
z
" transform="scale(0.015625)"/>
      <path id="ArialMT-20" transform="scale(0.015625)"/>
      <path id="ArialMT-46" d="M 525 0 
L 525 4581 
L 3616 4581 
L 3616 4041 
L 1131 4041 
L 1131 2622 
L 3281 2622 
L 3281 2081 
L 1131 2081 
L 1131 0 
L 525 0 
z
" transform="scale(0.015625)"/>
      <path id="ArialMT-67" d="M 319 -275 
L 866 -356 
Q 900 -609 1056 -725 
Q 1266 -881 1628 -881 
Q 2019 -881 2231 -725 
Q 2444 -569 2519 -288 
Q 2563 -116 2559 434 
Q 2191 0 1641 0 
Q 956 0 581 494 
Q 206 988 206 1678 
Q 206 2153 378 2554 
Q 550 2956 876 3175 
Q 1203 3394 1644 3394 
Q 2231 3394 2613 2919 
L 2613 3319 
L 3131 3319 
L 3131 450 
Q 3131 -325 2973 -648 
Q 2816 -972 2473 -1159 
Q 2131 -1347 1631 -1347 
Q 1038 -1347 672 -1080 
Q 306 -813 319 -275 
z
M 784 1719 
Q 784 1066 1043 766 
Q 1303 466 1694 466 
Q 2081 466 2343 764 
Q 2606 1063 2606 1700 
Q 2606 2309 2336 2618 
Q 2066 2928 1684 2928 
Q 1309 2928 1046 2623 
Q 784 2319 784 1719 
z
" transform="scale(0.015625)"/>
      <path id="ArialMT-65" d="M 2694 1069 
L 3275 997 
Q 3138 488 2766 206 
Q 2394 -75 1816 -75 
Q 1088 -75 661 373 
Q 234 822 234 1631 
Q 234 2469 665 2931 
Q 1097 3394 1784 3394 
Q 2450 3394 2872 2941 
Q 3294 2488 3294 1666 
Q 3294 1616 3291 1516 
L 816 1516 
Q 847 969 1125 678 
Q 1403 388 1819 388 
Q 2128 388 2347 550 
Q 2566 713 2694 1069 
z
M 847 1978 
L 2700 1978 
Q 2663 2397 2488 2606 
Q 2219 2931 1791 2931 
Q 1403 2931 1139 2672 
Q 875 2413 847 1978 
z
" transform="scale(0.015625)"/>
      <path id="ArialMT-79" d="M 397 -1278 
L 334 -750 
Q 519 -800 656 -800 
Q 844 -800 956 -737 
Q 1069 -675 1141 -563 
Q 1194 -478 1313 -144 
Q 1328 -97 1363 -6 
L 103 3319 
L 709 3319 
L 1400 1397 
Q 1534 1031 1641 628 
Q 1738 1016 1872 1384 
L 2581 3319 
L 3144 3319 
L 1881 -56 
Q 1678 -603 1566 -809 
Q 1416 -1088 1222 -1217 
Q 1028 -1347 759 -1347 
Q 597 -1347 397 -1278 
z
" transform="scale(0.015625)"/>
     </defs>
     <use xlink:href="#ArialMT-49"/>
     <use xlink:href="#ArialMT-6e" x="27.783203"/>
     <use xlink:href="#ArialMT-74" x="83.398438"/>
     <use xlink:href="#ArialMT-72" x="111.181641"/>
     <use xlink:href="#ArialMT-61" x="144.482422"/>
     <use xlink:href="#ArialMT-2d" x="200.097656"/>
     <use xlink:href="#ArialMT-43" x="233.398438"/>
     <use xlink:href="#ArialMT-6c" x="305.615234"/>
     <use xlink:href="#ArialMT-61" x="327.832031"/>
     <use xlink:href="#ArialMT-73" x="383.447266"/>
     <use xlink:href="#ArialMT-73" x="433.447266"/>
     <use xlink:href="#ArialMT-20" x="483.447266"/>
     <use xlink:href="#ArialMT-54" x="509.480469"/>
     <use xlink:href="#ArialMT-61" x="559.439453"/>
     <use xlink:href="#ArialMT-6e" x="615.054688"/>
     <use xlink:href="#ArialMT-69" x="670.669922"/>
     <use xlink:href="#ArialMT-6d" x="692.886719"/>
     <use xlink:href="#ArialMT-6f" x="776.1875"/>
     <use xlink:href="#ArialMT-74" x="831.802734"/>
     <use xlink:href="#ArialMT-6f" x="859.585938"/>
     <use xlink:href="#ArialMT-20" x="915.201172"/>
     <use xlink:href="#ArialMT-46" x="942.984375"/>
     <use xlink:href="#ArialMT-69" x="1004.068359"/>
     <use xlink:href="#ArialMT-6e" x="1026.285156"/>
     <use xlink:href="#ArialMT-67" x="1081.900391"/>
     <use xlink:href="#ArialMT-65" x="1137.515625"/>
     <use xlink:href="#ArialMT-72" x="1193.130859"/>
     <use xlink:href="#ArialMT-70" x="1226.431641"/>
     <use xlink:href="#ArialMT-72" x="1282.046875"/>
     <use xlink:href="#ArialMT-69" x="1315.347656"/>
     <use xlink:href="#ArialMT-6e" x="1337.564453"/>
     <use xlink:href="#ArialMT-74" x="1393.179688"/>
     <use xlink:href="#ArialMT-20" x="1420.962891"/>
     <use xlink:href="#ArialMT-53" x="1448.746094"/>
     <use xlink:href="#ArialMT-69" x="1515.445312"/>
     <use xlink:href="#ArialMT-6d" x="1537.662109"/>
     <use xlink:href="#ArialMT-69" x="1620.962891"/>
     <use xlink:href="#ArialMT-6c" x="1643.179688"/>
     <use xlink:href="#ArialMT-61" x="1665.396484"/>
     <use xlink:href="#ArialMT-72" x="1721.011719"/>
     <use xlink:href="#ArialMT-69" x="1754.3125"/>
     <use xlink:href="#ArialMT-74" x="1776.529297"/>
     <use xlink:href="#ArialMT-79" x="1804.3125"/>
    </g>
   </g>
   <g id="legend_1">
    <g id="text_16">
     <!-- Fingerprint -->
     <g style="fill: #262626" transform="translate(538.9125 88.295625)scale(0.2 -0.2)">
      <use xlink:href="#ArialMT-46"/>
      <use xlink:href="#ArialMT-69" x="61.083984"/>
      <use xlink:href="#ArialMT-6e" x="83.300781"/>
      <use xlink:href="#ArialMT-67" x="138.916016"/>
      <use xlink:href="#ArialMT-65" x="194.53125"/>
      <use xlink:href="#ArialMT-72" x="250.146484"/>
      <use xlink:href="#ArialMT-70" x="283.447266"/>
      <use xlink:href="#ArialMT-72" x="339.0625"/>
      <use xlink:href="#ArialMT-69" x="372.363281"/>
      <use xlink:href="#ArialMT-6e" x="394.580078"/>
      <use xlink:href="#ArialMT-74" x="450.195312"/>
     </g>
    </g>
    <g id="line2d_15">
     <path d="M 541.119141 105.491719 
L 556.119141 105.491719 
L 556.119141 105.491719 
L 571.119141 105.491719 
L 571.119141 105.491719 
" style="fill: none; stroke: #1f77b4; stroke-width: 2.8; stroke-linecap: round"/>
    </g>
    <g id="text_17">
     <!-- ECFC4 -->
     <g style="fill: #262626" transform="translate(583.119141 110.741719)scale(0.15 -0.15)">
      <defs>
       <path id="ArialMT-45" d="M 506 0 
L 506 4581 
L 3819 4581 
L 3819 4041 
L 1113 4041 
L 1113 2638 
L 3647 2638 
L 3647 2100 
L 1113 2100 
L 1113 541 
L 3925 541 
L 3925 0 
L 506 0 
z
" transform="scale(0.015625)"/>
      </defs>
      <use xlink:href="#ArialMT-45"/>
      <use xlink:href="#ArialMT-43" x="66.699219"/>
      <use xlink:href="#ArialMT-46" x="138.916016"/>
      <use xlink:href="#ArialMT-43" x="200"/>
      <use xlink:href="#ArialMT-34" x="272.216797"/>
     </g>
    </g>
    <g id="line2d_16">
     <path d="M 541.119141 126.709688 
L 556.119141 126.709688 
L 556.119141 126.709688 
L 571.119141 126.709688 
L 571.119141 126.709688 
" style="fill: none; stroke: #ff7f0e; stroke-width: 2.8; stroke-linecap: round"/>
    </g>
    <g id="text_18">
     <!-- ECFP6 -->
     <g style="fill: #262626" transform="translate(583.119141 131.959688)scale(0.15 -0.15)">
      <use xlink:href="#ArialMT-45"/>
      <use xlink:href="#ArialMT-43" x="66.699219"/>
      <use xlink:href="#ArialMT-46" x="138.916016"/>
      <use xlink:href="#ArialMT-50" x="200"/>
      <use xlink:href="#ArialMT-36" x="266.699219"/>
     </g>
    </g>
   </g>
  </g>
 </g>
 <defs>
  <clipPath id="pa3859416e8">
   <rect x="90" y="60.48" width="558" height="380.52"/>
  </clipPath>
 </defs>
</svg>
